<?xml version="1.0" standalone="no"?>
<!DOCTYPE svg PUBLIC "-//W3C//DTD SVG 20010904//EN"
 "http://www.w3.org/TR/2001/REC-SVG-20010904/DTD/svg10.dtd">
<svg version="1.0" xmlns="http://www.w3.org/2000/svg"
 width="700.000000pt" height="700.000000pt" viewBox="0 0 700.000000 700.000000"
 preserveAspectRatio="xMidYMid meet">
<metadata>
Created by potrace 1.14, written by Peter Selinger 2001-2017
</metadata>
<g transform="translate(0.000000,700.000000) scale(0.100000,-0.100000)"
fill="#000000" stroke="none">
<path d="M3620 6959 c-25 -23 -121 -115 -215 -204 -93 -90 -195 -186 -225
-215 -30 -29 -136 -129 -234 -224 -98 -94 -193 -184 -211 -201 -39 -37 -383
-365 -440 -420 -137 -131 -395 -377 -426 -406 -20 -19 -121 -115 -224 -214
-103 -99 -205 -196 -225 -215 -60 -57 -349 -333 -421 -402 -36 -35 -144 -137
-239 -228 -95 -91 -194 -185 -220 -210 -225 -215 -407 -388 -468 -445 l-73
-69 84 -80 c207 -198 433 -414 467 -446 20 -19 122 -116 226 -216 104 -99 205
-195 224 -213 32 -30 287 -274 515 -493 49 -47 108 -103 130 -124 35 -32 294
-279 440 -419 137 -131 384 -366 415 -395 31 -28 283 -269 451 -430 31 -30
117 -111 189 -180 73 -69 154 -145 180 -170 101 -97 318 -301 340 -320 l23
-20 51 47 c47 44 111 103 191 178 17 17 114 109 215 205 101 96 201 191 221
210 73 69 325 309 370 352 120 114 399 381 467 446 42 40 92 87 111 105 l36
32 828 0 827 0 -2 280 -3 280 -540 1 c-297 1 -548 2 -558 3 -18 1 -18 25 -16
547 2 538 7 640 30 655 13 8 124 11 554 14 171 1 313 3 316 4 3 0 4 49 2 109
-2 59 -5 176 -6 259 -2 84 -5 155 -8 157 -3 3 -133 8 -290 11 -493 10 -580 13
-585 17 -7 7 -11 906 -4 959 8 58 9 60 52 65 29 4 743 14 976 14 l82 0 0 270
0 270 -877 0 -878 0 -75 71 c-41 39 -151 144 -245 234 -93 89 -190 182 -215
205 -25 23 -121 116 -215 205 -93 90 -188 180 -210 201 -22 20 -125 118 -229
218 -104 100 -205 196 -225 215 -20 18 -65 62 -101 97 l-66 64 -44 -41z m408
-1480 c102 -11 129 -16 191 -35 331 -99 541 -368 568 -728 10 -126 10 -2143 1
-2326 -10 -191 -49 -319 -136 -448 -100 -146 -233 -244 -414 -305 -159 -53
-235 -59 -883 -62 l-500 -2 2 1946 c1 1070 2 1952 2 1959 1 11 103 13 549 11
301 -1 580 -5 620 -10z"/>
<path d="M3505 3541 c0 -1071 3 -1393 12 -1399 13 -8 315 -6 378 2 117 17 168
57 234 182 l36 70 -1 975 c-1 536 -5 1054 -8 1153 -5 159 -8 184 -29 230 -45
99 -105 145 -207 161 -19 3 -121 8 -225 11 l-190 6 0 -1391z"/>
</g>
</svg>
