<?xml version="1.0" encoding="UTF-8" standalone="no"?>
<!-- Created with Inkscape (http://www.inkscape.org/) -->

<svg
   width="600mm"
   height="600mm"
   viewBox="0 0 600 600"
   version="1.1"
   id="svg1"
   inkscape:version="1.3-dev (411cb25, 2022-09-21)"
   sodipodi:docname="runner_7.svg"
   xml:space="preserve"
   xmlns:inkscape="http://www.inkscape.org/namespaces/inkscape"
   xmlns:sodipodi="http://sodipodi.sourceforge.net/DTD/sodipodi-0.dtd"
   xmlns="http://www.w3.org/2000/svg"
   xmlns:svg="http://www.w3.org/2000/svg"><sodipodi:namedview
     id="namedview1"
     pagecolor="#ffffff"
     bordercolor="#000000"
     borderopacity="0.25"
     inkscape:showpageshadow="2"
     inkscape:pageopacity="0.0"
     inkscape:pagecheckerboard="0"
     inkscape:deskcolor="#d1d1d1"
     inkscape:document-units="mm"
     showgrid="false"
     inkscape:zoom="0.40546475"
     inkscape:cx="1111.0707"
     inkscape:cy="1132.0343"
     inkscape:window-width="1920"
     inkscape:window-height="1048"
     inkscape:window-x="0"
     inkscape:window-y="32"
     inkscape:window-maximized="1"
     inkscape:current-layer="svg1" /><defs
     id="defs1" /><path
     d="m 449.82285,226.50295 c -4.35238,0.6779 -11.76729,1.03973 -16.91404,6.28505 -5.62236,5.73002 -9.96847,26.91606 -32.50255,26.91606 -7.34158,0 -17.16438,-0.90456 -26.60388,-2.86206 -14.13644,-2.93151 -10.07392,-36.12293 -25.11492,-36.12293 -16.48592,0 -77.02952,51.44895 -90.45738,59.20444"
     style="display:inline;fill:none;stroke:#404040;stroke-width:1;stroke-linecap:round;stroke-linejoin:round;stroke-dasharray:none;stroke-opacity:1"
     id="rt"
     sodipodi:nodetypes="cssssc" /><path
     style="display:inline;opacity:1;fill:none;fill-opacity:1;stroke:#404040;stroke-width:1;stroke-linecap:round;stroke-linejoin:round;stroke-dasharray:none;stroke-opacity:1"
     d="m 122.61271,324.86431 c 8.24039,0 3.93334,21.16549 42.58495,28.8559 17.45419,3.47284 66.20551,3.93091 95.43706,0.94141 50.59142,-5.174 83.73312,-28.15892 105.84487,-28.15892 12.33229,0 60.7607,6.93254 80.83105,8.13538 13.56287,0.81283 17.73659,-6.31223 23.5626,-6.31223"
     id="rh0"
     sodipodi:nodetypes="cssssc" /><path
     style="display:inline;fill:none;stroke:#404040;stroke-width:1;stroke-linecap:round;stroke-linejoin:round;stroke-dasharray:none;stroke-opacity:1"
     d="m 479.98327,366.79939 c -18.01282,18.0196 -170.44896,14.68092 -268.68428,12.22288 -38.34248,-2.47577 -71.60197,-12.98615 -88.80822,-22.9048"
     id="rb"
     sodipodi:nodetypes="ccc" /><path
     style="display:inline;opacity:1;fill:none;fill-opacity:1;stroke:#404040;stroke-width:1;stroke-linecap:round;stroke-linejoin:round;stroke-dasharray:1, 2;stroke-dashoffset:0;stroke-opacity:1"
     d="m 258.23008,279.92351 c -47.2645,31.02949 -113.14319,34.01299 -117.26681,34.01299 -13.55692,0 -18.35056,5.56021 -18.35056,10.92781 -8.54905,2.29093 -8.54865,26.39552 -0.12194,31.25316"
     id="rl"
     sodipodi:nodetypes="cscc" /><path
     style="display:inline;opacity:1;fill:none;stroke:#404040;stroke-width:1;stroke-linecap:round;stroke-linejoin:round;stroke-dasharray:1, 1.99999;stroke-dashoffset:0;stroke-opacity:1"
     d="m 150.39878,313.3613 c 0,29.88216 1.42638,19.15047 1.5263,36.65696"
     id="rv0"
     sodipodi:nodetypes="cc" /><path
     style="display:inline;opacity:1;fill:none;stroke:#404040;stroke-width:1;stroke-linecap:round;stroke-linejoin:round;stroke-dasharray:1, 1.99999;stroke-dashoffset:0;stroke-opacity:1"
     d="m 220.51396,356.61215 c 0,9.45568 0.0498,11.60337 0.0498,22.64006"
     id="rv1"
     sodipodi:nodetypes="cc" /><path
     style="display:inline;opacity:1;fill:none;stroke:#404040;stroke-width:1;stroke-linecap:round;stroke-linejoin:round;stroke-dasharray:1, 1.99999;stroke-dashoffset:0;stroke-opacity:1"
     d="m 237.11679,291.55553 c 0,29.88216 3.38976,47.00847 3.48967,64.51497"
     id="rv2"
     sodipodi:nodetypes="cc" /><path
     style="display:inline;opacity:1;fill:none;stroke:#404040;stroke-width:1;stroke-linecap:round;stroke-linejoin:round;stroke-dasharray:1, 1.99999;stroke-dashoffset:0;stroke-opacity:1"
     d="m 360.63408,234.62345 c -23.11091,30.61378 -19.28549,80.16941 -19.18556,97.6759"
     id="rv3"
     sodipodi:nodetypes="cc" /><path
     style="display:inline;opacity:1;fill:none;stroke:#404040;stroke-width:1;stroke-linecap:round;stroke-linejoin:round;stroke-dasharray:1, 1.99999;stroke-dashoffset:0;stroke-opacity:1"
     d="m 395.79299,329.17 c 0,9.45569 5.22546,39.77835 5.22546,50.64192"
     id="rv4"
     sodipodi:nodetypes="cc" /><path
     style="display:inline;opacity:1;fill:none;fill-opacity:1;stroke:#404040;stroke-width:1;stroke-linecap:round;stroke-linejoin:round;stroke-dasharray:1, 2;stroke-dashoffset:0;stroke-opacity:1"
     d="m 479.98327,366.79939 c 17.89677,-20.9979 -8.96995,-33.85748 -9.11003,-38.47354 -0.0531,-1.7496 -0.40499,-14.34594 -1.67915,-23.25941 -1.18737,-8.30611 -11.10693,-23.08806 -13.27017,-35.78509 -2.27677,-13.36356 -5.26444,-39.59347 -6.10107,-42.7784"
     id="rr"
     sodipodi:nodetypes="csssc" /><path
     style="display:inline;fill:none;fill-opacity:1;stroke:#404040;stroke-width:1;stroke-linecap:round;stroke-linejoin:round;stroke-dasharray:none;stroke-opacity:1"
     d="m 450.93319,94.295546 c 0,16.670704 -21.42362,35.144174 -50.2296,35.144174 -28.80597,0 -128.27873,-9.96862 -135.22625,-16.42014 -7.0938,-6.58735 -5.57968,-33.026211 0.0446,-40.916276 5.62426,-7.89007 107.08123,-16.882194 139.592,-16.882194 32.51074,0 45.81926,25.177658 45.81926,39.074436 z"
     id="tt"
     sodipodi:nodetypes="szszzs" /><path
     style="display:inline;fill:none;fill-opacity:1;stroke:#404040;stroke-width:1;stroke-linecap:round;stroke-linejoin:round;stroke-dasharray:none;stroke-opacity:1"
     d="m 476.41884,97.543436 c 0.0973,24.254184 -17.38172,45.347454 -51.57013,46.215404 -34.18847,0.86794 -81.53333,-6.08815 -102.30359,-6.08815 -29.39011,0 -65.23796,21.04531 -108.70387,20.4786 -37.25487,-0.48573 -95.23285,-0.78555 -95.23285,-46.93395 0,-51.22555 73.49224,-75.425862 122.26362,-75.425862 46.57129,0 82.96034,9.284543 106.14858,10.291846 23.18826,1.007313 50.61786,-1.962923 75.77702,2.947239 25.43789,4.964548 53.47829,12.875549 53.62122,48.514873 z"
     id="t0"
     sodipodi:nodetypes="sssssssss" /><path
     style="display:inline;opacity:1;fill:none;fill-opacity:1;stroke:#404040;stroke-width:1;stroke-linecap:round;stroke-linejoin:round;stroke-dasharray:none;stroke-opacity:1"
     d="m 486.56501,97.909036 c 0,38.287094 -34.67904,52.804774 -65.21497,52.804774 -30.4554,0 -71.2995,-17.9823 -97.82188,-17.9823 -28.81474,0 -59.08294,32.85452 -94.92015,33.75219 -41.1029,1.02958 -114.36358,-10.86509 -114.36358,-53.07583 0,-51.02485 81.9741,-90.04168 122.02711,-90.326169 58.41065,-0.414875 74.38466,23.280171 109.48239,23.280171 30.95802,0 58.13487,-9.501986 86.78979,-4.910852 24.59015,3.939866 54.02129,13.655471 54.02129,56.458016 z"
     id="tb"
     sodipodi:nodetypes="sssssssss" /><path
     style="display:inline;fill:none;stroke:#404040;stroke-width:1;stroke-linecap:round;stroke-linejoin:round;stroke-dasharray:none;stroke-opacity:1"
     d="m 144.93515,502.82458 c -26.12232,0 -38.60386,15.84916 -34.94251,29.51861"
     id="fl0"
     sodipodi:nodetypes="cc" /><path
     style="display:inline;fill:none;stroke:#404040;stroke-width:1;stroke-linecap:round;stroke-linejoin:round;stroke-dasharray:none;stroke-opacity:1"
     d="m 147.88624,502.71779 c 24.86969,0 40.66806,17.38353 37.29909,29.96139"
     id="fr0"
     sodipodi:nodetypes="cc" /><path
     style="display:inline;opacity:1;fill:none;stroke:#404040;stroke-width:1;stroke-linecap:round;stroke-linejoin:round;stroke-dasharray:none;stroke-opacity:1"
     d="m 84.971865,528.04548 c -4.273498,4.28726 -6.316103,19.32229 -3.731291,26.03909"
     id="fl1"
     sodipodi:nodetypes="cc" /><path
     style="display:inline;opacity:1;fill:none;stroke:#404040;stroke-width:1;stroke-linecap:round;stroke-linejoin:round;stroke-dasharray:none;stroke-opacity:1"
     d="m 204.55605,528.88697 c 5.25275,5.37532 8.2271,16.79756 3.89798,26.14629"
     id="fr1"
     sodipodi:nodetypes="cc" /><path
     style="display:inline;opacity:1;fill:none;stroke:#404040;stroke-width:1;stroke-linecap:round;stroke-linejoin:round;stroke-dasharray:none;stroke-opacity:1"
     d="m 144.82613,475.2505 c -33.91434,0 -64.030586,31.89157 -59.34778,49.3746"
     id="fl2"
     sodipodi:nodetypes="cc" /><path
     style="display:inline;opacity:1;fill:none;stroke:#404040;stroke-width:1;stroke-linecap:round;stroke-linejoin:round;stroke-dasharray:none;stroke-opacity:1"
     d="m 147.36562,475.38172 c 35.98448,0 61.91726,30.78081 57.16133,49.43513"
     id="fr2"
     sodipodi:nodetypes="cc" /><path
     style="display:inline;opacity:1;fill:none;stroke:#404040;stroke-width:1;stroke-linecap:round;stroke-linejoin:round;stroke-dasharray:none;stroke-opacity:1"
     d="m 391.15785,447.1702 c -3.16098,32.82535 -11.90926,50.68983 -6.13345,83.46093"
     id="bl3"
     sodipodi:nodetypes="cc" /><path
     style="display:inline;opacity:1;fill:none;stroke:#404040;stroke-width:1;stroke-linecap:round;stroke-linejoin:round;stroke-dasharray:none;stroke-opacity:1"
     d="m 494.96389,449.01719 c 1.32899,28.5614 12.01763,51.03598 7.0471,81.93159"
     id="br3"
     sodipodi:nodetypes="cc" /><path
     style="display:inline;opacity:1;fill:none;stroke:#404040;stroke-width:1;stroke-linecap:round;stroke-linejoin:round;stroke-dasharray:none;stroke-opacity:1"
     d="m 382.93076,533.66221 c -10.25598,5.92353 -1.91098,13.89531 -1.95195,19.0293 -0.0392,4.91849 -9.61786,13.89254 -1.77934,18.41981"
     id="bl4"
     sodipodi:nodetypes="csc" /><path
     style="display:inline;opacity:1;fill:none;stroke:#404040;stroke-width:1;stroke-linecap:round;stroke-linejoin:round;stroke-dasharray:none;stroke-opacity:1"
     d="m 502.51495,534.5037 c 8.93469,5.32036 1.03168,13.83876 1.03168,18.78879 0,5.10857 8.70091,12.93069 2.86629,18.76751"
     id="br4"
     sodipodi:nodetypes="csc" /></svg>
