<?xml version="1.0" encoding="UTF-8" standalone="no"?>
<!-- Created with Inkscape (http://www.inkscape.org/) -->

<svg
   width="600mm"
   height="600mm"
   viewBox="0 0 600 600"
   version="1.1"
   id="svg1"
   inkscape:version="1.3-dev (411cb25, 2022-09-21)"
   sodipodi:docname="runner_4_crap.svg"
   xml:space="preserve"
   xmlns:inkscape="http://www.inkscape.org/namespaces/inkscape"
   xmlns:sodipodi="http://sodipodi.sourceforge.net/DTD/sodipodi-0.dtd"
   xmlns="http://www.w3.org/2000/svg"
   xmlns:svg="http://www.w3.org/2000/svg"><sodipodi:namedview
     id="namedview1"
     pagecolor="#ffffff"
     bordercolor="#000000"
     borderopacity="0.25"
     inkscape:showpageshadow="2"
     inkscape:pageopacity="0.0"
     inkscape:pagecheckerboard="0"
     inkscape:deskcolor="#d1d1d1"
     inkscape:document-units="mm"
     showgrid="false"
     inkscape:zoom="0.43821615"
     inkscape:cx="1067.9661"
     inkscape:cy="554.52087"
     inkscape:window-width="1920"
     inkscape:window-height="1048"
     inkscape:window-x="0"
     inkscape:window-y="32"
     inkscape:window-maximized="1"
     inkscape:current-layer="layer3" /><defs
     id="defs1" /><g
     inkscape:groupmode="layer"
     id="layer3"
     inkscape:label="shape"
     style="display:inline"><path
       style="display:inline;opacity:1;fill:none;fill-opacity:1;stroke:#404040;stroke-width:1;stroke-linecap:round;stroke-linejoin:round;stroke-dasharray:none;stroke-opacity:1"
       d="m 122.61271,324.86431 c 8.24039,0 3.93334,21.16549 42.58495,28.8559 17.45419,3.47284 66.20551,3.93091 95.43706,0.94141 50.59142,-5.174 83.73312,-28.15892 105.84487,-28.15892 12.33229,0 60.7607,6.93254 80.83105,8.13538 13.56287,0.81283 17.73659,-6.31223 23.5626,-6.31223"
       id="mid_baseline"
       sodipodi:nodetypes="cssssc" /><path
       d="m 449.82285,226.50295 c -4.35238,0.6779 -11.76729,1.03973 -16.91404,6.28505 -5.62236,5.73002 -9.96847,26.91606 -32.50255,26.91606 -7.34158,0 -17.16438,-0.90456 -26.60388,-2.86206 -14.13644,-2.93151 -10.07392,-36.12293 -25.11492,-36.12293 -16.48592,0 -77.02952,51.44895 -90.45738,59.20444"
       style="display:inline;fill:none;stroke:#404040;stroke-width:1;stroke-linecap:round;stroke-linejoin:round;stroke-dasharray:none;stroke-opacity:1"
       id="top_baseline"
       sodipodi:nodetypes="cssssc" /><path
       style="display:inline;fill:none;stroke:#404040;stroke-width:1;stroke-linecap:round;stroke-linejoin:round;stroke-dasharray:none;stroke-opacity:1"
       d="m 479.98327,366.79939 c -18.01282,18.0196 -170.44896,14.68092 -268.68428,12.22288 -38.34248,-2.47577 -71.60197,-12.98615 -88.80822,-22.9048"
       id="path5"
       sodipodi:nodetypes="ccc" /><path
       style="display:inline;opacity:1;fill:none;fill-opacity:1;stroke:#404040;stroke-width:1;stroke-linecap:round;stroke-linejoin:round;stroke-dasharray:none;stroke-opacity:1"
       d="m 486.56501,97.909036 c 0,38.287094 -34.67904,52.804774 -65.21497,52.804774 -30.4554,0 -71.2995,-17.9823 -97.82188,-17.9823 -28.81474,0 -59.08294,32.85452 -94.92015,33.75219 -41.1029,1.02958 -114.36358,-10.86509 -114.36358,-53.07583 0,-51.02485 81.9741,-90.04168 122.02711,-90.326169 58.41065,-0.414875 74.38466,23.280171 109.48239,23.280171 30.95802,0 58.13487,-9.501986 86.78979,-4.910852 24.59015,3.939866 54.02129,13.655471 54.02129,56.458016 z"
       id="path11"
       sodipodi:nodetypes="sssssssss" /><path
       style="display:inline;fill:none;fill-opacity:1;stroke:#404040;stroke-width:1;stroke-linecap:round;stroke-linejoin:round;stroke-dasharray:none;stroke-opacity:1"
       d="m 476.41884,97.543436 c 0.0973,24.254184 -17.38172,45.347454 -51.57013,46.215404 -34.18847,0.86794 -81.53333,-6.08815 -102.30359,-6.08815 -29.39011,0 -65.23796,21.04531 -108.70387,20.4786 -37.25487,-0.48573 -95.23285,-0.78555 -95.23285,-46.93395 0,-51.22555 73.49224,-75.425862 122.26362,-75.425862 46.57129,0 82.96034,9.284543 106.14858,10.291846 23.18826,1.007313 50.61786,-1.962923 75.77702,2.947239 25.43789,4.964548 53.47829,12.875549 53.62122,48.514873 z"
       id="path12"
       sodipodi:nodetypes="sssssssss" /><path
       style="display:inline;fill:none;fill-opacity:1;stroke:#404040;stroke-width:1;stroke-linecap:round;stroke-linejoin:round;stroke-dasharray:none;stroke-opacity:1"
       d="m 450.93319,94.295546 c 0,16.670704 -21.42362,35.144174 -50.2296,35.144174 -28.80597,0 -128.27873,-9.96862 -135.22625,-16.42014 -7.0938,-6.58735 -5.57968,-33.026211 0.0446,-40.916276 5.62426,-7.89007 107.08123,-16.882194 139.592,-16.882194 32.51074,0 45.81926,25.177658 45.81926,39.074436 z"
       id="top_profile"
       sodipodi:nodetypes="szszzs" /><path
       style="display:inline;opacity:1;fill:none;stroke:#404040;stroke-width:1;stroke-linecap:round;stroke-linejoin:round;stroke-dasharray:none;stroke-opacity:1"
       d="m 494.96389,449.01719 c 1.32899,28.5614 12.01763,51.03598 7.0471,81.93159"
       id="right__upper2_profile"
       sodipodi:nodetypes="cc" /><path
       style="opacity:1;fill:none;stroke:#404040;stroke-width:1;stroke-linecap:round;stroke-linejoin:round;stroke-dasharray:none;stroke-opacity:1"
       d="m 391.15785,447.1702 c -3.16098,32.82535 -11.90926,50.68983 -6.13345,83.46093"
       id="path19"
       sodipodi:nodetypes="cc" /><path
       style="opacity:1;fill:none;stroke:#404040;stroke-width:1;stroke-linecap:round;stroke-linejoin:round;stroke-dasharray:none;stroke-opacity:1"
       d="m 502.51495,534.5037 c 8.93469,5.32036 1.03168,13.83876 1.03168,18.78879 0,5.10857 8.70091,12.93069 2.86629,18.76751"
       id="right__sole2_profile"
       sodipodi:nodetypes="csc" /><path
       style="opacity:1;fill:none;stroke:#404040;stroke-width:1;stroke-linecap:round;stroke-linejoin:round;stroke-dasharray:none;stroke-opacity:1"
       d="m 382.93076,533.66221 c -10.25598,5.92353 -1.91098,13.89531 -1.95195,19.0293 -0.0392,4.91849 -9.61786,13.89254 -1.77934,18.41981"
       id="left__sole2_profile"
       sodipodi:nodetypes="csc" /><path
       style="opacity:1;fill:none;stroke:#404040;stroke-width:1;stroke-linecap:round;stroke-linejoin:round;stroke-dasharray:none;stroke-opacity:1"
       d="m 144.82613,475.2505 c -33.91434,0 -64.030586,31.89157 -59.34778,49.3746"
       id="path21"
       sodipodi:nodetypes="cc" /><path
       style="opacity:1;fill:none;stroke:#404040;stroke-width:1;stroke-linecap:round;stroke-linejoin:round;stroke-dasharray:none;stroke-opacity:1"
       d="m 204.55605,528.88697 c 5.25275,5.37532 8.2271,16.79756 3.89798,26.14629"
       id="right__sole1_profile"
       sodipodi:nodetypes="cc" /><path
       style="opacity:1;fill:none;stroke:#404040;stroke-width:1;stroke-linecap:round;stroke-linejoin:round;stroke-dasharray:none;stroke-opacity:1"
       d="m 84.971865,528.04548 c -4.273498,4.28726 -6.316103,19.32229 -3.731291,26.03909"
       id="left__sole1_profile"
       sodipodi:nodetypes="cc" /><path
       style="display:inline;fill:none;stroke:#404040;stroke-width:1;stroke-linecap:round;stroke-linejoin:round;stroke-dasharray:none;stroke-opacity:1"
       d="m 147.88624,502.71779 c 24.86969,0 40.66806,17.38353 37.29909,29.96139"
       id="path24"
       sodipodi:nodetypes="cc" /><path
       style="display:inline;fill:none;stroke:#404040;stroke-width:1;stroke-linecap:round;stroke-linejoin:round;stroke-dasharray:none;stroke-opacity:1"
       d="m 144.93515,502.82458 c -26.12232,0 -38.60386,15.84916 -34.94251,29.51861"
       id="path"
       sodipodi:nodetypes="cc" /><path
       style="display:inline;opacity:1;fill:none;stroke:#404040;stroke-width:1;stroke-linecap:round;stroke-linejoin:round;stroke-dasharray:none;stroke-opacity:1"
       d="m 147.36562,475.38172 c 35.98448,0 61.91726,30.78081 57.16133,49.43513"
       id="path20"
       sodipodi:nodetypes="cc" /><path
       style="display:inline;fill:none;stroke:#404040;stroke-width:1;stroke-linecap:round;stroke-linejoin:round;stroke-dasharray:none;stroke-dashoffset:0"
       d="m 359.93919,249.12714 c -1.87297,-9.67815 -9.58733,-36.54428 -15.53542,-39.6873"
       id="path28"
       sodipodi:nodetypes="cc" /></g></svg>
