<?xml version="1.0" encoding="UTF-8" standalone="no"?>
<!-- Created with Inkscape (http://www.inkscape.org/) -->

<svg
   width="600mm"
   height="600mm"
   viewBox="0 0 600 600"
   version="1.1"
   id="svg1"
   inkscape:version="1.3-dev (411cb25, 2022-09-21)"
   sodipodi:docname="runner_4.svg"
   xml:space="preserve"
   xmlns:inkscape="http://www.inkscape.org/namespaces/inkscape"
   xmlns:sodipodi="http://sodipodi.sourceforge.net/DTD/sodipodi-0.dtd"
   xmlns="http://www.w3.org/2000/svg"
   xmlns:svg="http://www.w3.org/2000/svg"><sodipodi:namedview
     id="namedview1"
     pagecolor="#ffffff"
     bordercolor="#000000"
     borderopacity="0.25"
     inkscape:showpageshadow="2"
     inkscape:pageopacity="0.0"
     inkscape:pagecheckerboard="0"
     inkscape:deskcolor="#d1d1d1"
     inkscape:document-units="mm"
     showgrid="false"
     inkscape:zoom="0.61973122"
     inkscape:cx="1044.001"
     inkscape:cy="1094.0227"
     inkscape:window-width="1920"
     inkscape:window-height="1048"
     inkscape:window-x="0"
     inkscape:window-y="32"
     inkscape:window-maximized="1"
     inkscape:current-layer="layer3" /><defs
     id="defs1" /><g
     inkscape:groupmode="layer"
     id="layer4"
     inkscape:label="style"
     style="display:none"><path
       id="path1"
       style="fill:#ee5d5d;fill-opacity:1;stroke:none;stroke-width:1;stroke-linecap:round;stroke-linejoin:round;stroke-dasharray:none"
       d="m 348.33789,220.0957 c -7.62592,1.29995 -14.37555,5.35225 -20.85114,9.3707 -7.29965,4.50131 -14.28884,9.48415 -21.24766,14.49012 -16.40714,11.87495 -32.24709,24.53616 -49.03627,35.87973 -22.46629,14.43091 -48.13688,22.86082 -74.18146,28.14414 -11.92442,2.42746 -24.01704,4.16521 -36.18443,4.99247 -1.87305,0.12272 -3.74573,0.21995 -5.6299,0.29472 -0.8244,0.43519 -0.71366,1.5105 -0.82031,2.31054 -0.015,2.26598 0.52735,4.48674 0.80221,6.72616 1.62897,9.05644 7.54134,16.97502 15.14356,21.98607 4.32447,2.81512 9.13821,4.79793 14.01133,6.44467 13.60185,4.47174 28.05687,5.21923 42.26977,5.31151 18.56296,-0.17492 37.20704,-0.26692 55.61938,-2.90609 5.66915,-0.79267 11.27905,-1.94068 16.85933,-3.20611 21.4344,-4.71116 41.67566,-13.43483 62.44942,-20.26618 5.37554,-1.77252 10.83163,-3.1087 16.48758,-3.55292 2.53822,-0.18524 5.24898,-0.19297 7.80836,0.0721 4.43673,0.50838 8.98769,0.82016 13.46573,1.30921 19.53512,1.97289 39.0233,4.58679 58.58192,6.40577 6.00118,0.31908 12.30647,0.18834 17.81918,-2.48844 1.71692,-0.81511 3.19962,-2.08169 5.05229,-2.61273 1.31598,-0.5235 2.77214,-0.86759 3.90019,-1.74499 1.11861,-2.05415 0.74166,-4.51639 0.48998,-6.74449 -0.29861,-1.96789 -0.16314,-3.97278 -0.36385,-5.98983 -0.4715,-7.12521 -1.79383,-14.32237 -5.06736,-20.73111 -3.54183,-7.86511 -7.32213,-15.73505 -9.14738,-24.2177 -0.51678,-2.23246 -0.73763,-4.65319 -1.05146,-6.98071 -1.84344,-11.78829 -3.08516,-23.65188 -5.11065,-35.41578 -0.51038,-0.74553 -1.52951,-0.53749 -2.31641,-0.64648 -3.32262,-0.0296 -6.53363,1.04757 -9.6144,2.18498 -4.17245,1.71248 -7.49322,5.13428 -9.45859,9.15587 -3.17769,5.6411 -6.6104,11.27321 -11.58213,15.53554 -3.36668,2.87966 -7.534,4.9804 -11.9968,5.32944 -5.74389,0.68181 -11.66362,0.24326 -17.48247,-0.28873 -2.33504,-0.20161 -4.66823,-0.40482 -6.98011,-0.79345 -3.69886,-0.50946 -7.73031,-0.73106 -10.81725,-3.07789 -1.39429,-1.17227 -2.33974,-2.79157 -3.26161,-4.34264 -2.9483,-5.37003 -4.11948,-11.45275 -6.31425,-17.12783 -1.34836,-3.88895 -2.91173,-8.02069 -6.23534,-10.66393 -1.69965,-1.30651 -3.84138,-2.20309 -6.009,-2.14574 z" /><text
       xml:space="preserve"
       style="font-size:8px;display:inline;fill:#ee5d5d;fill-opacity:1;stroke:none;stroke-width:1;stroke-linecap:round;stroke-linejoin:round;stroke-dasharray:none"
       x="396.73276"
       y="292.84851"
       id="text8"><tspan
         sodipodi:role="line"
         style="font-size:8px;fill:#ffffff;fill-opacity:1;stroke-width:1"
         x="396.73276"
         y="292.84851"
         id="tspan9">canvas</tspan></text></g><g
     inkscape:groupmode="layer"
     id="layer3"
     inkscape:label="shape"
     style="display:inline"><path
       style="display:inline;opacity:1;fill:none;fill-opacity:1;stroke:#404040;stroke-width:1;stroke-linecap:round;stroke-linejoin:round;stroke-dasharray:none;stroke-opacity:1"
       d="m 122.61271,324.86431 c 8.24039,0 3.93334,21.16549 42.58495,28.8559 17.45419,3.47284 66.20551,3.93091 95.43706,0.94141 50.59142,-5.174 83.73312,-28.15892 105.84487,-28.15892 12.33229,0 60.7607,6.93254 80.83105,8.13538 13.56287,0.81283 17.73659,-6.31223 23.5626,-6.31223"
       id="mid_baseline"
       sodipodi:nodetypes="cssssc" /><path
       d="m 449.82285,226.50295 c -4.35238,0.6779 -11.76729,1.03973 -16.91404,6.28505 -5.62236,5.73002 -9.96847,26.91606 -32.50255,26.91606 -7.34158,0 -17.16438,-0.90456 -26.60388,-2.86206 -14.13644,-2.93151 -10.07392,-36.12293 -25.11492,-36.12293 -16.48592,0 -77.02952,51.44895 -90.45738,59.20444"
       style="display:inline;fill:none;stroke:#404040;stroke-width:1;stroke-linecap:round;stroke-linejoin:round;stroke-dasharray:none;stroke-opacity:1"
       id="top_baseline"
       sodipodi:nodetypes="cssssc" /><path
       style="display:inline;opacity:1;fill:none;fill-opacity:1;stroke:#404040;stroke-width:1;stroke-linecap:round;stroke-linejoin:round;stroke-dasharray:1, 2;stroke-dashoffset:0;stroke-opacity:1"
       d="m 479.98327,366.79939 c 17.89677,-20.9979 -8.96995,-33.85748 -9.11003,-38.47354 -0.0531,-1.7496 -0.40499,-14.34594 -1.67915,-23.25941 -1.18737,-8.30611 -11.10693,-23.08806 -13.27017,-35.78509 -2.27677,-13.36356 -5.26444,-39.59347 -6.10107,-42.7784"
       id="path18"
       sodipodi:nodetypes="csssc" /><path
       style="display:inline;opacity:1;fill:none;fill-opacity:1;stroke:#404040;stroke-width:1;stroke-linecap:round;stroke-linejoin:round;stroke-dasharray:1, 2;stroke-dashoffset:0;stroke-opacity:1"
       d="m 258.23008,279.92351 c -47.2645,31.02949 -113.14319,34.01299 -117.26681,34.01299 -13.55692,0 -18.35056,5.56021 -18.35056,10.92781 -8.54905,2.29093 -8.54865,26.39552 -0.12194,31.25316"
       id="front_baseline"
       sodipodi:nodetypes="cscc" /><path
       style="display:inline;opacity:1;fill:none;stroke:#404040;stroke-width:1;stroke-linecap:round;stroke-linejoin:round;stroke-dasharray:1, 1.99999;stroke-dashoffset:0;stroke-opacity:1"
       d="m 237.11679,291.55553 c 0,29.88216 3.38976,47.00847 3.48967,64.51497"
       id="upper1_baseline"
       sodipodi:nodetypes="cc" /><path
       style="display:inline;opacity:1;fill:none;stroke:#404040;stroke-width:1;stroke-linecap:round;stroke-linejoin:round;stroke-dasharray:1, 1.99999;stroke-dashoffset:0;stroke-opacity:1"
       d="m 150.39878,313.3613 c 0,29.88216 1.42638,19.15047 1.5263,36.65696"
       id="upperToe_baseline"
       sodipodi:nodetypes="cc" /><path
       style="display:inline;opacity:1;fill:none;stroke:#404040;stroke-width:1;stroke-linecap:round;stroke-linejoin:round;stroke-dasharray:1, 1.99999;stroke-dashoffset:0;stroke-opacity:1"
       d="m 360.63408,234.62345 c -23.11091,30.61378 -19.28549,80.16941 -19.18556,97.6759"
       id="path17"
       sodipodi:nodetypes="cc" /><path
       style="display:inline;opacity:1;fill:none;stroke:#404040;stroke-width:1;stroke-linecap:round;stroke-linejoin:round;stroke-dasharray:1, 1.99999;stroke-dashoffset:0;stroke-opacity:1"
       d="m 220.51396,356.61215 c 0,9.45568 0.0498,11.60337 0.0498,22.64006"
       id="sole1_baseline"
       sodipodi:nodetypes="cc" /><path
       style="display:inline;opacity:1;fill:none;stroke:#404040;stroke-width:1;stroke-linecap:round;stroke-linejoin:round;stroke-dasharray:1, 1.99999;stroke-dashoffset:0;stroke-opacity:1"
       d="m 395.79299,329.17 c 0,9.45569 5.22546,39.77835 5.22546,50.64192"
       id="path16"
       sodipodi:nodetypes="cc" /><text
       xml:space="preserve"
       style="font-size:12.2483px;display:inline;fill:#3a3a3a;fill-opacity:1;stroke-width:9.77083;stroke-linecap:round;stroke-linejoin:round;stroke-dasharray:none"
       x="110.32909"
       y="297.46152"
       id="text1"><tspan
         sodipodi:role="line"
         id="tspan1"
         style="font-size:12.2483px;fill:#3a3a3a;fill-opacity:1;stroke-width:9.77083;stroke-dasharray:none"
         x="110.32909"
         y="297.46152">Right</tspan></text><path
       style="display:inline;fill:none;stroke:#404040;stroke-width:1;stroke-linecap:round;stroke-linejoin:round;stroke-dasharray:none;stroke-opacity:1"
       d="m 479.98327,366.79939 c -18.01282,18.0196 -170.44896,14.68092 -268.68428,12.22288 -38.34248,-2.47577 -71.60197,-12.98615 -88.80822,-22.9048"
       id="path5"
       sodipodi:nodetypes="ccc" /><path
       style="display:inline;opacity:1;fill:none;fill-opacity:1;stroke:#404040;stroke-width:1;stroke-linecap:round;stroke-linejoin:round;stroke-dasharray:none;stroke-opacity:1"
       d="m 486.56501,97.909036 c 0,38.287094 -34.67904,52.804774 -65.21497,52.804774 -30.4554,0 -71.2995,-17.9823 -97.82188,-17.9823 -28.81474,0 -59.08294,32.85452 -94.92015,33.75219 -41.1029,1.02958 -114.36358,-10.86509 -114.36358,-53.07583 0,-51.02485 81.9741,-90.04168 122.02711,-90.326169 58.41065,-0.414875 74.38466,23.280171 109.48239,23.280171 30.95802,0 58.13487,-9.501986 86.78979,-4.910852 24.59015,3.939866 54.02129,13.655471 54.02129,56.458016 z"
       id="path11"
       sodipodi:nodetypes="sssssssss" /><path
       style="display:inline;fill:none;fill-opacity:1;stroke:#404040;stroke-width:1;stroke-linecap:round;stroke-linejoin:round;stroke-dasharray:none;stroke-opacity:1"
       d="m 476.41884,97.543436 c 0.0973,24.254184 -17.38172,45.347454 -51.57013,46.215404 -34.18847,0.86794 -81.53333,-6.08815 -102.30359,-6.08815 -29.39011,0 -65.23796,21.04531 -108.70387,20.4786 -37.25487,-0.48573 -95.23285,-0.78555 -95.23285,-46.93395 0,-51.22555 73.49224,-75.425862 122.26362,-75.425862 46.57129,0 82.96034,9.284543 106.14858,10.291846 23.18826,1.007313 50.61786,-1.962923 75.77702,2.947239 25.43789,4.964548 53.47829,12.875549 53.62122,48.514873 z"
       id="path12"
       sodipodi:nodetypes="sssssssss" /><path
       style="display:inline;fill:none;fill-opacity:1;stroke:#404040;stroke-width:1;stroke-linecap:round;stroke-linejoin:round;stroke-dasharray:none;stroke-opacity:1"
       d="m 450.93319,94.295546 c 0,16.670704 -21.42362,35.144174 -50.2296,35.144174 -28.80597,0 -128.27873,-9.96862 -135.22625,-16.42014 -7.0938,-6.58735 -5.57968,-33.026211 0.0446,-40.916276 5.62426,-7.89007 107.08123,-16.882194 139.592,-16.882194 32.51074,0 45.81926,25.177658 45.81926,39.074436 z"
       id="top_profile"
       sodipodi:nodetypes="szszzs" /><text
       xml:space="preserve"
       style="font-size:12.2483px;display:inline;fill:#3a3a3a;fill-opacity:1;stroke-width:13.5939;stroke-linecap:round;stroke-linejoin:round;stroke-dasharray:none"
       x="104.23677"
       y="64.096985"
       id="text1-5"><tspan
         sodipodi:role="line"
         id="tspan1-3"
         style="font-size:12.2483px;fill:#3a3a3a;fill-opacity:1;stroke-width:13.5939;stroke-dasharray:none"
         x="104.23677"
         y="64.096985">Top</tspan></text><path
       style="display:inline;opacity:1;fill:none;stroke:#404040;stroke-width:1;stroke-linecap:round;stroke-linejoin:round;stroke-dasharray:none;stroke-opacity:1"
       d="m 494.96389,449.01719 c 1.32899,28.5614 12.01763,51.03598 7.0471,81.93159"
       id="right__upper2_profile"
       sodipodi:nodetypes="cc" /><path
       style="opacity:1;fill:none;stroke:#404040;stroke-width:1;stroke-linecap:round;stroke-linejoin:round;stroke-dasharray:none;stroke-opacity:1"
       d="m 391.15785,447.1702 c -3.16098,32.82535 -11.90926,50.68983 -6.13345,83.46093"
       id="path19"
       sodipodi:nodetypes="cc" /><path
       style="opacity:1;fill:none;stroke:#404040;stroke-width:1;stroke-linecap:round;stroke-linejoin:round;stroke-dasharray:none;stroke-opacity:1"
       d="m 502.51495,534.5037 c 8.93469,5.32036 1.03168,13.83876 1.03168,18.78879 0,5.10857 8.70091,12.93069 2.86629,18.76751"
       id="right__sole2_profile"
       sodipodi:nodetypes="csc" /><path
       style="opacity:1;fill:none;stroke:#404040;stroke-width:1;stroke-linecap:round;stroke-linejoin:round;stroke-dasharray:none;stroke-opacity:1"
       d="m 382.93076,533.66221 c -10.25598,5.92353 -1.91098,13.89531 -1.95195,19.0293 -0.0392,4.91849 -9.61786,13.89254 -1.77934,18.41981"
       id="left__sole2_profile"
       sodipodi:nodetypes="csc" /><path
       style="opacity:1;fill:none;stroke:#404040;stroke-width:1;stroke-linecap:round;stroke-linejoin:round;stroke-dasharray:1, 3.99998;stroke-dashoffset:0;stroke-opacity:1"
       d="m 379.19946,571.11132 c 8.43553,4.85834 118.05481,6.22347 127.21346,0.94867"
       id="path8"
       sodipodi:nodetypes="cc" /><path
       style="opacity:1;fill:none;stroke:#404040;stroke-width:1;stroke-linecap:round;stroke-linejoin:round;stroke-dasharray:1, 3.99998;stroke-dashoffset:0;stroke-opacity:1"
       d="m 382.93076,533.66221 c 40.39332,0 86.2609,0.84151 119.58419,0.84151"
       id="path9"
       sodipodi:nodetypes="cc" /><path
       style="fill:none;stroke:#404040;stroke-width:1;stroke-linecap:round;stroke-linejoin:round;stroke-dasharray:1, 3.99998;stroke-dashoffset:0;stroke-opacity:1"
       d="m 391.15785,447.17021 c 3.88014,-14.48631 28.25767,-3.0985 50.33584,-3.0985 21.20976,0 50.23795,-7.12208 53.47022,4.94548"
       id="path6"
       sodipodi:nodetypes="csc" /><text
       xml:space="preserve"
       style="font-size:12.2483px;display:inline;fill:#3a3a3a;fill-opacity:1;stroke-width:9.77083;stroke-linecap:round;stroke-linejoin:round;stroke-dasharray:none"
       x="350.16422"
       y="510.15332"
       id="text1-9"><tspan
         sodipodi:role="line"
         style="font-size:12.2483px;fill:#3a3a3a;fill-opacity:1;stroke-width:9.77083;stroke-dasharray:none"
         x="350.16422"
         y="510.15332"
         id="tspan2">Back</tspan></text><path
       style="opacity:1;fill:none;stroke:#404040;stroke-width:1;stroke-linecap:round;stroke-linejoin:round;stroke-dasharray:none;stroke-opacity:1"
       d="m 144.82613,475.2505 c -33.91434,0 -64.030586,31.89157 -59.34778,49.3746"
       id="path21"
       sodipodi:nodetypes="cc" /><path
       style="opacity:1;fill:none;stroke:#404040;stroke-width:1;stroke-linecap:round;stroke-linejoin:round;stroke-dasharray:none;stroke-opacity:1"
       d="m 204.55605,528.88697 c 5.25275,5.37532 8.2271,16.79756 3.89798,26.14629"
       id="right__sole1_profile"
       sodipodi:nodetypes="cc" /><path
       style="opacity:1;fill:none;stroke:#404040;stroke-width:1;stroke-linecap:round;stroke-linejoin:round;stroke-dasharray:none;stroke-opacity:1"
       d="m 84.971865,528.04548 c -4.273498,4.28726 -6.316103,19.32229 -3.731291,26.03909"
       id="left__sole1_profile"
       sodipodi:nodetypes="cc" /><path
       style="opacity:1;fill:none;stroke:#404040;stroke-width:1;stroke-linecap:round;stroke-linejoin:round;stroke-dasharray:1, 3.99998;stroke-dashoffset:0;stroke-opacity:1"
       d="m 81.240574,554.08457 c 8.435514,4.85834 118.054796,6.22347 127.213456,0.94867"
       id="bottom"
       sodipodi:nodetypes="cc" /><path
       style="opacity:1;fill:none;stroke:#404040;stroke-width:1;stroke-linecap:round;stroke-linejoin:round;stroke-dasharray:1, 3.99998;stroke-dashoffset:0;stroke-opacity:1"
       d="m 84.971865,528.04548 c 44.961425,12.01787 37.516375,-4.91976 61.981665,-4.91976 22.3736,0 13.75368,17.48173 57.60252,5.76125"
       id="path3"
       sodipodi:nodetypes="csc" /><path
       style="display:inline;fill:none;stroke:#404040;stroke-width:1;stroke-linecap:round;stroke-linejoin:round;stroke-dasharray:none;stroke-opacity:1"
       d="m 147.88624,502.71779 c 24.86969,0 40.66806,17.38353 37.29909,29.96139"
       id="path24"
       sodipodi:nodetypes="cc" /><path
       style="display:inline;fill:none;stroke:#404040;stroke-width:1;stroke-linecap:round;stroke-linejoin:round;stroke-dasharray:none;stroke-opacity:1"
       d="m 144.93515,502.82458 c -26.12232,0 -38.60386,15.84916 -34.94251,29.51861"
       id="path"
       sodipodi:nodetypes="cc" /><text
       xml:space="preserve"
       style="font-size:12.2483px;display:inline;fill:#3a3a3a;fill-opacity:1;stroke-width:16.4561;stroke-linecap:round;stroke-linejoin:round;stroke-dasharray:none"
       x="48.248806"
       y="526.96283"
       id="text1-9-9"><tspan
         sodipodi:role="line"
         style="font-size:12.2483px;fill:#3a3a3a;fill-opacity:1;stroke-width:16.4561;stroke-dasharray:none"
         x="48.248806"
         y="526.96283"
         id="tspan3">Front</tspan></text><path
       style="display:inline;opacity:1;fill:none;stroke:#404040;stroke-width:1;stroke-linecap:round;stroke-linejoin:round;stroke-dasharray:none;stroke-opacity:1"
       d="m 147.36562,475.38172 c 35.98448,0 61.91726,30.78081 57.16133,49.43513"
       id="path20"
       sodipodi:nodetypes="cc" /><text
       xml:space="preserve"
       style="font-size:9.56893px;display:inline;fill:#323232;fill-opacity:1;stroke-width:10;stroke-linecap:round;stroke-linejoin:round"
       x="419.28983"
       y="259.76749"
       id="text15"><tspan
         sodipodi:role="line"
         id="tspan15"
         style="font-size:9.56893px;fill:#323232;fill-opacity:1;stroke-width:10"
         x="419.28983"
         y="259.76749">rim</tspan></text><text
       xml:space="preserve"
       style="font-size:8px;display:inline;fill:#323232;fill-opacity:1;stroke-width:10;stroke-linecap:round;stroke-linejoin:round"
       x="342.63062"
       y="357.43109"
       id="text15-2"><tspan
         sodipodi:role="line"
         style="font-size:8px;fill:#323232;fill-opacity:1;stroke-width:10"
         x="342.63062"
         y="357.43109"
         id="tspan7">insole</tspan></text><text
       xml:space="preserve"
       style="font-size:6.88963px;display:inline;fill:#323232;fill-opacity:1;stroke-width:10;stroke-linecap:round;stroke-linejoin:round"
       x="296.56079"
       y="341.82635"
       id="text15-2-5"><tspan
         sodipodi:role="line"
         id="tspan15-7-3"
         style="font-size:6.88963px;fill:#323232;fill-opacity:1;stroke-width:10"
         x="296.56079"
         y="341.82635">sole</tspan></text><text
       xml:space="preserve"
       style="font-size:9.56893px;display:inline;fill:#323232;fill-opacity:1;stroke-width:10;stroke-linecap:round;stroke-linejoin:round"
       x="362.3063"
       y="334.32938"
       id="text15-6"><tspan
         sodipodi:role="line"
         id="tspan15-1"
         style="font-size:9.56893px;fill:#323232;fill-opacity:1;stroke-width:10"
         x="362.3063"
         y="334.32938">B</tspan></text><text
       xml:space="preserve"
       style="font-size:9.56893px;display:inline;fill:#323232;fill-opacity:1;stroke-width:10;stroke-linecap:round;stroke-linejoin:round"
       x="239.36005"
       y="332.22351"
       id="text15-6-29"><tspan
         sodipodi:role="line"
         id="tspan15-1-3"
         style="font-size:9.56893px;fill:#323232;fill-opacity:1;stroke-width:10"
         x="239.36005"
         y="332.22351">D</tspan></text><text
       xml:space="preserve"
       style="font-size:9.56893px;display:inline;fill:#323232;fill-opacity:1;stroke-width:10;stroke-linecap:round;stroke-linejoin:round"
       x="116.21286"
       y="478.6582"
       id="text15-6-29-7"><tspan
         sodipodi:role="line"
         id="tspan15-1-3-8"
         style="font-size:9.56893px;fill:#323232;fill-opacity:1;stroke-width:10"
         x="116.21286"
         y="478.6582">D</tspan></text><text
       xml:space="preserve"
       style="font-size:9.56893px;display:inline;fill:#323232;fill-opacity:1;stroke-width:10;stroke-linecap:round;stroke-linejoin:round"
       x="165.25621"
       y="476.47925"
       id="text15-6-29-7-5"><tspan
         sodipodi:role="line"
         id="tspan15-1-3-8-3"
         style="font-size:9.56893px;fill:#323232;fill-opacity:1;stroke-width:10"
         x="165.25621"
         y="476.47925">D</tspan></text><text
       xml:space="preserve"
       style="font-size:9.56893px;display:inline;fill:#323232;fill-opacity:1;stroke-width:10;stroke-linecap:round;stroke-linejoin:round"
       x="126.05911"
       y="513.4671"
       id="text15-6-29-7-3"><tspan
         sodipodi:role="line"
         id="tspan15-1-3-8-6"
         style="font-size:9.56893px;fill:#323232;fill-opacity:1;stroke-width:10"
         x="126.05911"
         y="513.4671">E</tspan></text><text
       xml:space="preserve"
       style="font-size:9.56893px;display:inline;fill:#323232;fill-opacity:1;stroke-width:10;stroke-linecap:round;stroke-linejoin:round"
       x="159.52341"
       y="513.56445"
       id="text15-6-29-7-3-9"><tspan
         sodipodi:role="line"
         id="tspan15-1-3-8-6-1"
         style="font-size:9.56893px;fill:#323232;fill-opacity:1;stroke-width:10"
         x="159.52341"
         y="513.56445">E</tspan></text><text
       xml:space="preserve"
       style="font-size:9.56893px;display:inline;fill:#323232;fill-opacity:1;stroke-width:10;stroke-linecap:round;stroke-linejoin:round"
       x="150.42029"
       y="325.14331"
       id="text15-6-29-7-3-3"><tspan
         sodipodi:role="line"
         id="tspan15-1-3-8-6-2"
         style="font-size:9.56893px;fill:#323232;fill-opacity:1;stroke-width:10"
         x="150.42029"
         y="325.14331">E</tspan></text><text
       xml:space="preserve"
       style="font-size:9.56893px;display:inline;fill:#323232;fill-opacity:1;stroke-width:10;stroke-linecap:round;stroke-linejoin:round"
       x="221.34554"
       y="373.12256"
       id="text15-6-29-7-3-3-5"><tspan
         sodipodi:role="line"
         id="tspan15-1-3-8-6-2-5"
         style="font-size:9.56893px;fill:#323232;fill-opacity:1;stroke-width:10"
         x="221.34554"
         y="373.12256">F</tspan></text><text
       xml:space="preserve"
       style="font-size:9.56893px;display:inline;fill:#323232;fill-opacity:1;stroke-width:10;stroke-linecap:round;stroke-linejoin:round"
       x="203.78325"
       y="546.93005"
       id="text15-6-29-7-3-3-5-5"><tspan
         sodipodi:role="line"
         id="tspan15-1-3-8-6-2-5-6"
         style="font-size:9.56893px;fill:#323232;fill-opacity:1;stroke-width:10"
         x="203.78325"
         y="546.93005">F</tspan></text><text
       xml:space="preserve"
       style="font-size:9.56893px;display:inline;fill:#323232;fill-opacity:1;stroke-width:10;stroke-linecap:round;stroke-linejoin:round"
       x="81.808281"
       y="547.1239"
       id="text15-6-29-7-3-3-5-5-4"><tspan
         sodipodi:role="line"
         id="tspan15-1-3-8-6-2-5-6-5"
         style="font-size:9.56893px;fill:#323232;fill-opacity:1;stroke-width:10"
         x="81.808281"
         y="547.1239">F</tspan></text><text
       xml:space="preserve"
       style="font-size:9.56893px;display:inline;fill:#323232;fill-opacity:1;stroke-width:10;stroke-linecap:round;stroke-linejoin:round"
       x="318.33844"
       y="379.55453"
       id="text15-6-5"><tspan
         sodipodi:role="line"
         id="tspan15-1-9"
         style="font-size:9.56893px;fill:#323232;fill-opacity:1;stroke-width:10"
         x="318.33844"
         y="379.55453">C</tspan></text><text
       xml:space="preserve"
       style="font-size:10px;display:inline;fill:#323232;fill-opacity:1;stroke-width:10;stroke-linecap:round;stroke-linejoin:round"
       x="343.69312"
       y="294.92123"
       id="text15-6-5-7"><tspan
         sodipodi:role="line"
         id="tspan15-1-9-4"
         style="font-size:10px;fill:#323232;fill-opacity:1;stroke-width:10"
         x="343.69312"
         y="294.92123">G</tspan></text><text
       xml:space="preserve"
       style="font-size:9.56893px;display:inline;fill:#323232;fill-opacity:1;stroke-width:10;stroke-linecap:round;stroke-linejoin:round"
       x="488.39514"
       y="488.57291"
       id="text15-6-5-7-2"><tspan
         sodipodi:role="line"
         id="tspan15-1-9-4-6"
         style="font-size:9.56893px;fill:#323232;fill-opacity:1;stroke-width:10"
         x="488.39514"
         y="488.57291">G</tspan></text><text
       xml:space="preserve"
       style="font-size:9.56893px;display:inline;fill:#323232;fill-opacity:1;stroke-width:10;stroke-linecap:round;stroke-linejoin:round"
       x="388.534"
       y="490.64935"
       id="text15-6-5-7-5"><tspan
         sodipodi:role="line"
         id="tspan15-1-9-4-0"
         style="font-size:9.56893px;fill:#323232;fill-opacity:1;stroke-width:10"
         x="388.534"
         y="490.64935">G</tspan></text><text
       xml:space="preserve"
       style="font-size:9.56893px;display:inline;fill:#323232;fill-opacity:1;stroke-width:10;stroke-linecap:round;stroke-linejoin:round"
       x="400.99387"
       y="364.78397"
       id="text15-6-5-7-7"><tspan
         sodipodi:role="line"
         id="tspan15-1-9-4-8"
         style="font-size:9.56893px;fill:#323232;fill-opacity:1;stroke-width:10"
         x="400.99387"
         y="364.78397">H</tspan></text><text
       xml:space="preserve"
       style="font-size:9.56893px;display:inline;fill:#323232;fill-opacity:1;stroke-width:10;stroke-linecap:round;stroke-linejoin:round"
       x="495.25391"
       y="556.26978"
       id="text15-6-5-7-7-4"><tspan
         sodipodi:role="line"
         id="tspan15-1-9-4-8-3"
         style="font-size:9.56893px;fill:#323232;fill-opacity:1;stroke-width:10"
         x="495.25391"
         y="556.26978">H</tspan></text><text
       xml:space="preserve"
       style="font-size:9.56893px;display:inline;fill:#323232;fill-opacity:1;stroke-width:10;stroke-linecap:round;stroke-linejoin:round"
       x="381.52054"
       y="556.40308"
       id="text15-6-5-7-7-4-2"><tspan
         sodipodi:role="line"
         id="tspan15-1-9-4-8-3-0"
         style="font-size:9.56893px;fill:#323232;fill-opacity:1;stroke-width:10"
         x="381.52054"
         y="556.40308">H</tspan></text><text
       xml:space="preserve"
       style="font-size:9.56893px;display:inline;fill:#323232;fill-opacity:1;stroke-width:10;stroke-linecap:round;stroke-linejoin:round"
       x="213.0426"
       y="175.08154"
       id="text15-6-5-9"><tspan
         sodipodi:role="line"
         id="tspan15-1-9-7"
         style="font-size:9.56893px;fill:#323232;fill-opacity:1;stroke-width:10"
         x="213.0426"
         y="175.08154">C</tspan></text><text
       xml:space="preserve"
       style="font-size:9px;display:inline;fill:#323232;fill-opacity:1;stroke-width:10;stroke-linecap:round;stroke-linejoin:round"
       x="191.96327"
       y="153.58733"
       id="text15-6-2"><tspan
         sodipodi:role="line"
         id="tspan15-1-0"
         style="fill:#323232;fill-opacity:1;stroke-width:10;font-size:9px"
         x="191.96327"
         y="153.58733">B (insole)</tspan></text><text
       xml:space="preserve"
       style="font-size:9.56893px;display:inline;fill:#323232;fill-opacity:1;stroke-width:10;stroke-linecap:round;stroke-linejoin:round"
       x="411.29138"
       y="121.83282"
       id="text15-3"><tspan
         sodipodi:role="line"
         id="tspan15-6"
         style="font-size:9.56893px;fill:#323232;fill-opacity:1;stroke-width:10"
         x="411.29138"
         y="121.83282">rim</tspan></text><text
       xml:space="preserve"
       style="font-size:6.12413px;display:inline;fill:#323232;fill-opacity:1;stroke-width:10;stroke-linecap:round;stroke-linejoin:round"
       x="309.56915"
       y="231.1315"
       id="text15-3-5"><tspan
         sodipodi:role="line"
         id="tspan15-6-3"
         style="font-size:6.12413px;fill:#323232;fill-opacity:1;stroke-width:10"
         x="309.56915"
         y="231.1315">tf</tspan></text><text
       xml:space="preserve"
       style="font-size:6.12413px;display:inline;fill:#323232;fill-opacity:1;stroke-width:10;stroke-linecap:round;stroke-linejoin:round"
       x="298.23895"
       y="289.2251"
       id="text15-3-5-9"><tspan
         sodipodi:role="line"
         style="font-size:6.12413px;fill:#323232;fill-opacity:1;stroke-width:10"
         x="298.23895"
         y="289.2251"
         id="tspan5">tb</tspan></text><text
       xml:space="preserve"
       style="font-size:6.12413px;display:inline;fill:#323232;fill-opacity:1;stroke-width:10;stroke-linecap:round;stroke-linejoin:round"
       x="349.37598"
       y="215.2744"
       id="text15-3-5-9-9"><tspan
         sodipodi:role="line"
         style="font-size:6.12413px;fill:#323232;fill-opacity:1;stroke-width:10"
         x="349.37598"
         y="215.2744"
         id="tspan4-3">tt</tspan></text><text
       xml:space="preserve"
       style="font-size:6.12413px;display:inline;fill:#323232;fill-opacity:1;stroke-width:10;stroke-linecap:round;stroke-linejoin:round"
       x="355.47528"
       y="92.935356"
       id="text15-3-5-9-9-2"><tspan
         sodipodi:role="line"
         style="font-size:6.12413px;fill:#323232;fill-opacity:1;stroke-width:10"
         x="355.47528"
         y="92.935356"
         id="tspan4-3-6">tt</tspan></text><path
       style="display:inline;fill:none;stroke:#404040;stroke-width:1;stroke-linecap:round;stroke-linejoin:round;stroke-dasharray:1, 2;stroke-dashoffset:0"
       d="m 253.92812,304.02944 c 29.99157,-12.9489 102.51519,-48.05646 106.01107,-54.9023"
       id="path27"
       sodipodi:nodetypes="cc" /><path
       style="display:inline;fill:none;stroke:#404040;stroke-width:1;stroke-linecap:round;stroke-linejoin:round;stroke-dasharray:none;stroke-dashoffset:0"
       d="m 359.93919,249.12714 c -1.87297,-9.67815 -9.58733,-36.54428 -15.53542,-39.6873"
       id="path28"
       sodipodi:nodetypes="cc" /><path
       style="display:inline;fill:none;stroke:#404040;stroke-width:1;stroke-linecap:round;stroke-linejoin:round;stroke-dasharray:1, 2;stroke-dashoffset:0"
       d="m 250.1032,287.83429 c 26.86692,-15.89374 65.73987,-61.54615 94.30057,-78.39445"
       id="path29"
       sodipodi:nodetypes="cc" /><path
       style="fill:none;stroke:#404040;stroke-width:1;stroke-linecap:round;stroke-linejoin:round;stroke-dasharray:1, 1.99999;stroke-dashoffset:0"
       d="m 357.24176,57.722649 c -4.51875,16.870541 -4.06218,52.109521 0.51256,69.189091"
       id="path30"
       sodipodi:nodetypes="cc" /><path
       style="fill:none;stroke:#404040;stroke-width:1;stroke-linecap:round;stroke-linejoin:round;stroke-dasharray:1, 1.99999;stroke-dashoffset:0"
       d="m 476.75124,335.16269 c -9.81964,0 -11.76354,12.02123 -100.74333,12.02123 -35.97033,0 -88.03869,14.10262 -146.30373,14.10262 -59.56665,0 -94.02968,-4.59547 -111.61795,-31.9166"
       id="path22"
       sodipodi:nodetypes="cssc" /><text
       xml:space="preserve"
       style="font-size:45.1556px;fill:none;stroke:#404040;stroke-width:1;stroke-linecap:round;stroke-linejoin:round;stroke-dasharray:1, 2;stroke-dashoffset:0"
       x="153.56697"
       y="223.01672"
       id="text4"><tspan
         sodipodi:role="line"
         id="tspan4"
         style="stroke-width:1;stroke-dasharray:1, 2;stroke-dashoffset:0"
         x="153.56697"
         y="223.01672" /></text><text
       xml:space="preserve"
       style="font-size:45.1556px;fill:none;stroke:#404040;stroke-width:1;stroke-linecap:round;stroke-linejoin:round;stroke-dasharray:1, 2;stroke-dashoffset:0"
       x="84.523247"
       y="220.03214"
       id="text6"><tspan
         sodipodi:role="line"
         id="tspan6"
         style="stroke-width:1"
         x="84.523247"
         y="220.03214" /></text><path
       style="fill:none;stroke:#404040;stroke-width:1;stroke-linecap:round;stroke-linejoin:round;stroke-dasharray:1, 2;stroke-dashoffset:0"
       d="m 144.25174,313.80657 c 0,38.47492 30.84803,42.05811 89.12201,42.05811 71.0949,0 106.55062,-29.63917 133.10664,-29.63917 13.53978,0 73.85992,8.05983 80.75874,8.13423 15.78572,0.17013 16.03693,-6.35823 23.62436,-6.35823"
       id="path23"
       sodipodi:nodetypes="csssc" /></g></svg>
