<?xml version="1.0" encoding="UTF-8" standalone="no"?>
<!-- Created with Inkscape (http://www.inkscape.org/) -->

<svg
   width="600mm"
   height="600mm"
   viewBox="0 0 600 600"
   version="1.1"
   id="svg1"
   inkscape:version="1.3-dev (411cb25, 2022-09-21)"
   sodipodi:docname="runner_5.svg"
   xml:space="preserve"
   xmlns:inkscape="http://www.inkscape.org/namespaces/inkscape"
   xmlns:sodipodi="http://sodipodi.sourceforge.net/DTD/sodipodi-0.dtd"
   xmlns="http://www.w3.org/2000/svg"
   xmlns:svg="http://www.w3.org/2000/svg"><sodipodi:namedview
     id="namedview1"
     pagecolor="#ffffff"
     bordercolor="#000000"
     borderopacity="0.25"
     inkscape:showpageshadow="2"
     inkscape:pageopacity="0.0"
     inkscape:pagecheckerboard="0"
     inkscape:deskcolor="#d1d1d1"
     inkscape:document-units="mm"
     showgrid="false"
     inkscape:zoom="0.43821615"
     inkscape:cx="1008.6347"
     inkscape:cy="1188.911"
     inkscape:window-width="1920"
     inkscape:window-height="1048"
     inkscape:window-x="0"
     inkscape:window-y="32"
     inkscape:window-maximized="1"
     inkscape:current-layer="layer3" /><defs
     id="defs1" /><g
     inkscape:groupmode="layer"
     id="layer4"
     inkscape:label="style"
     style="display:none"><path
       id="path1"
       style="fill:#ee5d5d;fill-opacity:1;stroke:none;stroke-width:1;stroke-linecap:round;stroke-linejoin:round;stroke-dasharray:none"
       d="m 348.33789,220.0957 c -7.62592,1.29995 -14.37555,5.35225 -20.85114,9.3707 -7.29965,4.50131 -14.28884,9.48415 -21.24766,14.49012 -16.40714,11.87495 -32.24709,24.53616 -49.03627,35.87973 -22.46629,14.43091 -48.13688,22.86082 -74.18146,28.14414 -11.92442,2.42746 -24.01704,4.16521 -36.18443,4.99247 -1.87305,0.12272 -3.74573,0.21995 -5.6299,0.29472 -0.8244,0.43519 -0.71366,1.5105 -0.82031,2.31054 -0.015,2.26598 0.52735,4.48674 0.80221,6.72616 1.62897,9.05644 7.54134,16.97502 15.14356,21.98607 4.32447,2.81512 9.13821,4.79793 14.01133,6.44467 13.60185,4.47174 28.05687,5.21923 42.26977,5.31151 18.56296,-0.17492 37.20704,-0.26692 55.61938,-2.90609 5.66915,-0.79267 11.27905,-1.94068 16.85933,-3.20611 21.4344,-4.71116 41.67566,-13.43483 62.44942,-20.26618 5.37554,-1.77252 10.83163,-3.1087 16.48758,-3.55292 2.53822,-0.18524 5.24898,-0.19297 7.80836,0.0721 4.43673,0.50838 8.98769,0.82016 13.46573,1.30921 19.53512,1.97289 39.0233,4.58679 58.58192,6.40577 6.00118,0.31908 12.30647,0.18834 17.81918,-2.48844 1.71692,-0.81511 3.19962,-2.08169 5.05229,-2.61273 1.31598,-0.5235 2.77214,-0.86759 3.90019,-1.74499 1.11861,-2.05415 0.74166,-4.51639 0.48998,-6.74449 -0.29861,-1.96789 -0.16314,-3.97278 -0.36385,-5.98983 -0.4715,-7.12521 -1.79383,-14.32237 -5.06736,-20.73111 -3.54183,-7.86511 -7.32213,-15.73505 -9.14738,-24.2177 -0.51678,-2.23246 -0.73763,-4.65319 -1.05146,-6.98071 -1.84344,-11.78829 -3.08516,-23.65188 -5.11065,-35.41578 -0.51038,-0.74553 -1.52951,-0.53749 -2.31641,-0.64648 -3.32262,-0.0296 -6.53363,1.04757 -9.6144,2.18498 -4.17245,1.71248 -7.49322,5.13428 -9.45859,9.15587 -3.17769,5.6411 -6.6104,11.27321 -11.58213,15.53554 -3.36668,2.87966 -7.534,4.9804 -11.9968,5.32944 -5.74389,0.68181 -11.66362,0.24326 -17.48247,-0.28873 -2.33504,-0.20161 -4.66823,-0.40482 -6.98011,-0.79345 -3.69886,-0.50946 -7.73031,-0.73106 -10.81725,-3.07789 -1.39429,-1.17227 -2.33974,-2.79157 -3.26161,-4.34264 -2.9483,-5.37003 -4.11948,-11.45275 -6.31425,-17.12783 -1.34836,-3.88895 -2.91173,-8.02069 -6.23534,-10.66393 -1.69965,-1.30651 -3.84138,-2.20309 -6.009,-2.14574 z" /><text
       xml:space="preserve"
       style="font-size:8px;display:inline;fill:#ee5d5d;fill-opacity:1;stroke:none;stroke-width:1;stroke-linecap:round;stroke-linejoin:round;stroke-dasharray:none"
       x="396.73276"
       y="292.84851"
       id="text8"><tspan
         sodipodi:role="line"
         style="font-size:8px;fill:#ffffff;fill-opacity:1;stroke-width:1"
         x="396.73276"
         y="292.84851"
         id="tspan9">canvas</tspan></text></g><g
     inkscape:groupmode="layer"
     id="layer3"
     inkscape:label="shape"
     style="display:inline"><path
       style="display:inline;opacity:1;fill:none;fill-opacity:1;stroke:#404040;stroke-width:1;stroke-linecap:round;stroke-linejoin:round;stroke-dasharray:none;stroke-opacity:1"
       d="m 129.37568,496.05712 c 8.24039,0 3.93334,21.16549 42.58495,28.8559 17.45419,3.47284 66.20551,3.93091 95.43706,0.94141 50.59142,-5.174 83.73312,-28.15892 105.84487,-28.15892 12.33229,0 60.7607,6.93254 80.83105,8.13538 13.56287,0.81283 17.73659,-6.31223 23.5626,-6.31223"
       id="mid_baseline"
       sodipodi:nodetypes="cssssc" /><path
       d="m 456.58582,352.23426 c -6.84148,0 -11.76729,1.03973 -16.91404,6.28505 -5.62236,5.73002 -9.70891,5.73822 -25.07152,4.2554 -7.30762,-0.70534 -15.64923,-12.22289 -25.08873,-14.18039 -14.13644,-2.93151 -19.0201,-2.14394 -34.0611,-2.14394 -16.48592,0 -19.51811,80.95885 -125.28342,121.06572"
       style="display:inline;fill:none;stroke:#404040;stroke-width:1;stroke-linecap:round;stroke-linejoin:round;stroke-dasharray:none;stroke-opacity:1"
       id="top_baseline"
       sodipodi:nodetypes="cssssc" /><path
       style="display:inline;opacity:1;fill:none;fill-opacity:1;stroke:#404040;stroke-width:1;stroke-linecap:round;stroke-linejoin:round;stroke-dasharray:1, 2;stroke-dashoffset:0;stroke-opacity:1"
       d="m 486.74624,537.9922 c 17.89677,-20.9979 -8.96995,-33.85748 -9.11003,-38.47354 -0.0531,-1.7496 -0.40499,-14.34594 -1.67915,-23.25941 -1.18737,-8.30611 -11.10693,-23.08806 -13.27017,-35.78509 -2.27677,-13.36356 -6.10107,-76.26135 -6.10107,-88.2399"
       id="path18"
       sodipodi:nodetypes="csssc" /><path
       style="display:inline;opacity:1;fill:none;fill-opacity:1;stroke:#404040;stroke-width:1;stroke-linecap:round;stroke-linejoin:round;stroke-dasharray:1, 2;stroke-dashoffset:0;stroke-opacity:1"
       d="m 230.16701,467.5161 c -31.09818,11.64631 -71.58705,17.61321 -82.44077,17.61321 -13.55692,0 -18.35056,5.56021 -18.35056,10.92781 -8.54905,2.29093 -8.54865,26.39552 -0.12194,31.25316"
       id="front_baseline"
       sodipodi:nodetypes="cscc" /><path
       style="display:inline;opacity:1;fill:none;stroke:#404040;stroke-width:1;stroke-linecap:round;stroke-linejoin:round;stroke-dasharray:1, 1.99999;stroke-dashoffset:0;stroke-opacity:1"
       d="m 243.884,461.84111 c 0,29.88216 3.38552,47.9157 3.48543,65.4222"
       id="upper1_baseline"
       sodipodi:nodetypes="cc" /><path
       style="display:inline;opacity:1;fill:none;stroke:#404040;stroke-width:1;stroke-linecap:round;stroke-linejoin:round;stroke-dasharray:1, 1.99999;stroke-dashoffset:0;stroke-opacity:1"
       d="m 157.32021,484.43374 c 0,29.88216 1.26792,19.27084 1.36784,36.77733"
       id="upperToe_baseline"
       sodipodi:nodetypes="cc" /><path
       style="display:inline;opacity:1;fill:none;stroke:#404040;stroke-width:1;stroke-linecap:round;stroke-linejoin:round;stroke-dasharray:1, 1.99999;stroke-dashoffset:0;stroke-opacity:1"
       d="m 395.87172,351.22636 c -8.03012,30.42271 -0.43287,117.87936 -4.34975,147.91103"
       id="path17"
       sodipodi:nodetypes="cc" /><path
       style="display:inline;opacity:1;fill:none;stroke:#404040;stroke-width:1;stroke-linecap:round;stroke-linejoin:round;stroke-dasharray:1, 1.99999;stroke-dashoffset:0;stroke-opacity:1"
       d="m 227.27693,527.80496 c 0,9.45568 0.0498,11.60337 0.0498,22.64006"
       id="sole1_baseline"
       sodipodi:nodetypes="cc" /><path
       style="display:inline;opacity:1;fill:none;stroke:#404040;stroke-width:1;stroke-linecap:round;stroke-linejoin:round;stroke-dasharray:1, 1.99999;stroke-dashoffset:0;stroke-opacity:1"
       d="m 402.55596,500.36281 c 0,9.45569 5.22546,39.77835 5.22546,50.64192"
       id="path16"
       sodipodi:nodetypes="cc" /><text
       xml:space="preserve"
       style="font-size:12.2483px;display:inline;fill:#3a3a3a;fill-opacity:1;stroke-width:9.77083;stroke-linecap:round;stroke-linejoin:round;stroke-dasharray:none"
       x="117.09206"
       y="468.65433"
       id="text1"><tspan
         sodipodi:role="line"
         id="tspan1"
         style="font-size:12.2483px;fill:#3a3a3a;fill-opacity:1;stroke-width:9.77083;stroke-dasharray:none"
         x="117.09206"
         y="468.65433">Right</tspan></text><path
       style="display:inline;fill:none;stroke:#404040;stroke-width:1;stroke-linecap:round;stroke-linejoin:round;stroke-dasharray:none;stroke-opacity:1"
       d="m 486.74624,537.9922 c -18.01282,18.0196 -170.44896,14.68092 -268.68428,12.22288 -38.34248,-2.47577 -71.60197,-12.98615 -88.80822,-22.9048"
       id="path5"
       sodipodi:nodetypes="ccc" /><path
       style="display:inline;opacity:1;fill:none;fill-opacity:1;stroke:#404040;stroke-width:1;stroke-linecap:round;stroke-linejoin:round;stroke-dasharray:none;stroke-opacity:1"
       d="m 486.56501,97.909036 c 0,38.287094 -34.67904,52.804774 -65.21497,52.804774 -30.4554,0 -71.2995,-17.9823 -97.82188,-17.9823 -28.81474,0 -59.08294,32.85452 -94.92015,33.75219 -41.1029,1.02958 -114.36358,-10.86509 -114.36358,-53.07583 0,-51.02485 81.9741,-90.04168 122.02711,-90.326169 58.41065,-0.414875 74.38466,23.280171 109.48239,23.280171 30.95802,0 58.13487,-9.501986 86.78979,-4.910852 24.59015,3.939866 54.02129,13.655471 54.02129,56.458016 z"
       id="path11"
       sodipodi:nodetypes="sssssssss" /><path
       style="display:inline;fill:none;fill-opacity:1;stroke:#404040;stroke-width:1;stroke-linecap:round;stroke-linejoin:round;stroke-dasharray:none;stroke-opacity:1"
       d="m 476.41884,97.543436 c 0.0973,24.254184 -17.38172,45.347454 -51.57013,46.215404 -34.18847,0.86794 -81.53333,-6.08815 -102.30359,-6.08815 -29.39011,0 -65.23796,21.04531 -108.70387,20.4786 -37.25487,-0.48573 -95.23285,-0.78555 -95.23285,-46.93395 0,-51.22555 73.49224,-75.425862 122.26362,-75.425862 46.57129,0 82.96034,9.284543 106.14858,10.291846 23.18826,1.007313 50.61786,-1.962923 75.77702,2.947239 25.43789,4.964548 53.47829,12.875549 53.62122,48.514873 z"
       id="path12"
       sodipodi:nodetypes="sssssssss" /><path
       style="display:inline;fill:none;fill-opacity:1;stroke:#404040;stroke-width:1;stroke-linecap:round;stroke-linejoin:round;stroke-dasharray:none;stroke-opacity:1"
       d="m 450.93319,94.295546 c 0,16.670704 -21.42362,35.144174 -50.2296,35.144174 -13.57626,0 -55.67131,-9.83268 -97.11501,-13.66108 -46.49111,-4.29465 -92.16256,-2.80378 -95.83571,-6.2147 -7.0938,-6.58735 -6.12622,-18.627599 -0.50194,-26.517664 5.62426,-7.89007 165.35224,-27.825166 197.86301,-27.825166 32.51074,0 45.81926,25.177658 45.81926,39.074436 z"
       id="top_profile"
       sodipodi:nodetypes="sssszzss" /><text
       xml:space="preserve"
       style="font-size:12.2483px;display:inline;fill:#3a3a3a;fill-opacity:1;stroke-width:13.5939;stroke-linecap:round;stroke-linejoin:round;stroke-dasharray:none"
       x="104.23677"
       y="64.096985"
       id="text1-5"><tspan
         sodipodi:role="line"
         id="tspan1-3"
         style="font-size:12.2483px;fill:#3a3a3a;fill-opacity:1;stroke-width:13.5939;stroke-dasharray:none"
         x="104.23677"
         y="64.096985">Top</tspan></text><path
       style="display:inline;opacity:1;fill:none;stroke:#404040;stroke-width:1;stroke-linecap:round;stroke-linejoin:round;stroke-dasharray:none;stroke-opacity:1"
       d="m 501.72686,620.21 c 3.45646,12.02707 12.01763,51.03598 7.0471,81.93159"
       id="right__upper2_profile"
       sodipodi:nodetypes="cc" /><path
       style="opacity:1;fill:none;stroke:#404040;stroke-width:1;stroke-linecap:round;stroke-linejoin:round;stroke-dasharray:none;stroke-opacity:1"
       d="m 397.92082,618.36301 c -2.55077,11.75012 -11.90926,50.68983 -6.13345,83.46093"
       id="path19"
       sodipodi:nodetypes="cc" /><path
       style="opacity:1;fill:none;stroke:#404040;stroke-width:1;stroke-linecap:round;stroke-linejoin:round;stroke-dasharray:none;stroke-opacity:1"
       d="m 509.27792,705.69651 c 8.93469,5.32036 1.03168,13.83876 1.03168,18.78879 0,5.10857 8.70091,12.93069 2.86629,18.76751"
       id="right__sole2_profile"
       sodipodi:nodetypes="csc" /><path
       style="opacity:1;fill:none;stroke:#404040;stroke-width:1;stroke-linecap:round;stroke-linejoin:round;stroke-dasharray:none;stroke-opacity:1"
       d="m 389.69373,704.85502 c -10.25598,5.92353 -1.91098,13.89531 -1.95195,19.0293 -0.0392,4.91849 -9.61786,13.89254 -1.77934,18.41981"
       id="left__sole2_profile"
       sodipodi:nodetypes="csc" /><path
       style="opacity:1;fill:none;stroke:#404040;stroke-width:1;stroke-linecap:round;stroke-linejoin:round;stroke-dasharray:1, 3.99998;stroke-dashoffset:0;stroke-opacity:1"
       d="m 385.96243,742.30413 c 8.43553,4.85834 118.05481,6.22347 127.21346,0.94867"
       id="path8"
       sodipodi:nodetypes="cc" /><path
       style="opacity:1;fill:none;stroke:#404040;stroke-width:1;stroke-linecap:round;stroke-linejoin:round;stroke-dasharray:1, 3.99998;stroke-dashoffset:0;stroke-opacity:1"
       d="m 389.69373,704.85502 c 40.39332,0 86.2609,0.84151 119.58419,0.84151"
       id="path9"
       sodipodi:nodetypes="cc" /><path
       style="fill:none;stroke:#404040;stroke-width:1;stroke-linecap:round;stroke-linejoin:round;stroke-dasharray:1, 3.99998;stroke-dashoffset:0;stroke-opacity:1"
       d="m 397.92082,618.36302 c 3.88014,-14.48631 28.25767,-3.0985 50.33584,-3.0985 21.20976,0 50.23795,-7.12208 53.47022,4.94548"
       id="path6"
       sodipodi:nodetypes="csc" /><text
       xml:space="preserve"
       style="font-size:12.2483px;display:inline;fill:#3a3a3a;fill-opacity:1;stroke-width:9.77083;stroke-linecap:round;stroke-linejoin:round;stroke-dasharray:none"
       x="356.92719"
       y="681.34613"
       id="text1-9"><tspan
         sodipodi:role="line"
         style="font-size:12.2483px;fill:#3a3a3a;fill-opacity:1;stroke-width:9.77083;stroke-dasharray:none"
         x="356.92719"
         y="681.34613"
         id="tspan2">Back</tspan></text><path
       style="opacity:1;fill:none;stroke:#404040;stroke-width:1;stroke-linecap:round;stroke-linejoin:round;stroke-dasharray:none;stroke-opacity:1"
       d="m 151.5891,646.44331 c -33.91434,0 -64.030584,31.89157 -59.347778,49.3746"
       id="path21"
       sodipodi:nodetypes="cc" /><path
       style="opacity:1;fill:none;stroke:#404040;stroke-width:1;stroke-linecap:round;stroke-linejoin:round;stroke-dasharray:none;stroke-opacity:1"
       d="m 211.31902,700.07978 c 5.25275,5.37532 8.2271,16.79756 3.89798,26.14629"
       id="right__sole1_profile"
       sodipodi:nodetypes="cc" /><path
       style="opacity:1;fill:none;stroke:#404040;stroke-width:1;stroke-linecap:round;stroke-linejoin:round;stroke-dasharray:none;stroke-opacity:1"
       d="m 91.734837,699.23829 c -4.273498,4.28726 -6.316103,19.32229 -3.731291,26.03909"
       id="left__sole1_profile"
       sodipodi:nodetypes="cc" /><path
       style="opacity:1;fill:none;stroke:#404040;stroke-width:1;stroke-linecap:round;stroke-linejoin:round;stroke-dasharray:1, 3.99998;stroke-dashoffset:0;stroke-opacity:1"
       d="m 88.003546,725.27738 c 8.435514,4.85834 118.054794,6.22347 127.213454,0.94867"
       id="bottom"
       sodipodi:nodetypes="cc" /><path
       style="opacity:1;fill:none;stroke:#404040;stroke-width:1;stroke-linecap:round;stroke-linejoin:round;stroke-dasharray:1, 3.99998;stroke-dashoffset:0;stroke-opacity:1"
       d="m 91.734837,699.23829 c 44.961423,12.01787 37.516373,-4.91976 61.981663,-4.91976 22.3736,0 13.75368,17.48173 57.60252,5.76125"
       id="path3"
       sodipodi:nodetypes="csc" /><path
       style="display:inline;fill:none;stroke:#404040;stroke-width:1;stroke-linecap:round;stroke-linejoin:round;stroke-dasharray:none;stroke-opacity:1"
       d="m 154.64921,673.9106 c 24.86969,0 40.66806,17.38353 37.29909,29.96139"
       id="path24"
       sodipodi:nodetypes="cc" /><path
       style="display:inline;fill:none;stroke:#404040;stroke-width:1;stroke-linecap:round;stroke-linejoin:round;stroke-dasharray:none;stroke-opacity:1"
       d="m 151.69812,674.01739 c -26.12232,0 -38.60386,15.84916 -34.94251,29.51861"
       id="path"
       sodipodi:nodetypes="cc" /><text
       xml:space="preserve"
       style="font-size:12.2483px;display:inline;fill:#3a3a3a;fill-opacity:1;stroke-width:16.4561;stroke-linecap:round;stroke-linejoin:round;stroke-dasharray:none"
       x="55.011776"
       y="698.15564"
       id="text1-9-9"><tspan
         sodipodi:role="line"
         style="font-size:12.2483px;fill:#3a3a3a;fill-opacity:1;stroke-width:16.4561;stroke-dasharray:none"
         x="55.011776"
         y="698.15564"
         id="tspan3">Front</tspan></text><path
       style="display:inline;opacity:1;fill:none;stroke:#404040;stroke-width:1;stroke-linecap:round;stroke-linejoin:round;stroke-dasharray:none;stroke-opacity:1"
       d="m 154.12859,646.57453 c 35.98448,0 61.91726,30.78081 57.16133,49.43513"
       id="path20"
       sodipodi:nodetypes="cc" /><text
       xml:space="preserve"
       style="font-size:9.56893px;display:inline;fill:#323232;fill-opacity:1;stroke-width:10;stroke-linecap:round;stroke-linejoin:round"
       x="417.2114"
       y="360.63162"
       id="text15"><tspan
         sodipodi:role="line"
         id="tspan15"
         style="font-size:9.56893px;fill:#323232;fill-opacity:1;stroke-width:10"
         x="417.2114"
         y="360.63162">rim</tspan></text><text
       xml:space="preserve"
       style="font-size:8px;display:inline;fill:#323232;fill-opacity:1;stroke-width:10;stroke-linecap:round;stroke-linejoin:round"
       x="349.39359"
       y="528.6239"
       id="text15-2"><tspan
         sodipodi:role="line"
         style="font-size:8px;fill:#323232;fill-opacity:1;stroke-width:10"
         x="349.39359"
         y="528.6239"
         id="tspan7">insole</tspan></text><text
       xml:space="preserve"
       style="font-size:6.88963px;display:inline;fill:#323232;fill-opacity:1;stroke-width:10;stroke-linecap:round;stroke-linejoin:round"
       x="303.32376"
       y="513.01917"
       id="text15-2-5"><tspan
         sodipodi:role="line"
         id="tspan15-7-3"
         style="font-size:6.88963px;fill:#323232;fill-opacity:1;stroke-width:10"
         x="303.32376"
         y="513.01917">sole</tspan></text><text
       xml:space="preserve"
       style="font-size:9.56893px;display:inline;fill:#323232;fill-opacity:1;stroke-width:10;stroke-linecap:round;stroke-linejoin:round"
       x="369.06927"
       y="505.52219"
       id="text15-6"><tspan
         sodipodi:role="line"
         id="tspan15-1"
         style="font-size:9.56893px;fill:#323232;fill-opacity:1;stroke-width:10"
         x="369.06927"
         y="505.52219">B</tspan></text><text
       xml:space="preserve"
       style="font-size:9.56893px;display:inline;fill:#323232;fill-opacity:1;stroke-width:10;stroke-linecap:round;stroke-linejoin:round"
       x="246.91748"
       y="508.26578"
       id="text15-6-29"><tspan
         sodipodi:role="line"
         id="tspan15-1-3"
         style="font-size:9.56893px;fill:#323232;fill-opacity:1;stroke-width:10"
         x="246.91748"
         y="508.26578">D</tspan></text><text
       xml:space="preserve"
       style="font-size:9.56893px;display:inline;fill:#323232;fill-opacity:1;stroke-width:10;stroke-linecap:round;stroke-linejoin:round"
       x="122.97583"
       y="649.85101"
       id="text15-6-29-7"><tspan
         sodipodi:role="line"
         id="tspan15-1-3-8"
         style="font-size:9.56893px;fill:#323232;fill-opacity:1;stroke-width:10"
         x="122.97583"
         y="649.85101">D</tspan></text><text
       xml:space="preserve"
       style="font-size:9.56893px;display:inline;fill:#323232;fill-opacity:1;stroke-width:10;stroke-linecap:round;stroke-linejoin:round"
       x="172.01918"
       y="647.67206"
       id="text15-6-29-7-5"><tspan
         sodipodi:role="line"
         id="tspan15-1-3-8-3"
         style="font-size:9.56893px;fill:#323232;fill-opacity:1;stroke-width:10"
         x="172.01918"
         y="647.67206">D</tspan></text><text
       xml:space="preserve"
       style="font-size:9.56893px;display:inline;fill:#323232;fill-opacity:1;stroke-width:10;stroke-linecap:round;stroke-linejoin:round"
       x="132.82208"
       y="684.65991"
       id="text15-6-29-7-3"><tspan
         sodipodi:role="line"
         id="tspan15-1-3-8-6"
         style="font-size:9.56893px;fill:#323232;fill-opacity:1;stroke-width:10"
         x="132.82208"
         y="684.65991">E</tspan></text><text
       xml:space="preserve"
       style="font-size:9.56893px;display:inline;fill:#323232;fill-opacity:1;stroke-width:10;stroke-linecap:round;stroke-linejoin:round"
       x="166.28638"
       y="684.75726"
       id="text15-6-29-7-3-9"><tspan
         sodipodi:role="line"
         id="tspan15-1-3-8-6-1"
         style="font-size:9.56893px;fill:#323232;fill-opacity:1;stroke-width:10"
         x="166.28638"
         y="684.75726">E</tspan></text><text
       xml:space="preserve"
       style="font-size:9.56893px;display:inline;fill:#323232;fill-opacity:1;stroke-width:10;stroke-linecap:round;stroke-linejoin:round"
       x="157.18326"
       y="496.33612"
       id="text15-6-29-7-3-3"><tspan
         sodipodi:role="line"
         id="tspan15-1-3-8-6-2"
         style="font-size:9.56893px;fill:#323232;fill-opacity:1;stroke-width:10"
         x="157.18326"
         y="496.33612">E</tspan></text><text
       xml:space="preserve"
       style="font-size:9.56893px;display:inline;fill:#323232;fill-opacity:1;stroke-width:10;stroke-linecap:round;stroke-linejoin:round"
       x="228.10851"
       y="544.31537"
       id="text15-6-29-7-3-3-5"><tspan
         sodipodi:role="line"
         id="tspan15-1-3-8-6-2-5"
         style="font-size:9.56893px;fill:#323232;fill-opacity:1;stroke-width:10"
         x="228.10851"
         y="544.31537">F</tspan></text><text
       xml:space="preserve"
       style="font-size:9.56893px;display:inline;fill:#323232;fill-opacity:1;stroke-width:10;stroke-linecap:round;stroke-linejoin:round"
       x="210.54622"
       y="718.12286"
       id="text15-6-29-7-3-3-5-5"><tspan
         sodipodi:role="line"
         id="tspan15-1-3-8-6-2-5-6"
         style="font-size:9.56893px;fill:#323232;fill-opacity:1;stroke-width:10"
         x="210.54622"
         y="718.12286">F</tspan></text><text
       xml:space="preserve"
       style="font-size:9.56893px;display:inline;fill:#323232;fill-opacity:1;stroke-width:10;stroke-linecap:round;stroke-linejoin:round"
       x="88.571251"
       y="718.31671"
       id="text15-6-29-7-3-3-5-5-4"><tspan
         sodipodi:role="line"
         id="tspan15-1-3-8-6-2-5-6-5"
         style="font-size:9.56893px;fill:#323232;fill-opacity:1;stroke-width:10"
         x="88.571251"
         y="718.31671">F</tspan></text><text
       xml:space="preserve"
       style="font-size:9.56893px;display:inline;fill:#323232;fill-opacity:1;stroke-width:10;stroke-linecap:round;stroke-linejoin:round"
       x="325.10141"
       y="550.74731"
       id="text15-6-5"><tspan
         sodipodi:role="line"
         id="tspan15-1-9"
         style="font-size:9.56893px;fill:#323232;fill-opacity:1;stroke-width:10"
         x="325.10141"
         y="550.74731">C</tspan></text><text
       xml:space="preserve"
       style="font-size:10px;display:inline;fill:#323232;fill-opacity:1;stroke-width:10;stroke-linecap:round;stroke-linejoin:round"
       x="382.16208"
       y="439.47147"
       id="text15-6-5-7"><tspan
         sodipodi:role="line"
         id="tspan15-1-9-4"
         style="font-size:10px;fill:#323232;fill-opacity:1;stroke-width:10"
         x="382.16208"
         y="439.47147">G</tspan></text><text
       xml:space="preserve"
       style="font-size:9.56893px;display:inline;fill:#323232;fill-opacity:1;stroke-width:10;stroke-linecap:round;stroke-linejoin:round"
       x="495.15811"
       y="659.76569"
       id="text15-6-5-7-2"><tspan
         sodipodi:role="line"
         id="tspan15-1-9-4-6"
         style="font-size:9.56893px;fill:#323232;fill-opacity:1;stroke-width:10"
         x="495.15811"
         y="659.76569">G</tspan></text><text
       xml:space="preserve"
       style="font-size:9.56893px;display:inline;fill:#323232;fill-opacity:1;stroke-width:10;stroke-linecap:round;stroke-linejoin:round"
       x="395.29697"
       y="661.84216"
       id="text15-6-5-7-5"><tspan
         sodipodi:role="line"
         id="tspan15-1-9-4-0"
         style="font-size:9.56893px;fill:#323232;fill-opacity:1;stroke-width:10"
         x="395.29697"
         y="661.84216">G</tspan></text><text
       xml:space="preserve"
       style="font-size:9.56893px;display:inline;fill:#323232;fill-opacity:1;stroke-width:10;stroke-linecap:round;stroke-linejoin:round"
       x="407.75684"
       y="535.97675"
       id="text15-6-5-7-7"><tspan
         sodipodi:role="line"
         id="tspan15-1-9-4-8"
         style="font-size:9.56893px;fill:#323232;fill-opacity:1;stroke-width:10"
         x="407.75684"
         y="535.97675">H</tspan></text><text
       xml:space="preserve"
       style="font-size:9.56893px;display:inline;fill:#323232;fill-opacity:1;stroke-width:10;stroke-linecap:round;stroke-linejoin:round"
       x="502.01688"
       y="727.46259"
       id="text15-6-5-7-7-4"><tspan
         sodipodi:role="line"
         id="tspan15-1-9-4-8-3"
         style="font-size:9.56893px;fill:#323232;fill-opacity:1;stroke-width:10"
         x="502.01688"
         y="727.46259">H</tspan></text><text
       xml:space="preserve"
       style="font-size:9.56893px;display:inline;fill:#323232;fill-opacity:1;stroke-width:10;stroke-linecap:round;stroke-linejoin:round"
       x="388.28351"
       y="727.59589"
       id="text15-6-5-7-7-4-2"><tspan
         sodipodi:role="line"
         id="tspan15-1-9-4-8-3-0"
         style="font-size:9.56893px;fill:#323232;fill-opacity:1;stroke-width:10"
         x="388.28351"
         y="727.59589">H</tspan></text><text
       xml:space="preserve"
       style="font-size:9.56893px;display:inline;fill:#323232;fill-opacity:1;stroke-width:10;stroke-linecap:round;stroke-linejoin:round"
       x="213.0426"
       y="175.08154"
       id="text15-6-5-9"><tspan
         sodipodi:role="line"
         id="tspan15-1-9-7"
         style="font-size:9.56893px;fill:#323232;fill-opacity:1;stroke-width:10"
         x="213.0426"
         y="175.08154">C</tspan></text><text
       xml:space="preserve"
       style="font-size:9px;display:inline;fill:#323232;fill-opacity:1;stroke-width:10;stroke-linecap:round;stroke-linejoin:round"
       x="191.96327"
       y="153.58733"
       id="text15-6-2"><tspan
         sodipodi:role="line"
         id="tspan15-1-0"
         style="fill:#323232;fill-opacity:1;stroke-width:10;font-size:9px"
         x="191.96327"
         y="153.58733">B (insole)</tspan></text><text
       xml:space="preserve"
       style="font-size:9.56893px;display:inline;fill:#323232;fill-opacity:1;stroke-width:10;stroke-linecap:round;stroke-linejoin:round"
       x="411.29138"
       y="121.83282"
       id="text15-3"><tspan
         sodipodi:role="line"
         id="tspan15-6"
         style="font-size:9.56893px;fill:#323232;fill-opacity:1;stroke-width:10"
         x="411.29138"
         y="121.83282">rim</tspan></text><text
       xml:space="preserve"
       style="font-size:6.12413px;display:inline;fill:#323232;fill-opacity:1;stroke-width:10;stroke-linecap:round;stroke-linejoin:round"
       x="341.27988"
       y="351.05966"
       id="text15-3-5"><tspan
         sodipodi:role="line"
         id="tspan15-6-3"
         style="font-size:6.12413px;fill:#323232;fill-opacity:1;stroke-width:10"
         x="341.27988"
         y="351.05966">tf</tspan></text><text
       xml:space="preserve"
       style="font-size:6.12413px;display:inline;fill:#323232;fill-opacity:1;stroke-width:10;stroke-linecap:round;stroke-linejoin:round"
       x="321.96686"
       y="432.48212"
       id="text15-3-5-9"><tspan
         sodipodi:role="line"
         style="font-size:6.12413px;fill:#323232;fill-opacity:1;stroke-width:10"
         x="321.96686"
         y="432.48212"
         id="tspan5">tb</tspan></text><text
       xml:space="preserve"
       style="font-size:6.12413px;display:inline;fill:#323232;fill-opacity:1;stroke-width:10;stroke-linecap:round;stroke-linejoin:round"
       x="355.50226"
       y="362.53699"
       id="text15-3-5-9-9"><tspan
         sodipodi:role="line"
         style="font-size:6.12413px;fill:#323232;fill-opacity:1;stroke-width:10"
         x="355.50226"
         y="362.53699"
         id="tspan4-3">tt</tspan></text><text
       xml:space="preserve"
       style="font-size:6.12413px;display:inline;fill:#323232;fill-opacity:1;stroke-width:10;stroke-linecap:round;stroke-linejoin:round"
       x="355.47528"
       y="92.935356"
       id="text15-3-5-9-9-2"><tspan
         sodipodi:role="line"
         style="font-size:6.12413px;fill:#323232;fill-opacity:1;stroke-width:10"
         x="355.47528"
         y="92.935356"
         id="tspan4-3-6">tt</tspan></text><path
       style="display:inline;fill:none;stroke:#404040;stroke-width:1;stroke-linecap:round;stroke-linejoin:round;stroke-dasharray:1, 2;stroke-dashoffset:0"
       d="M 233.3287,487.90095 C 319.73503,466.79342 361.77474,389.56212 365.27062,382.71628"
       id="path27"
       sodipodi:nodetypes="cc" /><path
       style="display:inline;fill:none;stroke:#404040;stroke-width:1;stroke-linecap:round;stroke-linejoin:round;stroke-dasharray:none;stroke-dashoffset:0"
       d="m 365.27062,382.71628 c -1.87297,-9.67815 -4.68746,-44.29707 -12.7219,-44.29707"
       id="path28"
       sodipodi:nodetypes="cc" /><path
       style="display:inline;fill:none;stroke:#404040;stroke-width:1;stroke-linecap:round;stroke-linejoin:round;stroke-dasharray:1, 2;stroke-dashoffset:0"
       d="M 221.93182,472.69255 C 327.3016,425.67418 332.08514,374.91784 352.54872,338.41922"
       id="path29"
       sodipodi:nodetypes="cc" /><path
       style="fill:none;stroke:#404040;stroke-width:1;stroke-linecap:round;stroke-linejoin:round;stroke-dasharray:1, 1.99999;stroke-dashoffset:0"
       d="m 357.24176,57.722649 c -4.51875,16.870541 -4.06218,52.109521 0.51256,69.189091"
       id="path30"
       sodipodi:nodetypes="cc" /><path
       style="fill:none;stroke:#404040;stroke-width:1;stroke-linecap:round;stroke-linejoin:round;stroke-dasharray:1, 1.99999;stroke-dashoffset:0"
       d="m 483.51421,506.3555 c -9.81964,0 -11.76354,12.02123 -100.74333,12.02123 -35.97033,0 -88.03869,14.10262 -146.30373,14.10262 -59.56665,0 -94.02968,-4.59547 -111.61795,-31.9166"
       id="path22"
       sodipodi:nodetypes="cssc" /><text
       xml:space="preserve"
       style="font-size:45.1556px;fill:none;stroke:#404040;stroke-width:1;stroke-linecap:round;stroke-linejoin:round;stroke-dasharray:1, 2;stroke-dashoffset:0"
       x="153.56697"
       y="223.01672"
       id="text4"><tspan
         sodipodi:role="line"
         id="tspan4"
         style="stroke-width:1;stroke-dasharray:1, 2;stroke-dashoffset:0"
         x="153.56697"
         y="223.01672" /></text><text
       xml:space="preserve"
       style="font-size:45.1556px;fill:none;stroke:#404040;stroke-width:1;stroke-linecap:round;stroke-linejoin:round;stroke-dasharray:1, 2;stroke-dashoffset:0"
       x="84.523247"
       y="220.03214"
       id="text6"><tspan
         sodipodi:role="line"
         id="tspan6"
         style="stroke-width:1"
         x="84.523247"
         y="220.03214" /></text><path
       style="fill:none;stroke:#404040;stroke-width:1;stroke-linecap:round;stroke-linejoin:round;stroke-dasharray:1, 2;stroke-dashoffset:0"
       d="m 151.01471,484.99938 c 0,38.47492 30.84803,42.05811 89.12201,42.05811 71.0949,0 106.55062,-29.63917 133.10664,-29.63917 13.53978,0 73.85992,8.05983 80.75874,8.13423 15.78572,0.17013 16.03693,-6.35823 23.62436,-6.35823"
       id="path23"
       sodipodi:nodetypes="csssc" /></g></svg>
