<?xml version="1.0" encoding="UTF-8" standalone="no"?>
<!-- Created with Inkscape (http://www.inkscape.org/) -->

<svg
   width="4096mm"
   height="4096mm"
   viewBox="0 0 4096 4096"
   version="1.1"
   id="svg1"
   inkscape:version="1.3-dev (411cb25, 2022-09-21)"
   sodipodi:docname="runner_1.svg"
   xml:space="preserve"
   xmlns:inkscape="http://www.inkscape.org/namespaces/inkscape"
   xmlns:sodipodi="http://sodipodi.sourceforge.net/DTD/sodipodi-0.dtd"
   xmlns="http://www.w3.org/2000/svg"
   xmlns:svg="http://www.w3.org/2000/svg"><sodipodi:namedview
     id="namedview1"
     pagecolor="#ffffff"
     bordercolor="#000000"
     borderopacity="0.25"
     inkscape:showpageshadow="2"
     inkscape:pageopacity="0.0"
     inkscape:pagecheckerboard="0"
     inkscape:deskcolor="#d1d1d1"
     inkscape:document-units="mm"
     showgrid="false"
     inkscape:zoom="0.048718522"
     inkscape:cx="5839.6681"
     inkscape:cy="8620.9512"
     inkscape:window-width="1920"
     inkscape:window-height="1048"
     inkscape:window-x="0"
     inkscape:window-y="32"
     inkscape:window-maximized="1"
     inkscape:current-layer="layer1" /><defs
     id="defs1" /><g
     inkscape:label="Layer 1"
     inkscape:groupmode="layer"
     id="layer1"><path
       style="opacity:1;fill:#cc3333;fill-opacity:1;stroke:#3a3a3a;stroke-width:10;stroke-linecap:round;stroke-linejoin:round;stroke-dasharray:none;stroke-opacity:1"
       d="m 2440.0171,304.94549 c -48.1098,2.501 -404.7821,355.8934 -816.9915,626.4872 -442.0138,290.15891 -1058.10654,318.05771 -1096.67057,318.05771 -126.78327,0 -171.613,51.9938 -171.613,102.1866 -79.95002,21.4225 -79.94627,246.8261 -1.14027,292.2502 160.91144,92.75 473.28411,189.9818 831.86004,213.1329 644.0994,41.5856 2340.582,87.1337 2511.3832,-113.2453 173.4764,-203.5175 -83.8863,-316.6037 -85.1963,-359.7687 -0.4965,-16.3606 -3.7873,-134.1498 -15.7034,-217.5002 -11.1042,-77.6711 -103.871,-215.89811 -124.1015,-334.62881 -21.2924,-124.9634 -49.2328,-370.2409 -57.0569,-400.0234 -40.7031,6.3392 -109.9775,10.5719 -158.1095,59.6212 -52.5798,53.5818 -93.2243,251.6939 -303.9614,251.6939 -171.4787,0 -448.0014,-77.3499 -491.6069,-204.4928 -15.0977,-44.021 22.7257,-114.1603 36.7745,-153.7046 18.0521,-50.8128 -9.7567,-82.5669 -57.8665,-80.0659 z"
       id="side"
       sodipodi:nodetypes="zsscsssssscssssz"
       material="polyester" /><path
       d="m 3414.7175,431.04439 c -40.7031,6.3392 -109.9775,10.5719 -158.1095,59.6212 -52.5798,53.5818 -93.2243,251.6939 -303.9614,251.6939 -171.4787,0 -448.0014,-77.3499 -491.6069,-204.4928 -15.0977,-44.021 22.7257,-114.1603 36.7745,-153.7046 18.0521,-50.8128 -9.7567,-82.5669 -57.8665,-80.0659"
       style="fill:none;stroke:#00d4ff;stroke-width:15;stroke-linecap:round;stroke-linejoin:round;stroke-dasharray:none;stroke-opacity:1"
       id="rim"
       sodipodi:nodetypes="cssssc" /><path
       style="fill:none;stroke:#00d4ff;stroke-width:15;stroke-linecap:round;stroke-linejoin:round;stroke-dasharray:none;stroke-opacity:1"
       d="m 352.2693,1644.9786 c 160.9115,92.75 473.2841,189.9818 831.8601,213.1329 644.0993,41.5856 2340.5819,87.1337 2511.3831,-113.2453"
       id="base" /><path
       style="opacity:1;fill:none;fill-opacity:1;stroke:#00d4ff;stroke-width:15;stroke-linecap:round;stroke-linejoin:round;stroke-dasharray:none;stroke-opacity:1"
       d="m 354.74203,1351.677 c 0,161.8245 36.78438,197.9199 398.25138,269.8336 163.23016,32.4746 619.14899,36.758 892.52009,8.8029 473.1273,-48.3822 783.0661,-263.3158 989.8534,-263.3158 206.7874,0 976.2818,142.4947 976.2818,17.0484"
       id="path2"
       sodipodi:nodetypes="csszc"
       inkscape:label="sole top" /><path
       style="opacity:1;fill:#e5b3b3;fill-opacity:1;stroke:none;stroke-width:15;stroke-linecap:round;stroke-linejoin:round;stroke-dasharray:none;stroke-opacity:1"
       d="m 2139.3892,1883.5375 c -415.4202,-7.3863 -841.8492,-24.1773 -1019.572,-40.1465 -273.37009,-24.5631 -545.37848,-95.3544 -732.8051,-190.7152 -31.70119,-16.1293 -44.1832,-24.758 -52.57821,-36.347 -42.3122,-58.4102 -42.93566,-193.3915 -1.11173,-240.6827 l 12.37583,-13.9936 0.18886,19.201 c 0.3302,33.5707 7.66644,68.3889 19.57888,92.9226 26.80197,55.1986 89.05607,87.9832 235.36661,123.9501 196.91812,48.4076 306.26946,58.9215 613.06966,58.9453 387.9789,0.03 576.6673,-22.7917 834.2043,-100.8962 70.0154,-21.2339 120.6918,-38.8699 279.4525,-97.253 149.3551,-54.9242 206.2696,-71.6678 270.5746,-79.6004 45.2803,-5.5856 96.5753,-1.7259 357.2973,26.8852 270.7042,29.7065 327.6335,34.5738 435.8624,37.2651 124.5079,3.0961 181.8711,-4.4319 213.6569,-28.0391 l 12.0464,-8.947 49.7835,50.9718 c 41.3848,42.3726 52.3097,56.0816 64.7573,81.26 13.1075,26.5129 15.1442,34.3003 16.3401,62.4753 1.1102,26.1501 -0.2537,36.633 -7.2723,55.8913 -18.7936,51.5685 -52.1888,90.0728 -97.9866,112.9778 -114.1664,57.098 -386.488,92.6382 -831.1949,108.4775 -109.7385,3.9084 -554.7613,7.4829 -672.0343,5.3977 z"
       id="path3"
       inkscape:label="mat sole" /></g></svg>
