<?xml version="1.0" encoding="UTF-8" standalone="no"?>
<!-- Created with Inkscape (http://www.inkscape.org/) -->

<svg
   width="600mm"
   height="600mm"
   viewBox="0 0 600 600"
   version="1.1"
   id="svg1"
   inkscape:version="1.3-dev (411cb25, 2022-09-21)"
   sodipodi:docname="runner_4.svg"
   xml:space="preserve"
   xmlns:inkscape="http://www.inkscape.org/namespaces/inkscape"
   xmlns:sodipodi="http://sodipodi.sourceforge.net/DTD/sodipodi-0.dtd"
   xmlns="http://www.w3.org/2000/svg"
   xmlns:svg="http://www.w3.org/2000/svg"><sodipodi:namedview
     id="namedview1"
     pagecolor="#ffffff"
     bordercolor="#000000"
     borderopacity="0.25"
     inkscape:showpageshadow="2"
     inkscape:pageopacity="0.0"
     inkscape:pagecheckerboard="0"
     inkscape:deskcolor="#d1d1d1"
     inkscape:document-units="mm"
     showgrid="false"
     inkscape:zoom="0.43821614"
     inkscape:cx="1114.7467"
     inkscape:cy="1305.2919"
     inkscape:window-width="1920"
     inkscape:window-height="1048"
     inkscape:window-x="0"
     inkscape:window-y="32"
     inkscape:window-maximized="1"
     inkscape:current-layer="layer3" /><defs
     id="defs1" /><g
     inkscape:groupmode="layer"
     id="layer4"
     inkscape:label="style"
     style="display:none"><path
       style="fill:#cc3333;fill-opacity:1;stroke-width:37.7953;stroke-linecap:round;stroke-linejoin:round;stroke-dasharray:none"
       d="m 5246.8565,13897.081 c -109.1295,-19.611 -176.0985,-46.668 -319.5662,-129.113 -187.2872,-107.626 -253.0844,-124.733 -478.7107,-124.465 -221.4796,0.263 -281.5322,15.111 -529.7656,130.988 -209.0159,97.57 -272.6512,112.71 -471.7091,112.231 -161.7006,-0.39 -312.6962,-21.358 -553.732,-76.896 -131.1188,-30.211 -132.9395,-31.228 -141.9507,-79.262 -25.2476,-134.581 79.8144,-400.529 244.1925,-618.135 405.7647,-537.157 1108.7579,-841.74 1688.8142,-731.705 579.6011,109.948 1182.4573,608.815 1339.0322,1108.056 29.7551,94.875 40.3822,298.105 16.3644,312.949 -6.9109,4.271 -109.7798,27.188 -228.5975,50.925 -238.1202,47.572 -452.8212,64.473 -564.3715,44.427 z"
       id="path1"
       transform="matrix(0.26458333,0,0,0.26458333,38.021022,36.784243)" /><path
       style="fill:#ecc5c5;fill-opacity:1;stroke-width:37.7953;stroke-linecap:round;stroke-linejoin:round"
       d="m 1385.51,11400.57 c -343.0123,-19.225 -669.99836,-56.836 -710.03,-81.67 -50.50903,-31.333 -36.45035,-412.906 20.59302,-558.924 35.87276,-91.826 54.27039,-116.353 80.92751,-107.893 111.99157,35.545 428.16827,92.86 578.11577,104.798 224.6929,17.888 365.589,-10.741 618.7124,-125.722 319.0498,-144.927 602.7246,-163.728 816.0991,-54.087 40.4027,20.76 129.6743,66.95 198.3814,102.644 220.3689,114.482 520.4367,123.378 918.5393,27.23 l 160.8399,-38.845 39.6149,64.307 c 92.7616,150.58 125.7618,394.933 73.7257,545.909 -29.6285,85.964 -53.0067,92.411 -445.2836,122.806 -313.5183,24.292 -1913.6611,23.915 -2350.2354,-0.553 z"
       id="path2"
       transform="matrix(0.26458333,0,0,0.26458333,565.97447,879.16639)" /><path
       style="fill:#cc3333;fill-opacity:1;stroke:none;stroke-width:37.7953;stroke-linecap:round;stroke-linejoin:round"
       d="m 9105.6637,13501.032 -654.4845,-5.723 14.0961,-220.363 c 18.6799,-292.021 39.5839,-483.324 125.0104,-1144.036 39.4106,-304.813 79.1278,-675.054 88.2604,-822.759 14.8096,-239.52 22.718,-278.986 73.1487,-365.04 202.5124,-345.561 1031.4144,-654.763 1571.8542,-586.342 373.365,47.269 764.01,244.811 1019.673,515.629 156.374,165.644 164.533,189.949 191.644,570.888 13.257,186.274 46.907,528.033 74.778,759.465 54.992,456.635 101.126,903.249 119.266,1154.592 l 11.481,159.077 -990.122,-4.833 c -544.566,-2.658 -1284.6389,-7.408 -1644.6053,-10.555 z"
       id="path7"
       transform="matrix(0.26458333,0,0,0.26458333,85.278801,128.52045)" /><path
       style="fill:#ecc5c5;fill-opacity:1;stroke:none;stroke-width:37.7953;stroke-linecap:round;stroke-linejoin:round"
       d="m 9370.1527,14643.648 c -225.7868,-8.733 -516.7439,-26.113 -646.5713,-38.623 -469.6271,-45.253 -515.8076,-87.045 -390.0116,-352.955 72.4308,-153.106 75.8465,-215.7 20.5422,-376.444 -53.297,-154.911 -51.9447,-178.903 14.537,-257.912 l 55.5892,-66.064 1663.4698,14.902 c 1648.718,14.77 1663.879,15.283 1709.653,57.804 57.965,53.846 59.383,134.637 5.131,292.322 -53.569,155.701 -52.129,181.778 18.253,330.551 121.081,255.939 100.271,323.202 -110.62,357.539 -333.956,54.374 -1456.915,73.033 -2339.9723,38.88 z"
       id="path10"
       transform="matrix(0.26458333,0,0,0.26458333,85.278801,128.52045)" /><path
       style="display:inline;fill:#cc3333;fill-opacity:1;stroke-width:9.77086;stroke-linecap:round;stroke-linejoin:round"
       d="m 1608.9597,2650.4658 c -153.1764,-3.934 -237.5935,-13.473 -302.8865,-34.2254 -13.3715,-4.2498 -27.047,-8.3475 -30.3899,-9.1055 -3.3428,-0.7582 -16.5625,-6.4288 -29.3769,-12.6019 -12.8144,-6.1727 -27.3368,-13.1401 -32.272,-15.483 -4.9352,-2.3427 -10.4054,-5.7176 -12.156,-7.4994 -1.7506,-1.7818 -12.0398,-9.3522 -22.8648,-16.8227 -23.5773,-16.2715 -43.3769,-37.2708 -60.8369,-64.5234 -35.2911,-55.0843 -36.4709,-56.64 -47.1716,-62.2025 -9.5913,-4.9859 -10.1082,-5.6571 -8.9004,-11.5538 3.5601,-17.3806 19.9026,-34.566 42.5688,-44.7644 20.2563,-9.1141 39.6702,-12.5317 82.879,-14.5899 195.6891,-9.3212 413.1178,-52.9875 590.5778,-118.6058 192.6969,-71.2525 312.0083,-149.4117 632.1109,-414.0875 173.5237,-143.4775 225.8318,-181.1148 263.3706,-189.5028 17.8269,-3.9835 18.1321,-2.7515 6.8079,27.4844 -35.0047,93.4626 -46.1081,142.8435 -37.2978,165.8773 15.5771,40.7266 73.9025,77.9038 161.6877,103.0611 91.167,26.1265 227.8055,41.6143 287.1791,32.5513 48.5211,-7.4063 81.1933,-24.8165 116.4948,-62.0775 18.9937,-20.0479 31.9371,-38.9482 57.9744,-84.6578 33.3679,-58.578 54.8421,-73.9982 118.2496,-84.9141 15.15,-2.6081 22.6675,-3.153 23.5619,-1.708 0.7226,1.1671 1.8987,6.3419 2.6143,11.4995 0.7152,5.1575 8.124,59.9 16.4641,121.6501 27.4507,203.2511 28.133,206.0141 77.9157,315.5776 24.2716,53.4181 34.9224,79.9003 39.2091,97.4892 5.4171,22.2255 13.4613,115.1253 13.4859,155.7397 v 15.5342 l -11.5434,3.3508 c -6.349,1.8429 -17.0038,6.1028 -23.6769,9.4662 -6.6731,3.3635 -14.0144,6.3353 -16.314,6.6038 -6.3881,0.7458 -35.5834,13.3718 -35.5834,15.3885 0,5.2475 -50.3585,12.767 -72.936,10.8903 -6.1285,-0.5092 -22.9949,-1.8626 -37.4808,-3.0074 -38.0184,-3.0044 -126.59,-12.4369 -246.1585,-26.2145 -282.1473,-32.5122 -307.2092,-34.0314 -366.1387,-22.1947 -46.0724,9.2541 -88.4817,23.2074 -233.5469,76.8393 -187.3061,69.2488 -344.6998,109.2458 -452.9954,115.1153 -15.7022,0.851 -29.8335,2.373 -31.403,3.3821 -1.5695,1.0091 -15.7201,1.847 -31.4459,1.8621 -17.9729,0.019 -29.6362,0.8661 -31.4029,2.2852 -1.7979,1.4443 -13.1363,2.1913 -31.4639,2.0734 -19.9644,-0.1282 -29.5653,0.5717 -31.6611,2.3084 -2.0518,1.7003 -10.0096,2.3604 -25.0356,2.0767 -12.1154,-0.2287 -46.1879,0.6182 -75.7168,1.8821 -58.911,2.5216 -106.6912,2.6085 -194.4956,0.3534 z"
       id="polyester_material"
       transform="matrix(1.0226653,0,0,1.0242384,-324.07447,-385.45638)" /><path
       style="display:inline;fill:#ecc5c5;fill-opacity:1;stroke:none;stroke-width:0;stroke-linecap:round;stroke-linejoin:round;stroke-dasharray:none;stroke-opacity:1"
       d="m 2361.5111,2839.1375 c -333.6805,-7.5551 -599.9046,-18.7519 -726.0161,-30.5343 -206.7253,-19.3145 -427.4709,-78.0212 -560.3694,-149.0287 -22.322,-11.9268 -29.7792,-17.7671 -37.8616,-29.6516 -35.8522,-52.7183 -29.0165,-170.5495 11.0803,-190.9987 5.3587,-2.7329 10.6659,-3.2991 15.1431,-1.6154 7.2823,2.7385 10.3071,6.7649 43.9633,58.5198 40.0039,61.5162 90.9348,98.1142 175.7783,126.3113 91.6028,30.4434 195.6437,40.0235 434.3173,39.9917 238.0626,-0.031 370.2281,-10.8909 509.1266,-41.8314 93.0638,-20.7304 169.9583,-44.8988 332.2318,-104.423 178.3581,-65.424 214.8122,-73.522 300.0388,-66.6523 42.2123,3.4026 82.6077,7.7708 341.1119,36.8867 233.9335,26.3484 250.284,25.7255 326.5464,-12.4411 13.1275,-6.5695 26.3312,-11.7724 29.3416,-11.5617 7.5904,0.5311 87.3611,84.2316 97.2184,102.0078 22.9357,41.3614 23.846,75.7495 3.1083,117.4036 -17.59,35.3314 -37.9402,57.1296 -66.1022,70.8056 -86.8457,42.174 -277.05,68.039 -607.8562,82.6594 -69.0282,3.0509 -532.5268,6.151 -620.8006,4.1523 z"
       id="urethane_material"
       transform="matrix(1.0226653,0,0,1.0242384,-324.07447,-385.45638)" /><path
       style="fill:none;stroke-width:37.7952;stroke-linecap:round;stroke-linejoin:round"
       d="m 3091.5089,1752.7347 c 0,-30.0008 349.1696,-351.4138 524.7023,-482.9921 584.9822,-438.49909 1360.5783,-776.4089 2052.5676,-894.25769 170.0177,-28.95475 618.1977,-32.28126 869.835,-6.45615 341.2508,35.02199 689.7114,111.99234 1015.9889,224.41849 231.8969,79.90527 615.0016,225.61727 594.6825,226.18457 -8.201,0.22903 -106.1713,-12.39544 -217.7119,-28.05425 C 7111.7616,676.487 6312.0753,625.85434 5841.9358,659.27083 4777.9452,734.8969 3780.0624,1106.1353 3235.3069,1629.0048 c -79.0889,75.9114 -143.798,131.5899 -143.798,123.7299 z"
       id="path4"
       transform="scale(0.26458333)" /><path
       style="fill:#ecc5c5;fill-opacity:1;stroke-width:37.7953;stroke-linecap:round;stroke-linejoin:round"
       d="m 5372.6999,4287.975 c -165.8801,-7.1249 -475.2909,-37.451 -661.9659,-64.8806 -1033.0577,-151.7955 -1745.9255,-500.3373 -1983.338,-969.7117 -76.6628,-151.5654 -105.6407,-292.7259 -97.4418,-474.6689 23.8294,-528.8003 368.3649,-1054.6357 996.265,-1520.5145 590.1424,-437.86394 1365.4246,-772.93081 2049.2403,-885.65495 119.7921,-19.74722 176.7635,-22.81346 420.7845,-22.64685 305.3606,0.20849 501.8304,15.98043 769.3555,61.76134 315.5258,53.99512 552.9848,123.68493 1026.676,301.31034 668.0157,250.49349 832.4803,285.49862 1288.0111,274.14407 257.3171,-6.41389 476.0332,-26.23541 872.3584,-79.05895 466.963,-62.23848 588.975,-73.38998 864.171,-78.98228 345.409,-7.01911 528.948,11.40772 839.493,84.28297 800.88,187.94171 1195.644,674.79951 1195.644,1474.57541 0,408.8999 -122.431,717.9332 -386.226,974.8915 -145.221,141.4578 -308.328,243.6816 -527.185,330.4027 -312.653,123.8876 -712.4,180.3688 -1067.355,150.8088 -305.51,-25.442 -550.323,-75.0633 -1267.4855,-256.9067 -985.8413,-249.9695 -1250.8479,-280.4632 -1612.3337,-185.5279 -214.6108,56.3622 -344.8412,116.2024 -1103.0969,506.8666 -467.2185,240.7178 -769.9988,345.0012 -1092.1561,376.1598 -94.5143,9.1412 -350.4468,10.7792 -523.4149,3.3498 z"
       id="path13"
       transform="scale(0.26458333)" /><path
       style="display:inline;fill:#cc3333;fill-opacity:1;stroke-width:37.7953;stroke-linecap:round;stroke-linejoin:round"
       d="m 4839.022,4048.3529 c -948.3479,-38.2177 -1515.7021,-208.277 -1828.8898,-548.1932 -168.9569,-183.376 -247.2969,-388.962 -256.8837,-674.134 -8.5085,-253.0949 36.2826,-459.6067 147.4489,-679.8199 362.8426,-718.7683 1392.906,-1255.73391 2723.4469,-1419.71574 122.0861,-15.04644 228.0762,-18.31574 590.1246,-18.20259 650.0978,0.20317 945.326,25.99521 1996.1607,174.39069 747.655,105.58143 652.632,99.26487 1621.5599,107.79162 994.9535,8.7558 1038.4345,11.66622 1465.1715,98.07272 515.824,104.4452 840.076,246.0716 1054.88,460.7487 187.78,187.6692 283.462,406.4322 313.568,716.9304 35.341,364.4951 -76.95,709.0238 -312.368,958.4001 -152.278,161.3059 -318.595,264.9939 -548.177,341.754 -200.496,67.0351 -322.976,84.0714 -645.476,89.783 -415.599,7.3604 -746.488,-11.0028 -1712.4624,-95.0358 -739.3729,-64.3203 -830.0994,-69.6765 -1080.7693,-63.8044 -328.1516,7.687 -480.8872,38.5957 -1177.0989,238.2064 -729.0806,209.0346 -1070.0859,281.4791 -1472.2315,312.7667 -151.0629,11.753 -587.1263,11.7834 -878.0039,0.062 z"
       id="path14"
       transform="scale(0.26458333)" /><path
       style="fill:#631a1a;fill-opacity:1;stroke-width:37.7953;stroke-linecap:round;stroke-linejoin:round"
       d="m 9731.9249,3391.0851 c -189.2474,-15.5736 -318.2671,-54.9495 -344.1689,-105.038 -26.851,-51.9241 13.3172,-126.0975 162.1943,-299.5033 114.1681,-132.9782 150.6644,-178.9742 196.7944,-248.0185 74.0546,-110.84 125.1747,-230.7471 144.7564,-339.5404 11.7344,-65.1943 11.6407,-182.8209 -0.1898,-238.6156 -21.9048,-103.305 -70.5543,-216.6915 -136.1208,-317.2545 -63.5116,-97.4108 -112.3858,-159.0553 -261.0837,-329.3016 -145.9461,-167.0958 -192.652,-233.5725 -199.3875,-283.7894 -2.4522,-18.2828 -1.1083,-21.3319 14.557,-33.0276 61.3502,-45.8041 222.5555,-69.7598 499.6213,-74.2456 297.1984,-4.8118 584.4484,16.858 872.3584,65.8098 250.886,42.6568 404.304,93.0293 646.571,212.2922 475.923,234.2866 854.769,564.9894 920.989,803.95 21.606,77.9692 9.157,183.0249 -32.328,272.8147 -125.477,271.5775 -529.163,517.8276 -1179.439,719.4615 -354.885,110.0407 -664.124,170.7512 -978.398,192.0816 -71.5134,4.8538 -276.4617,6.0611 -326.7261,1.9247 z"
       id="path15"
       transform="scale(0.26458333)" /></g><g
     inkscape:groupmode="layer"
     id="layer3"
     inkscape:label="shape"
     style="display:inline"><path
       style="display:inline;opacity:1;fill:none;fill-opacity:1;stroke:#404040;stroke-width:1;stroke-linecap:round;stroke-linejoin:round;stroke-dasharray:none;stroke-opacity:1"
       d="m 122.61271,333.42582 c 8.24039,0 3.93334,21.16549 42.58495,28.8559 17.45419,3.47284 66.20551,3.93091 95.43706,0.94141 50.59142,-5.174 83.73312,-28.15892 105.84487,-28.15892 12.33229,0 60.7607,6.93254 80.83105,8.13538 13.56287,0.81283 17.73659,-6.31223 23.5626,-6.31223"
       id="mid_baseline"
       sodipodi:nodetypes="cssssc" /><path
       d="m 449.82285,235.06446 c -4.35238,0.6779 -11.76729,1.03973 -16.91404,6.28505 -5.62236,5.73002 -9.96847,26.91606 -32.50255,26.91606 -7.34158,0 -17.16438,-0.90456 -26.60388,-2.86206 -14.13644,-2.93151 -10.07392,-36.12293 -25.11492,-36.12293 -16.48592,0 -77.02952,51.44895 -90.45738,59.20444"
       style="display:inline;fill:none;stroke:#404040;stroke-width:1;stroke-linecap:round;stroke-linejoin:round;stroke-dasharray:none;stroke-opacity:1"
       id="top_baseline"
       sodipodi:nodetypes="cssssc" /><path
       style="display:inline;opacity:1;fill:none;fill-opacity:1;stroke:#404040;stroke-width:1;stroke-linecap:round;stroke-linejoin:round;stroke-dasharray:1, 2.00001;stroke-dashoffset:0;stroke-opacity:1"
       d="m 479.98327,375.3609 c 17.89677,-20.9979 -8.96995,-33.85748 -9.11003,-38.47354 -0.0531,-1.7496 -0.40499,-14.34594 -1.67915,-23.25941 -1.18737,-8.30611 -11.10693,-23.08806 -13.27017,-35.78509 -2.27677,-13.36356 -5.26444,-39.59347 -6.10107,-42.7784"
       id="path18"
       sodipodi:nodetypes="csssc" /><path
       style="display:inline;opacity:1;fill:none;fill-opacity:1;stroke:#404040;stroke-width:1;stroke-linecap:round;stroke-linejoin:round;stroke-dasharray:1, 2.00001;stroke-dashoffset:0;stroke-opacity:1"
       d="m 258.23008,288.48502 c -47.2645,31.02949 -113.14319,34.01299 -117.26681,34.01299 -13.55692,0 -18.35056,5.56021 -18.35056,10.92781 -8.54905,2.29093 -8.54865,26.39552 -0.12194,31.25316"
       id="front_baseline"
       sodipodi:nodetypes="cscc" /><path
       style="display:inline;opacity:1;fill:none;stroke:#404040;stroke-width:1;stroke-linecap:round;stroke-linejoin:round;stroke-dasharray:1, 1.99999;stroke-dashoffset:0;stroke-opacity:1"
       d="m 237.11679,300.11704 c 0,29.88216 3.38976,47.00847 3.48967,64.51497"
       id="upper1_baseline"
       sodipodi:nodetypes="cc" /><path
       style="display:inline;opacity:1;fill:none;stroke:#404040;stroke-width:1;stroke-linecap:round;stroke-linejoin:round;stroke-dasharray:1, 1.99999;stroke-dashoffset:0;stroke-opacity:1"
       d="m 150.39878,321.92281 c 0,29.88216 1.42638,19.15047 1.5263,36.65696"
       id="upperToe_baseline"
       sodipodi:nodetypes="cc" /><path
       style="display:inline;opacity:1;fill:none;stroke:#404040;stroke-width:1;stroke-linecap:round;stroke-linejoin:round;stroke-dasharray:1, 1.99999;stroke-dashoffset:0;stroke-opacity:1"
       d="m 360.63408,243.18496 c -23.11091,30.61378 -19.28549,80.16941 -19.18556,97.6759"
       id="path17"
       sodipodi:nodetypes="cc" /><path
       style="display:inline;opacity:1;fill:none;stroke:#404040;stroke-width:1;stroke-linecap:round;stroke-linejoin:round;stroke-dasharray:1, 1.99999;stroke-dashoffset:0;stroke-opacity:1"
       d="m 220.51396,365.17366 c 0,9.45568 0.0498,11.60337 0.0498,22.64006"
       id="sole1_baseline"
       sodipodi:nodetypes="cc" /><path
       style="display:inline;opacity:1;fill:none;stroke:#404040;stroke-width:1;stroke-linecap:round;stroke-linejoin:round;stroke-dasharray:1, 1.99999;stroke-dashoffset:0;stroke-opacity:1"
       d="m 395.79299,337.73151 c 0,9.45569 5.22546,39.77835 5.22546,50.64192"
       id="path16"
       sodipodi:nodetypes="cc" /><text
       xml:space="preserve"
       style="font-size:12.2483px;display:inline;fill:#3a3a3a;fill-opacity:1;stroke-width:9.77083;stroke-linecap:round;stroke-linejoin:round;stroke-dasharray:none"
       x="110.32909"
       y="306.02301"
       id="text1"><tspan
         sodipodi:role="line"
         id="tspan1"
         style="font-size:12.2483px;fill:#3a3a3a;fill-opacity:1;stroke-width:9.77083;stroke-dasharray:none"
         x="110.32909"
         y="306.02301">Right</tspan></text><path
       style="display:inline;fill:none;stroke:#404040;stroke-width:1;stroke-linecap:round;stroke-linejoin:round;stroke-dasharray:none;stroke-opacity:1"
       d="m 479.98327,375.3609 c -18.01282,18.0196 -170.44896,14.68092 -268.68428,12.22288 -38.34248,-2.47577 -71.60197,-12.98615 -88.80822,-22.9048"
       id="path5"
       sodipodi:nodetypes="ccc" /><path
       style="display:inline;opacity:1;fill:none;fill-opacity:1;stroke:#404040;stroke-width:1;stroke-linecap:round;stroke-linejoin:round;stroke-dasharray:none;stroke-opacity:1"
       d="m 486.56501,115.79979 c 0,38.28709 -34.67904,52.80477 -65.21497,52.80477 -30.4554,0 -71.2995,-17.9823 -97.82188,-17.9823 -28.81474,0 -59.08294,32.85452 -94.92015,33.75219 -41.1029,1.02958 -114.36358,-10.86509 -114.36358,-53.07583 0,-51.024846 81.9741,-90.041676 122.02711,-90.326165 58.41065,-0.414875 74.38466,23.280171 109.48239,23.280171 30.95802,0 58.13487,-9.501986 86.78979,-4.910852 24.59015,3.939866 54.02129,13.655471 54.02129,56.458016 z"
       id="path11"
       sodipodi:nodetypes="sssssssss" /><path
       style="display:inline;fill:none;fill-opacity:1;stroke:#404040;stroke-width:1;stroke-linecap:round;stroke-linejoin:round;stroke-dasharray:none;stroke-opacity:1"
       d="m 476.41884,115.43419 c 0.0973,24.25418 -17.38172,45.34745 -51.57013,46.2154 -34.18847,0.86794 -81.53333,-6.08815 -102.30359,-6.08815 -29.39011,0 -65.23796,21.04531 -108.70387,20.4786 -37.25487,-0.48573 -95.23285,-0.78555 -95.23285,-46.93395 0,-51.225546 73.49224,-75.425858 122.26362,-75.425858 46.57129,0 82.96034,9.284543 106.14858,10.291846 23.18826,1.007313 50.61786,-1.962923 75.77702,2.947239 25.43789,4.964548 53.47829,12.875549 53.62122,48.514873 z"
       id="path12"
       sodipodi:nodetypes="sssssssss" /><path
       style="display:inline;fill:none;fill-opacity:1;stroke:#404040;stroke-width:1;stroke-linecap:round;stroke-linejoin:round;stroke-dasharray:none;stroke-opacity:1"
       d="m 450.93319,112.1863 c 0,16.6707 -21.42362,35.14417 -50.2296,35.14417 -28.80597,0 -128.27873,-9.96862 -135.22625,-16.42014 -7.0938,-6.58735 -5.57968,-33.026207 0.0446,-40.916272 5.62426,-7.89007 107.08123,-16.882194 139.592,-16.882194 32.51074,0 45.81926,25.177658 45.81926,39.074436 z"
       id="top_profile"
       sodipodi:nodetypes="szszzs" /><text
       xml:space="preserve"
       style="font-size:12.2483px;display:inline;fill:#3a3a3a;fill-opacity:1;stroke-width:13.5939;stroke-linecap:round;stroke-linejoin:round;stroke-dasharray:none"
       x="104.23677"
       y="81.98774"
       id="text1-5"><tspan
         sodipodi:role="line"
         id="tspan1-3"
         style="font-size:12.2483px;fill:#3a3a3a;fill-opacity:1;stroke-width:13.5939;stroke-dasharray:none"
         x="104.23677"
         y="81.98774">Top</tspan></text><path
       style="display:inline;opacity:1;fill:none;stroke:#404040;stroke-width:1;stroke-linecap:round;stroke-linejoin:round;stroke-dasharray:none;stroke-opacity:1"
       d="m 494.96389,449.01719 c 1.32899,28.5614 12.01763,51.03598 7.0471,81.93159"
       id="right__upper2_profile"
       sodipodi:nodetypes="cc" /><path
       style="opacity:1;fill:none;stroke:#404040;stroke-width:1;stroke-linecap:round;stroke-linejoin:round;stroke-dasharray:none;stroke-opacity:1"
       d="m 391.15785,447.1702 c -3.16098,32.82535 -11.90926,50.68983 -6.13345,83.46093"
       id="path19"
       sodipodi:nodetypes="cc" /><path
       style="opacity:1;fill:none;stroke:#404040;stroke-width:1;stroke-linecap:round;stroke-linejoin:round;stroke-dasharray:none;stroke-opacity:1"
       d="m 502.51495,534.5037 c 8.93469,5.32036 1.03168,13.83876 1.03168,18.78879 0,5.10857 8.70091,12.93069 2.86629,18.76751"
       id="right__sole2_profile"
       sodipodi:nodetypes="csc" /><path
       style="opacity:1;fill:none;stroke:#404040;stroke-width:1;stroke-linecap:round;stroke-linejoin:round;stroke-dasharray:none;stroke-opacity:1"
       d="m 382.93076,533.66221 c -10.25598,5.92353 -1.91098,13.89531 -1.95195,19.0293 -0.0392,4.91849 -9.61786,13.89254 -1.77934,18.41981"
       id="left__sole2_profile"
       sodipodi:nodetypes="csc" /><path
       style="opacity:1;fill:none;stroke:#404040;stroke-width:1;stroke-linecap:round;stroke-linejoin:round;stroke-dasharray:1, 3.99998;stroke-dashoffset:0;stroke-opacity:1"
       d="m 379.19946,571.11132 c 8.43553,4.85834 118.05481,6.22347 127.21346,0.94867"
       id="path8"
       sodipodi:nodetypes="cc" /><path
       style="opacity:1;fill:none;stroke:#404040;stroke-width:1;stroke-linecap:round;stroke-linejoin:round;stroke-dasharray:1, 3.99998;stroke-dashoffset:0;stroke-opacity:1"
       d="m 382.93076,533.66221 c 40.39332,0 86.2609,0.84151 119.58419,0.84151"
       id="path9"
       sodipodi:nodetypes="cc" /><path
       style="fill:none;stroke:#404040;stroke-width:1;stroke-linecap:round;stroke-linejoin:round;stroke-dasharray:1, 3.99998;stroke-dashoffset:0;stroke-opacity:1"
       d="m 391.15785,447.17021 c 3.88014,-14.48631 28.25767,-3.0985 50.33584,-3.0985 21.20976,0 50.23795,-7.12208 53.47022,4.94548"
       id="path6"
       sodipodi:nodetypes="csc" /><text
       xml:space="preserve"
       style="font-size:12.2483px;display:inline;fill:#3a3a3a;fill-opacity:1;stroke-width:9.77083;stroke-linecap:round;stroke-linejoin:round;stroke-dasharray:none"
       x="350.16422"
       y="510.15332"
       id="text1-9"><tspan
         sodipodi:role="line"
         style="font-size:12.2483px;fill:#3a3a3a;fill-opacity:1;stroke-width:9.77083;stroke-dasharray:none"
         x="350.16422"
         y="510.15332"
         id="tspan2">Back</tspan></text><path
       style="opacity:1;fill:none;stroke:#404040;stroke-width:1;stroke-linecap:round;stroke-linejoin:round;stroke-dasharray:none;stroke-opacity:1"
       d="m 144.82613,475.2505 c -33.91434,0 -64.030586,31.89157 -59.34778,49.3746"
       id="path21"
       sodipodi:nodetypes="cc" /><path
       style="opacity:1;fill:none;stroke:#404040;stroke-width:1;stroke-linecap:round;stroke-linejoin:round;stroke-dasharray:none;stroke-opacity:1"
       d="m 204.55605,528.88697 c 5.25275,5.37532 8.2271,16.79756 3.89798,26.14629"
       id="right__sole1_profile"
       sodipodi:nodetypes="cc" /><path
       style="opacity:1;fill:none;stroke:#404040;stroke-width:1;stroke-linecap:round;stroke-linejoin:round;stroke-dasharray:none;stroke-opacity:1"
       d="m 84.971865,528.04548 c -4.273498,4.28726 -6.316103,19.32229 -3.731291,26.03909"
       id="left__sole1_profile"
       sodipodi:nodetypes="cc" /><path
       style="opacity:1;fill:none;stroke:#404040;stroke-width:1;stroke-linecap:round;stroke-linejoin:round;stroke-dasharray:1, 3.99998;stroke-dashoffset:0;stroke-opacity:1"
       d="m 81.240574,554.08457 c 8.435514,4.85834 118.054796,6.22347 127.213456,0.94867"
       id="bottom"
       sodipodi:nodetypes="cc" /><path
       style="opacity:1;fill:none;stroke:#404040;stroke-width:1;stroke-linecap:round;stroke-linejoin:round;stroke-dasharray:1, 3.99998;stroke-dashoffset:0;stroke-opacity:1"
       d="m 84.971865,528.04548 c 44.961425,12.01787 37.516375,-4.91976 61.981665,-4.91976 22.3736,0 13.75368,17.48173 57.60252,5.76125"
       id="path3"
       sodipodi:nodetypes="csc" /><path
       style="display:inline;fill:none;stroke:#404040;stroke-width:1;stroke-linecap:round;stroke-linejoin:round;stroke-dasharray:none;stroke-opacity:1"
       d="m 147.88624,502.71779 c 24.86969,0 40.66806,17.38353 37.29909,29.96139"
       id="path24"
       sodipodi:nodetypes="cc" /><path
       style="display:inline;fill:none;stroke:#404040;stroke-width:1;stroke-linecap:round;stroke-linejoin:round;stroke-dasharray:none;stroke-opacity:1"
       d="m 144.93515,502.82458 c -26.12232,0 -38.60386,15.84916 -34.94251,29.51861"
       id="path"
       sodipodi:nodetypes="cc" /><text
       xml:space="preserve"
       style="font-size:12.2483px;display:inline;fill:#3a3a3a;fill-opacity:1;stroke-width:16.4561;stroke-linecap:round;stroke-linejoin:round;stroke-dasharray:none"
       x="48.248806"
       y="526.96283"
       id="text1-9-9"><tspan
         sodipodi:role="line"
         style="font-size:12.2483px;fill:#3a3a3a;fill-opacity:1;stroke-width:16.4561;stroke-dasharray:none"
         x="48.248806"
         y="526.96283"
         id="tspan3">Front</tspan></text><path
       style="display:inline;opacity:1;fill:none;stroke:#404040;stroke-width:1;stroke-linecap:round;stroke-linejoin:round;stroke-dasharray:none;stroke-opacity:1"
       d="m 147.36562,475.38172 c 35.98448,0 61.91726,30.78081 57.16133,49.43513"
       id="path20"
       sodipodi:nodetypes="cc" /><text
       xml:space="preserve"
       style="font-size:9.56893px;fill:#323232;fill-opacity:1;stroke-width:10;stroke-linecap:round;stroke-linejoin:round"
       x="419.28983"
       y="268.32898"
       id="text15"><tspan
         sodipodi:role="line"
         id="tspan15"
         style="font-size:9.56893px;fill:#323232;fill-opacity:1;stroke-width:10"
         x="419.28983"
         y="268.32898">rim</tspan></text><text
       xml:space="preserve"
       style="font-size:6.88963px;display:inline;fill:#323232;fill-opacity:1;stroke-width:10;stroke-linecap:round;stroke-linejoin:round"
       x="353.45032"
       y="362.99973"
       id="text15-2"><tspan
         sodipodi:role="line"
         id="tspan15-7"
         style="font-size:6.88963px;fill:#323232;fill-opacity:1;stroke-width:10"
         x="353.45032"
         y="362.99973">insole</tspan></text><text
       xml:space="preserve"
       style="font-size:6.88963px;display:inline;fill:#323232;fill-opacity:1;stroke-width:10;stroke-linecap:round;stroke-linejoin:round"
       x="304.91556"
       y="348.31607"
       id="text15-2-5"><tspan
         sodipodi:role="line"
         id="tspan15-7-3"
         style="font-size:6.88963px;fill:#323232;fill-opacity:1;stroke-width:10"
         x="304.91556"
         y="348.31607">sole</tspan></text><text
       xml:space="preserve"
       style="font-size:9.56893px;display:inline;fill:#323232;fill-opacity:1;stroke-width:10;stroke-linecap:round;stroke-linejoin:round"
       x="362.3063"
       y="342.89087"
       id="text15-6"><tspan
         sodipodi:role="line"
         id="tspan15-1"
         style="font-size:9.56893px;fill:#323232;fill-opacity:1;stroke-width:10"
         x="362.3063"
         y="342.89087">B</tspan></text><text
       xml:space="preserve"
       style="font-size:9.56893px;display:inline;fill:#323232;fill-opacity:1;stroke-width:10;stroke-linecap:round;stroke-linejoin:round"
       x="239.87796"
       y="342.89514"
       id="text15-6-29"><tspan
         sodipodi:role="line"
         id="tspan15-1-3"
         style="font-size:9.56893px;fill:#323232;fill-opacity:1;stroke-width:10"
         x="239.87796"
         y="342.89514">D</tspan></text><text
       xml:space="preserve"
       style="font-size:9.56893px;display:inline;fill:#323232;fill-opacity:1;stroke-width:10;stroke-linecap:round;stroke-linejoin:round"
       x="116.21286"
       y="478.6582"
       id="text15-6-29-7"><tspan
         sodipodi:role="line"
         id="tspan15-1-3-8"
         style="font-size:9.56893px;fill:#323232;fill-opacity:1;stroke-width:10"
         x="116.21286"
         y="478.6582">D</tspan></text><text
       xml:space="preserve"
       style="font-size:9.56893px;display:inline;fill:#323232;fill-opacity:1;stroke-width:10;stroke-linecap:round;stroke-linejoin:round"
       x="165.25621"
       y="476.47925"
       id="text15-6-29-7-5"><tspan
         sodipodi:role="line"
         id="tspan15-1-3-8-3"
         style="font-size:9.56893px;fill:#323232;fill-opacity:1;stroke-width:10"
         x="165.25621"
         y="476.47925">D</tspan></text><text
       xml:space="preserve"
       style="font-size:9.56893px;display:inline;fill:#323232;fill-opacity:1;stroke-width:10;stroke-linecap:round;stroke-linejoin:round"
       x="126.05911"
       y="513.4671"
       id="text15-6-29-7-3"><tspan
         sodipodi:role="line"
         id="tspan15-1-3-8-6"
         style="font-size:9.56893px;fill:#323232;fill-opacity:1;stroke-width:10"
         x="126.05911"
         y="513.4671">E</tspan></text><text
       xml:space="preserve"
       style="font-size:9.56893px;display:inline;fill:#323232;fill-opacity:1;stroke-width:10;stroke-linecap:round;stroke-linejoin:round"
       x="159.52341"
       y="513.56445"
       id="text15-6-29-7-3-9"><tspan
         sodipodi:role="line"
         id="tspan15-1-3-8-6-1"
         style="font-size:9.56893px;fill:#323232;fill-opacity:1;stroke-width:10"
         x="159.52341"
         y="513.56445">E</tspan></text><text
       xml:space="preserve"
       style="font-size:9.56893px;display:inline;fill:#323232;fill-opacity:1;stroke-width:10;stroke-linecap:round;stroke-linejoin:round"
       x="151.22435"
       y="339.00201"
       id="text15-6-29-7-3-3"><tspan
         sodipodi:role="line"
         id="tspan15-1-3-8-6-2"
         style="font-size:9.56893px;fill:#323232;fill-opacity:1;stroke-width:10"
         x="151.22435"
         y="339.00201">E</tspan></text><text
       xml:space="preserve"
       style="font-size:9.56893px;display:inline;fill:#323232;fill-opacity:1;stroke-width:10;stroke-linecap:round;stroke-linejoin:round"
       x="221.14139"
       y="379.7247"
       id="text15-6-29-7-3-3-5"><tspan
         sodipodi:role="line"
         id="tspan15-1-3-8-6-2-5"
         style="font-size:9.56893px;fill:#323232;fill-opacity:1;stroke-width:10"
         x="221.14139"
         y="379.7247">F</tspan></text><text
       xml:space="preserve"
       style="font-size:9.56893px;display:inline;fill:#323232;fill-opacity:1;stroke-width:10;stroke-linecap:round;stroke-linejoin:round"
       x="203.78325"
       y="546.93005"
       id="text15-6-29-7-3-3-5-5"><tspan
         sodipodi:role="line"
         id="tspan15-1-3-8-6-2-5-6"
         style="font-size:9.56893px;fill:#323232;fill-opacity:1;stroke-width:10"
         x="203.78325"
         y="546.93005">F</tspan></text><text
       xml:space="preserve"
       style="font-size:9.56893px;display:inline;fill:#323232;fill-opacity:1;stroke-width:10;stroke-linecap:round;stroke-linejoin:round"
       x="81.808281"
       y="547.1239"
       id="text15-6-29-7-3-3-5-5-4"><tspan
         sodipodi:role="line"
         id="tspan15-1-3-8-6-2-5-6-5"
         style="font-size:9.56893px;fill:#323232;fill-opacity:1;stroke-width:10"
         x="81.808281"
         y="547.1239">F</tspan></text><text
       xml:space="preserve"
       style="font-size:9.56893px;display:inline;fill:#323232;fill-opacity:1;stroke-width:10;stroke-linecap:round;stroke-linejoin:round"
       x="318.43912"
       y="387.04871"
       id="text15-6-5"><tspan
         sodipodi:role="line"
         id="tspan15-1-9"
         style="font-size:9.56893px;fill:#323232;fill-opacity:1;stroke-width:10"
         x="318.43912"
         y="387.04871">C</tspan></text><text
       xml:space="preserve"
       style="font-size:9.56893px;display:inline;fill:#323232;fill-opacity:1;stroke-width:10;stroke-linecap:round;stroke-linejoin:round"
       x="343.69312"
       y="303.48273"
       id="text15-6-5-7"><tspan
         sodipodi:role="line"
         id="tspan15-1-9-4"
         style="font-size:9.56893px;fill:#323232;fill-opacity:1;stroke-width:10"
         x="343.69312"
         y="303.48273">G</tspan></text><text
       xml:space="preserve"
       style="font-size:9.56893px;display:inline;fill:#323232;fill-opacity:1;stroke-width:10;stroke-linecap:round;stroke-linejoin:round"
       x="488.39514"
       y="488.57291"
       id="text15-6-5-7-2"><tspan
         sodipodi:role="line"
         id="tspan15-1-9-4-6"
         style="font-size:9.56893px;fill:#323232;fill-opacity:1;stroke-width:10"
         x="488.39514"
         y="488.57291">G</tspan></text><text
       xml:space="preserve"
       style="font-size:9.56893px;display:inline;fill:#323232;fill-opacity:1;stroke-width:10;stroke-linecap:round;stroke-linejoin:round"
       x="388.534"
       y="490.64935"
       id="text15-6-5-7-5"><tspan
         sodipodi:role="line"
         id="tspan15-1-9-4-0"
         style="font-size:9.56893px;fill:#323232;fill-opacity:1;stroke-width:10"
         x="388.534"
         y="490.64935">G</tspan></text><text
       xml:space="preserve"
       style="font-size:9.56893px;display:inline;fill:#323232;fill-opacity:1;stroke-width:10;stroke-linecap:round;stroke-linejoin:round"
       x="400.99387"
       y="373.34546"
       id="text15-6-5-7-7"><tspan
         sodipodi:role="line"
         id="tspan15-1-9-4-8"
         style="font-size:9.56893px;fill:#323232;fill-opacity:1;stroke-width:10"
         x="400.99387"
         y="373.34546">H</tspan></text><text
       xml:space="preserve"
       style="font-size:9.56893px;display:inline;fill:#323232;fill-opacity:1;stroke-width:10;stroke-linecap:round;stroke-linejoin:round"
       x="495.25391"
       y="556.26978"
       id="text15-6-5-7-7-4"><tspan
         sodipodi:role="line"
         id="tspan15-1-9-4-8-3"
         style="font-size:9.56893px;fill:#323232;fill-opacity:1;stroke-width:10"
         x="495.25391"
         y="556.26978">H</tspan></text><text
       xml:space="preserve"
       style="font-size:9.56893px;display:inline;fill:#323232;fill-opacity:1;stroke-width:10;stroke-linecap:round;stroke-linejoin:round"
       x="381.52054"
       y="556.40308"
       id="text15-6-5-7-7-4-2"><tspan
         sodipodi:role="line"
         id="tspan15-1-9-4-8-3-0"
         style="font-size:9.56893px;fill:#323232;fill-opacity:1;stroke-width:10"
         x="381.52054"
         y="556.40308">H</tspan></text><text
       xml:space="preserve"
       style="font-size:9.56893px;display:inline;fill:#323232;fill-opacity:1;stroke-width:10;stroke-linecap:round;stroke-linejoin:round"
       x="213.0426"
       y="192.97229"
       id="text15-6-5-9"><tspan
         sodipodi:role="line"
         id="tspan15-1-9-7"
         style="font-size:9.56893px;fill:#323232;fill-opacity:1;stroke-width:10"
         x="213.0426"
         y="192.97229">C</tspan></text><text
       xml:space="preserve"
       style="font-size:9.56893px;display:inline;fill:#323232;fill-opacity:1;stroke-width:10;stroke-linecap:round;stroke-linejoin:round"
       x="214.18243"
       y="174.00443"
       id="text15-6-2"><tspan
         sodipodi:role="line"
         id="tspan15-1-0"
         style="font-size:9.56893px;fill:#323232;fill-opacity:1;stroke-width:10"
         x="214.18243"
         y="174.00443">B</tspan></text><text
       xml:space="preserve"
       style="font-size:9.56893px;display:inline;fill:#323232;fill-opacity:1;stroke-width:10;stroke-linecap:round;stroke-linejoin:round"
       x="411.29138"
       y="139.72357"
       id="text15-3"><tspan
         sodipodi:role="line"
         id="tspan15-6"
         style="font-size:9.56893px;fill:#323232;fill-opacity:1;stroke-width:10"
         x="411.29138"
         y="139.72357">rim</tspan></text><text
       xml:space="preserve"
       style="font-size:6.12413px;display:inline;fill:#323232;fill-opacity:1;stroke-width:10;stroke-linecap:round;stroke-linejoin:round"
       x="300.71783"
       y="244.32375"
       id="text15-3-5"><tspan
         sodipodi:role="line"
         id="tspan15-6-3"
         style="font-size:6.12413px;fill:#323232;fill-opacity:1;stroke-width:10"
         x="300.71783"
         y="244.32375">tf</tspan></text><text
       xml:space="preserve"
       style="font-size:6.12413px;display:inline;fill:#323232;fill-opacity:1;stroke-width:10;stroke-linecap:round;stroke-linejoin:round"
       x="295.41296"
       y="297.14618"
       id="text15-3-5-9"><tspan
         sodipodi:role="line"
         style="font-size:6.12413px;fill:#323232;fill-opacity:1;stroke-width:10"
         x="295.41296"
         y="297.14618"
         id="tspan5">tb</tspan></text><text
       xml:space="preserve"
       style="font-size:6.12413px;display:inline;fill:#323232;fill-opacity:1;stroke-width:10;stroke-linecap:round;stroke-linejoin:round"
       x="349.37598"
       y="223.83591"
       id="text15-3-5-9-9"><tspan
         sodipodi:role="line"
         style="font-size:6.12413px;fill:#323232;fill-opacity:1;stroke-width:10"
         x="349.37598"
         y="223.83591"
         id="tspan4-3">tt</tspan></text><text
       xml:space="preserve"
       style="font-size:6.12413px;display:inline;fill:#323232;fill-opacity:1;stroke-width:10;stroke-linecap:round;stroke-linejoin:round"
       x="355.47528"
       y="110.82611"
       id="text15-3-5-9-9-2"><tspan
         sodipodi:role="line"
         style="font-size:6.12413px;fill:#323232;fill-opacity:1;stroke-width:10"
         x="355.47528"
         y="110.82611"
         id="tspan4-3-6">tt</tspan></text><path
       style="display:inline;fill:none;stroke:#404040;stroke-width:1;stroke-linecap:round;stroke-linejoin:round;stroke-dasharray:1,2;stroke-dashoffset:0"
       d="m 253.92812,312.59095 c 29.99157,-12.9489 102.51519,-48.05646 106.01107,-54.9023"
       id="path27"
       sodipodi:nodetypes="cc" /><path
       style="display:inline;fill:none;stroke:#404040;stroke-width:1;stroke-linecap:round;stroke-linejoin:round;stroke-dasharray:none;stroke-dashoffset:0"
       d="m 359.93919,257.68865 c -1.87297,-9.67815 -9.58733,-36.54428 -15.53542,-39.6873"
       id="path28"
       sodipodi:nodetypes="cc" /><path
       style="display:inline;fill:none;stroke:#404040;stroke-width:1;stroke-linecap:round;stroke-linejoin:round;stroke-dasharray:1,2;stroke-dashoffset:0"
       d="m 250.1032,296.3958 c 26.86692,-15.89374 65.73987,-61.54615 94.30057,-78.39445"
       id="path29"
       sodipodi:nodetypes="cc" /><path
       style="fill:none;stroke:#404040;stroke-width:1;stroke-linecap:round;stroke-linejoin:round;stroke-dasharray:1, 1.99999;stroke-dashoffset:0"
       d="m 357.24176,75.613403 c -4.51875,16.870541 -4.06218,52.109517 0.51256,69.189087"
       id="path30"
       sodipodi:nodetypes="cc" /><path
       style="fill:none;stroke:#404040;stroke-width:1;stroke-linecap:round;stroke-linejoin:round;stroke-dasharray:1, 1.99999;stroke-dashoffset:0"
       d="m 474.52921,341.56135 c -11.9615,0 -9.54151,14.18408 -98.5213,14.18408 -71.92068,0 -223.48643,33.23981 -257.92168,-17.81398"
       id="path22"
       sodipodi:nodetypes="csc" /><text
       xml:space="preserve"
       style="font-size:45.1556px;fill:none;stroke:#404040;stroke-width:1;stroke-linecap:round;stroke-linejoin:round;stroke-dasharray:1, 2;stroke-dashoffset:0"
       x="153.56697"
       y="223.01672"
       id="text4"><tspan
         sodipodi:role="line"
         id="tspan4"
         style="stroke-width:1;stroke-dasharray:1, 2;stroke-dashoffset:0"
         x="153.56697"
         y="223.01672" /></text><text
       xml:space="preserve"
       style="font-size:45.1556px;fill:none;stroke:#404040;stroke-width:1;stroke-linecap:round;stroke-linejoin:round;stroke-dasharray:1, 2;stroke-dashoffset:0"
       x="84.523247"
       y="220.03214"
       id="text6"><tspan
         sodipodi:role="line"
         id="tspan6"
         style="stroke-width:1"
         x="84.523247"
         y="220.03214" /></text><path
       style="fill:none;stroke:#404040;stroke-width:1;stroke-linecap:round;stroke-linejoin:round;stroke-dasharray:1, 2"
       d="m 470.87324,336.88736 c -6.47116,0.0182 -9.15846,6.03786 -23.7493,6.03786 -6.07652,0 -64.89515,-8.22662 -80.55798,-8.22662 -23.07063,0 -70.32629,29.06881 -120.79883,29.06881 -36.31485,0 -104.60574,11.1247 -104.80386,-41.2694"
       id="path23"
       sodipodi:nodetypes="csssc" /></g></svg>
