<?xml version="1.0" encoding="UTF-8" standalone="no"?>
<!-- Created with Inkscape (http://www.inkscape.org/) -->

<svg
   width="4096mm"
   height="4096mm"
   viewBox="0 0 4096 4096"
   version="1.1"
   id="svg1"
   inkscape:version="1.3-dev (411cb25, 2022-09-21)"
   sodipodi:docname="runner_4.svg"
   xml:space="preserve"
   xmlns:inkscape="http://www.inkscape.org/namespaces/inkscape"
   xmlns:sodipodi="http://sodipodi.sourceforge.net/DTD/sodipodi-0.dtd"
   xmlns="http://www.w3.org/2000/svg"
   xmlns:svg="http://www.w3.org/2000/svg"><sodipodi:namedview
     id="namedview1"
     pagecolor="#ffffff"
     bordercolor="#000000"
     borderopacity="0.25"
     inkscape:showpageshadow="2"
     inkscape:pageopacity="0.0"
     inkscape:pagecheckerboard="0"
     inkscape:deskcolor="#d1d1d1"
     inkscape:document-units="mm"
     showgrid="false"
     inkscape:zoom="0.043975353"
     inkscape:cx="3990.8719"
     inkscape:cy="6981.1834"
     inkscape:window-width="1920"
     inkscape:window-height="1048"
     inkscape:window-x="0"
     inkscape:window-y="32"
     inkscape:window-maximized="1"
     inkscape:current-layer="layer3" /><defs
     id="defs1" /><g
     inkscape:groupmode="layer"
     id="layer4"
     inkscape:label="style"
     style="display:none"><path
       style="fill:#cc3333;fill-opacity:1;stroke-width:37.7953;stroke-linecap:round;stroke-linejoin:round;stroke-dasharray:none"
       d="m 5246.8565,13897.081 c -109.1295,-19.611 -176.0985,-46.668 -319.5662,-129.113 -187.2872,-107.626 -253.0844,-124.733 -478.7107,-124.465 -221.4796,0.263 -281.5322,15.111 -529.7656,130.988 -209.0159,97.57 -272.6512,112.71 -471.7091,112.231 -161.7006,-0.39 -312.6962,-21.358 -553.732,-76.896 -131.1188,-30.211 -132.9395,-31.228 -141.9507,-79.262 -25.2476,-134.581 79.8144,-400.529 244.1925,-618.135 405.7647,-537.157 1108.7579,-841.74 1688.8142,-731.705 579.6011,109.948 1182.4573,608.815 1339.0322,1108.056 29.7551,94.875 40.3822,298.105 16.3644,312.949 -6.9109,4.271 -109.7798,27.188 -228.5975,50.925 -238.1202,47.572 -452.8212,64.473 -564.3715,44.427 z"
       id="path1"
       transform="matrix(0.26458333,0,0,0.26458333,38.021022,36.784243)" /><path
       style="fill:#ecc5c5;fill-opacity:1;stroke-width:37.7953;stroke-linecap:round;stroke-linejoin:round"
       d="m 1385.51,11400.57 c -343.0123,-19.225 -669.99836,-56.836 -710.03,-81.67 -50.50903,-31.333 -36.45035,-412.906 20.59302,-558.924 35.87276,-91.826 54.27039,-116.353 80.92751,-107.893 111.99157,35.545 428.16827,92.86 578.11577,104.798 224.6929,17.888 365.589,-10.741 618.7124,-125.722 319.0498,-144.927 602.7246,-163.728 816.0991,-54.087 40.4027,20.76 129.6743,66.95 198.3814,102.644 220.3689,114.482 520.4367,123.378 918.5393,27.23 l 160.8399,-38.845 39.6149,64.307 c 92.7616,150.58 125.7618,394.933 73.7257,545.909 -29.6285,85.964 -53.0067,92.411 -445.2836,122.806 -313.5183,24.292 -1913.6611,23.915 -2350.2354,-0.553 z"
       id="path2"
       transform="matrix(0.26458333,0,0,0.26458333,565.97447,879.16639)" /><path
       style="fill:#cc3333;fill-opacity:1;stroke:none;stroke-width:37.7953;stroke-linecap:round;stroke-linejoin:round"
       d="m 9105.6637,13501.032 -654.4845,-5.723 14.0961,-220.363 c 18.6799,-292.021 39.5839,-483.324 125.0104,-1144.036 39.4106,-304.813 79.1278,-675.054 88.2604,-822.759 14.8096,-239.52 22.718,-278.986 73.1487,-365.04 202.5124,-345.561 1031.4144,-654.763 1571.8542,-586.342 373.365,47.269 764.01,244.811 1019.673,515.629 156.374,165.644 164.533,189.949 191.644,570.888 13.257,186.274 46.907,528.033 74.778,759.465 54.992,456.635 101.126,903.249 119.266,1154.592 l 11.481,159.077 -990.122,-4.833 c -544.566,-2.658 -1284.6389,-7.408 -1644.6053,-10.555 z"
       id="path7"
       transform="matrix(0.26458333,0,0,0.26458333,85.278801,128.52045)" /><path
       style="fill:#ecc5c5;fill-opacity:1;stroke:none;stroke-width:37.7953;stroke-linecap:round;stroke-linejoin:round"
       d="m 9370.1527,14643.648 c -225.7868,-8.733 -516.7439,-26.113 -646.5713,-38.623 -469.6271,-45.253 -515.8076,-87.045 -390.0116,-352.955 72.4308,-153.106 75.8465,-215.7 20.5422,-376.444 -53.297,-154.911 -51.9447,-178.903 14.537,-257.912 l 55.5892,-66.064 1663.4698,14.902 c 1648.718,14.77 1663.879,15.283 1709.653,57.804 57.965,53.846 59.383,134.637 5.131,292.322 -53.569,155.701 -52.129,181.778 18.253,330.551 121.081,255.939 100.271,323.202 -110.62,357.539 -333.956,54.374 -1456.915,73.033 -2339.9723,38.88 z"
       id="path10"
       transform="matrix(0.26458333,0,0,0.26458333,85.278801,128.52045)" /><path
       style="display:inline;fill:#cc3333;fill-opacity:1;stroke-width:9.77086;stroke-linecap:round;stroke-linejoin:round"
       d="m 1608.9597,2650.4658 c -153.1764,-3.934 -237.5935,-13.473 -302.8865,-34.2254 -13.3715,-4.2498 -27.047,-8.3475 -30.3899,-9.1055 -3.3428,-0.7582 -16.5625,-6.4288 -29.3769,-12.6019 -12.8144,-6.1727 -27.3368,-13.1401 -32.272,-15.483 -4.9352,-2.3427 -10.4054,-5.7176 -12.156,-7.4994 -1.7506,-1.7818 -12.0398,-9.3522 -22.8648,-16.8227 -23.5773,-16.2715 -43.3769,-37.2708 -60.8369,-64.5234 -35.2911,-55.0843 -36.4709,-56.64 -47.1716,-62.2025 -9.5913,-4.9859 -10.1082,-5.6571 -8.9004,-11.5538 3.5601,-17.3806 19.9026,-34.566 42.5688,-44.7644 20.2563,-9.1141 39.6702,-12.5317 82.879,-14.5899 195.6891,-9.3212 413.1178,-52.9875 590.5778,-118.6058 192.6969,-71.2525 312.0083,-149.4117 632.1109,-414.0875 173.5237,-143.4775 225.8318,-181.1148 263.3706,-189.5028 17.8269,-3.9835 18.1321,-2.7515 6.8079,27.4844 -35.0047,93.4626 -46.1081,142.8435 -37.2978,165.8773 15.5771,40.7266 73.9025,77.9038 161.6877,103.0611 91.167,26.1265 227.8055,41.6143 287.1791,32.5513 48.5211,-7.4063 81.1933,-24.8165 116.4948,-62.0775 18.9937,-20.0479 31.9371,-38.9482 57.9744,-84.6578 33.3679,-58.578 54.8421,-73.9982 118.2496,-84.9141 15.15,-2.6081 22.6675,-3.153 23.5619,-1.708 0.7226,1.1671 1.8987,6.3419 2.6143,11.4995 0.7152,5.1575 8.124,59.9 16.4641,121.6501 27.4507,203.2511 28.133,206.0141 77.9157,315.5776 24.2716,53.4181 34.9224,79.9003 39.2091,97.4892 5.4171,22.2255 13.4613,115.1253 13.4859,155.7397 v 15.5342 l -11.5434,3.3508 c -6.349,1.8429 -17.0038,6.1028 -23.6769,9.4662 -6.6731,3.3635 -14.0144,6.3353 -16.314,6.6038 -6.3881,0.7458 -35.5834,13.3718 -35.5834,15.3885 0,5.2475 -50.3585,12.767 -72.936,10.8903 -6.1285,-0.5092 -22.9949,-1.8626 -37.4808,-3.0074 -38.0184,-3.0044 -126.59,-12.4369 -246.1585,-26.2145 -282.1473,-32.5122 -307.2092,-34.0314 -366.1387,-22.1947 -46.0724,9.2541 -88.4817,23.2074 -233.5469,76.8393 -187.3061,69.2488 -344.6998,109.2458 -452.9954,115.1153 -15.7022,0.851 -29.8335,2.373 -31.403,3.3821 -1.5695,1.0091 -15.7201,1.847 -31.4459,1.8621 -17.9729,0.019 -29.6362,0.8661 -31.4029,2.2852 -1.7979,1.4443 -13.1363,2.1913 -31.4639,2.0734 -19.9644,-0.1282 -29.5653,0.5717 -31.6611,2.3084 -2.0518,1.7003 -10.0096,2.3604 -25.0356,2.0767 -12.1154,-0.2287 -46.1879,0.6182 -75.7168,1.8821 -58.911,2.5216 -106.6912,2.6085 -194.4956,0.3534 z"
       id="polyester_material"
       transform="matrix(1.0226653,0,0,1.0242384,-324.07447,-385.45638)" /><path
       style="display:inline;fill:#ecc5c5;fill-opacity:1;stroke:none;stroke-width:0;stroke-linecap:round;stroke-linejoin:round;stroke-dasharray:none;stroke-opacity:1"
       d="m 2361.5111,2839.1375 c -333.6805,-7.5551 -599.9046,-18.7519 -726.0161,-30.5343 -206.7253,-19.3145 -427.4709,-78.0212 -560.3694,-149.0287 -22.322,-11.9268 -29.7792,-17.7671 -37.8616,-29.6516 -35.8522,-52.7183 -29.0165,-170.5495 11.0803,-190.9987 5.3587,-2.7329 10.6659,-3.2991 15.1431,-1.6154 7.2823,2.7385 10.3071,6.7649 43.9633,58.5198 40.0039,61.5162 90.9348,98.1142 175.7783,126.3113 91.6028,30.4434 195.6437,40.0235 434.3173,39.9917 238.0626,-0.031 370.2281,-10.8909 509.1266,-41.8314 93.0638,-20.7304 169.9583,-44.8988 332.2318,-104.423 178.3581,-65.424 214.8122,-73.522 300.0388,-66.6523 42.2123,3.4026 82.6077,7.7708 341.1119,36.8867 233.9335,26.3484 250.284,25.7255 326.5464,-12.4411 13.1275,-6.5695 26.3312,-11.7724 29.3416,-11.5617 7.5904,0.5311 87.3611,84.2316 97.2184,102.0078 22.9357,41.3614 23.846,75.7495 3.1083,117.4036 -17.59,35.3314 -37.9402,57.1296 -66.1022,70.8056 -86.8457,42.174 -277.05,68.039 -607.8562,82.6594 -69.0282,3.0509 -532.5268,6.151 -620.8006,4.1523 z"
       id="urethane_material"
       transform="matrix(1.0226653,0,0,1.0242384,-324.07447,-385.45638)" /><path
       style="fill:none;stroke-width:37.7952;stroke-linecap:round;stroke-linejoin:round"
       d="m 3091.5089,1752.7347 c 0,-30.0008 349.1696,-351.4138 524.7023,-482.9921 584.9822,-438.49909 1360.5783,-776.4089 2052.5676,-894.25769 170.0177,-28.95475 618.1977,-32.28126 869.835,-6.45615 341.2508,35.02199 689.7114,111.99234 1015.9889,224.41849 231.8969,79.90527 615.0016,225.61727 594.6825,226.18457 -8.201,0.22903 -106.1713,-12.39544 -217.7119,-28.05425 C 7111.7616,676.487 6312.0753,625.85434 5841.9358,659.27083 4777.9452,734.8969 3780.0624,1106.1353 3235.3069,1629.0048 c -79.0889,75.9114 -143.798,131.5899 -143.798,123.7299 z"
       id="path4"
       transform="scale(0.26458333)" /><path
       style="fill:#ecc5c5;fill-opacity:1;stroke-width:37.7953;stroke-linecap:round;stroke-linejoin:round"
       d="m 5372.6999,4287.975 c -165.8801,-7.1249 -475.2909,-37.451 -661.9659,-64.8806 -1033.0577,-151.7955 -1745.9255,-500.3373 -1983.338,-969.7117 -76.6628,-151.5654 -105.6407,-292.7259 -97.4418,-474.6689 23.8294,-528.8003 368.3649,-1054.6357 996.265,-1520.5145 590.1424,-437.86394 1365.4246,-772.93081 2049.2403,-885.65495 119.7921,-19.74722 176.7635,-22.81346 420.7845,-22.64685 305.3606,0.20849 501.8304,15.98043 769.3555,61.76134 315.5258,53.99512 552.9848,123.68493 1026.676,301.31034 668.0157,250.49349 832.4803,285.49862 1288.0111,274.14407 257.3171,-6.41389 476.0332,-26.23541 872.3584,-79.05895 466.963,-62.23848 588.975,-73.38998 864.171,-78.98228 345.409,-7.01911 528.948,11.40772 839.493,84.28297 800.88,187.94171 1195.644,674.79951 1195.644,1474.57541 0,408.8999 -122.431,717.9332 -386.226,974.8915 -145.221,141.4578 -308.328,243.6816 -527.185,330.4027 -312.653,123.8876 -712.4,180.3688 -1067.355,150.8088 -305.51,-25.442 -550.323,-75.0633 -1267.4855,-256.9067 -985.8413,-249.9695 -1250.8479,-280.4632 -1612.3337,-185.5279 -214.6108,56.3622 -344.8412,116.2024 -1103.0969,506.8666 -467.2185,240.7178 -769.9988,345.0012 -1092.1561,376.1598 -94.5143,9.1412 -350.4468,10.7792 -523.4149,3.3498 z"
       id="path13"
       transform="scale(0.26458333)" /><path
       style="display:inline;fill:#cc3333;fill-opacity:1;stroke-width:37.7953;stroke-linecap:round;stroke-linejoin:round"
       d="m 4839.022,4048.3529 c -948.3479,-38.2177 -1515.7021,-208.277 -1828.8898,-548.1932 -168.9569,-183.376 -247.2969,-388.962 -256.8837,-674.134 -8.5085,-253.0949 36.2826,-459.6067 147.4489,-679.8199 362.8426,-718.7683 1392.906,-1255.73391 2723.4469,-1419.71574 122.0861,-15.04644 228.0762,-18.31574 590.1246,-18.20259 650.0978,0.20317 945.326,25.99521 1996.1607,174.39069 747.655,105.58143 652.632,99.26487 1621.5599,107.79162 994.9535,8.7558 1038.4345,11.66622 1465.1715,98.07272 515.824,104.4452 840.076,246.0716 1054.88,460.7487 187.78,187.6692 283.462,406.4322 313.568,716.9304 35.341,364.4951 -76.95,709.0238 -312.368,958.4001 -152.278,161.3059 -318.595,264.9939 -548.177,341.754 -200.496,67.0351 -322.976,84.0714 -645.476,89.783 -415.599,7.3604 -746.488,-11.0028 -1712.4624,-95.0358 -739.3729,-64.3203 -830.0994,-69.6765 -1080.7693,-63.8044 -328.1516,7.687 -480.8872,38.5957 -1177.0989,238.2064 -729.0806,209.0346 -1070.0859,281.4791 -1472.2315,312.7667 -151.0629,11.753 -587.1263,11.7834 -878.0039,0.062 z"
       id="path14"
       transform="scale(0.26458333)" /><path
       style="fill:#631a1a;fill-opacity:1;stroke-width:37.7953;stroke-linecap:round;stroke-linejoin:round"
       d="m 9731.9249,3391.0851 c -189.2474,-15.5736 -318.2671,-54.9495 -344.1689,-105.038 -26.851,-51.9241 13.3172,-126.0975 162.1943,-299.5033 114.1681,-132.9782 150.6644,-178.9742 196.7944,-248.0185 74.0546,-110.84 125.1747,-230.7471 144.7564,-339.5404 11.7344,-65.1943 11.6407,-182.8209 -0.1898,-238.6156 -21.9048,-103.305 -70.5543,-216.6915 -136.1208,-317.2545 -63.5116,-97.4108 -112.3858,-159.0553 -261.0837,-329.3016 -145.9461,-167.0958 -192.652,-233.5725 -199.3875,-283.7894 -2.4522,-18.2828 -1.1083,-21.3319 14.557,-33.0276 61.3502,-45.8041 222.5555,-69.7598 499.6213,-74.2456 297.1984,-4.8118 584.4484,16.858 872.3584,65.8098 250.886,42.6568 404.304,93.0293 646.571,212.2922 475.923,234.2866 854.769,564.9894 920.989,803.95 21.606,77.9692 9.157,183.0249 -32.328,272.8147 -125.477,271.5775 -529.163,517.8276 -1179.439,719.4615 -354.885,110.0407 -664.124,170.7512 -978.398,192.0816 -71.5134,4.8538 -276.4617,6.0611 -326.7261,1.9247 z"
       id="path15"
       transform="scale(0.26458333)" /></g><g
     inkscape:groupmode="layer"
     id="layer3"
     inkscape:label="shape"
     style="display:inline"><path
       style="display:inline;opacity:1;fill:none;fill-opacity:1;stroke:#404040;stroke-width:9.99999;stroke-linecap:round;stroke-linejoin:round;stroke-dasharray:none;stroke-opacity:1"
       d="m 723.97868,2204.381 c 60.77117,0 29.0076,156.0323 314.05492,212.7261 128.7209,25.6018 488.2514,28.9787 703.8278,6.9401 373.1009,-38.1428 617.5138,-207.5879 780.5832,-207.5879 90.948,0 448.0971,51.1068 596.1117,59.9741 100.0232,5.9922 130.8035,-46.5339 173.7691,-46.5339"
       id="mid_baseline"
       sodipodi:nodetypes="cssssc" /><path
       d="m 3137.0833,1479.2599 c -32.0979,4.9975 -86.7813,7.6649 -124.7374,46.3334 -41.4638,42.2418 -73.5154,198.4256 -239.6994,198.4256 -54.1425,0 -126.5836,-6.6685 -196.1979,-21.0992 -104.2532,-21.6111 -74.293,-266.2987 -185.2171,-266.2987 -121.5801,0 -568.0762,379.2823 -667.1038,436.4559"
       style="display:inline;fill:none;stroke:#404040;stroke-width:10;stroke-linecap:round;stroke-linejoin:round;stroke-dasharray:none;stroke-opacity:1"
       id="top_baseline"
       sodipodi:nodetypes="cssssc" /><path
       style="display:inline;opacity:1;fill:none;fill-opacity:1;stroke:#404040;stroke-width:10;stroke-linecap:round;stroke-linejoin:round;stroke-dasharray:10, 20.0001;stroke-dashoffset:0;stroke-opacity:1"
       d="m 3359.5099,2513.527 c 131.9848,-154.7968 -66.1515,-249.5978 -67.1845,-283.6275 -0.3915,-12.898 -2.9867,-105.7584 -12.3834,-171.4686 -8.7566,-61.2328 -81.9112,-170.2055 -97.8646,-263.8081 -16.7908,-98.5164 -38.8242,-291.8836 -44.9941,-315.3629"
       id="path18"
       sodipodi:nodetypes="csssc" /><path
       style="display:inline;opacity:1;fill:none;fill-opacity:1;stroke:#404040;stroke-width:10;stroke-linecap:round;stroke-linejoin:round;stroke-dasharray:10, 20.0001;stroke-dashoffset:0;stroke-opacity:1"
       d="m 1724.1277,1873.0769 c -348.5655,228.7498 -834.40668,250.7442 -864.81757,250.7442 -99.97934,0 -135.33145,40.9899 -135.33145,80.5599 -63.04735,16.8888 -63.04439,194.5881 -0.89923,230.3987"
       id="front_baseline"
       sodipodi:nodetypes="cscc" /><path
       style="display:inline;opacity:1;fill:none;stroke:#404040;stroke-width:10;stroke-linecap:round;stroke-linejoin:round;stroke-dasharray:10, 20;stroke-dashoffset:0;stroke-opacity:1"
       d="m 1568.4217,1958.8283 c 0,220.2917 26.0452,346.4993 26.782,475.5575"
       id="upper1_baseline"
       sodipodi:nodetypes="cc" /><path
       style="display:inline;opacity:1;fill:none;stroke:#404040;stroke-width:10;stroke-linecap:round;stroke-linejoin:round;stroke-dasharray:10, 20;stroke-dashoffset:0;stroke-opacity:1"
       d="m 928.89504,2119.5807 c 0,220.2917 10.51923,141.1775 11.25606,270.2356"
       id="upperToe_baseline"
       sodipodi:nodetypes="cc" /><path
       style="display:inline;opacity:1;fill:none;stroke:#404040;stroke-width:10;stroke-linecap:round;stroke-linejoin:round;stroke-dasharray:10, 20;stroke-dashoffset:0;stroke-opacity:1"
       d="m 2391.2315,1436.621 c 0,506.5412 49.4365,661.6759 50.1734,790.734"
       id="path17"
       sodipodi:nodetypes="cc" /><path
       style="display:inline;opacity:1;fill:none;stroke:#404040;stroke-width:10;stroke-linecap:round;stroke-linejoin:round;stroke-dasharray:10, 20;stroke-dashoffset:0;stroke-opacity:1"
       d="m 1445.9794,2438.4265 c 0,69.7074 0.3673,85.5402 0.3673,166.9028"
       id="sole1_baseline"
       sodipodi:nodetypes="cc" /><path
       style="display:inline;opacity:1;fill:none;stroke:#404040;stroke-width:10;stroke-linecap:round;stroke-linejoin:round;stroke-dasharray:10, 20;stroke-dashoffset:0;stroke-opacity:1"
       d="m 2738.6246,2236.1226 c 0,69.7075 38.5367,293.2465 38.5367,373.3329"
       id="path16"
       sodipodi:nodetypes="cc" /><text
       xml:space="preserve"
       style="font-size:90.3111px;display:inline;fill:#3a3a3a;fill-opacity:1;stroke-width:9.77086;stroke-linecap:round;stroke-linejoin:round;stroke-dasharray:none"
       x="633.23669"
       y="2002.7914"
       id="text1"><tspan
         sodipodi:role="line"
         id="tspan1"
         style="font-size:90.3111px;fill:#3a3a3a;fill-opacity:1;stroke-width:9.77086;stroke-dasharray:none"
         x="633.23669"
         y="2002.7914">Right</tspan></text><path
       style="display:inline;fill:none;stroke:#404040;stroke-width:9.99999;stroke-linecap:round;stroke-linejoin:round;stroke-dasharray:none;stroke-opacity:1"
       d="m 3359.5099,2513.527 c -132.8407,132.8407 -1257.0245,108.2279 -1981.4889,90.1072 -282.7676,-18.2514 -528.04914,-95.7341 -654.94155,-168.8545"
       id="path5"
       sodipodi:nodetypes="ccc" /><path
       style="display:inline;opacity:1;fill:none;fill-opacity:1;stroke:#404040;stroke-width:9.99999;stroke-linecap:round;stroke-linejoin:round;stroke-dasharray:none;stroke-opacity:1"
       d="m 3408.0488,600.03924 c 0,282.2529 -255.7505,389.27741 -480.9464,389.27741 -224.602,0 -525.8185,-132.56573 -721.4154,-132.56573 -212.5025,0 -435.724,242.20388 -700.0157,248.82158 -303.125,7.5901 -843.40687,-80.0976 -843.40687,-391.27574 0,-376.15574 604.54137,-663.788297 899.92377,-665.885547 430.766,-3.05847 548.5709,171.621707 807.4091,171.621707 228.3088,0 428.7322,-70.04876 640.0561,-36.20286 181.3471,29.04474 398.3954,100.6683 398.3954,416.20918 z"
       id="path11"
       sodipodi:nodetypes="sssssssss" /><path
       style="display:inline;fill:none;fill-opacity:1;stroke:#404040;stroke-width:9.99999;stroke-linecap:round;stroke-linejoin:round;stroke-opacity:1"
       d="m 3333.223,597.34403 c 0.7173,178.80209 -128.1865,334.30196 -380.3187,340.70047 -252.1326,6.39851 -601.2908,-44.88188 -754.467,-44.88188 -216.7457,0 -481.1159,155.14628 -801.6677,150.96848 -274.7466,-3.5808 -702.3218,-5.7911 -702.3218,-345.99762 0,-377.63538 541.9895,-556.04038 901.6679,-556.04038 343.4533,0 611.8147,68.44577 782.8231,75.87162 171.0084,7.42592 373.2958,-14.4707 558.8392,21.72708 187.599,36.59871 394.3909,94.9187 395.445,357.65223 z"
       id="path12"
       sodipodi:nodetypes="sssssssss" /><path
       style="display:inline;fill:none;fill-opacity:1;stroke:#404040;stroke-width:9.99999;stroke-linecap:round;stroke-linejoin:round;stroke-opacity:1"
       d="m 3145.2718,573.40058 c 0,122.89658 -157.9946,259.08323 -370.4325,259.08323 -212.4379,0 -946.0281,-73.48879 -997.2646,-121.04947 -52.3153,-48.56201 -41.1489,-243.46964 0.3288,-301.63526 41.4777,-58.1657 789.7011,-124.45575 1029.461,-124.45575 239.7598,0 337.9073,185.60997 337.9073,288.05725 z"
       id="top_profile"
       sodipodi:nodetypes="szszzs" /><text
       xml:space="preserve"
       style="font-size:90.3111px;display:inline;fill:#3a3a3a;fill-opacity:1;stroke-width:13.5939;stroke-linecap:round;stroke-linejoin:round;stroke-dasharray:none"
       x="588.31555"
       y="350.89008"
       id="text1-5"><tspan
         sodipodi:role="line"
         id="tspan1-3"
         style="font-size:90.3111px;fill:#3a3a3a;fill-opacity:1;stroke-width:13.5939;stroke-dasharray:none"
         x="588.31555"
         y="350.89008">Top</tspan></text><path
       style="display:inline;opacity:1;fill:none;stroke:#404040;stroke-width:10.0001;stroke-linecap:round;stroke-linejoin:round;stroke-dasharray:none;stroke-opacity:1"
       d="m 3469.9888,3056.522 c 9.801,210.5551 88.6274,376.2379 51.9708,604.0008"
       id="right__upper2_profile"
       sodipodi:nodetypes="cc" /><path
       style="opacity:1;fill:none;stroke:#404040;stroke-width:10;stroke-linecap:round;stroke-linejoin:round;stroke-dasharray:none;stroke-opacity:1"
       d="m 2704.4415,3042.906 c -23.3116,241.9889 -87.8283,373.6861 -45.2329,615.275"
       id="path19"
       sodipodi:nodetypes="cc" /><path
       style="opacity:1;fill:none;stroke:#404040;stroke-width:10;stroke-linecap:round;stroke-linejoin:round;stroke-dasharray:none;stroke-opacity:1"
       d="m 3525.6762,3686.7297 c 65.8914,39.2217 7.6084,102.0195 7.6084,138.5112 0,37.6604 64.1674,95.3252 21.1383,138.3543"
       id="right__sole2_profile"
       sodipodi:nodetypes="csc" /><path
       style="opacity:1;fill:none;stroke:#404040;stroke-width:10;stroke-linecap:round;stroke-linejoin:round;stroke-dasharray:none;stroke-opacity:1"
       d="m 2643.7685,3680.5262 c -75.6357,43.6683 -14.0931,102.4364 -14.3953,140.2842 -0.2895,36.2592 -70.9296,102.416 -13.1222,135.7911"
       id="left__sole2_profile"
       sodipodi:nodetypes="csc" /><path
       style="opacity:1;fill:none;stroke:#404040;stroke-width:10;stroke-linecap:round;stroke-linejoin:round;stroke-dasharray:10, 40;stroke-dashoffset:0;stroke-opacity:1"
       d="m 2616.2509,3956.6015 c 62.2102,35.8157 870.6289,45.8795 938.172,6.9936"
       id="path8"
       sodipodi:nodetypes="cc" /><path
       style="opacity:1;fill:none;stroke:#404040;stroke-width:10;stroke-linecap:round;stroke-linejoin:round;stroke-dasharray:10, 40;stroke-dashoffset:0;stroke-opacity:1"
       d="m 2643.7684,3680.5262 c 297.8921,0 636.1557,6.2036 881.9078,6.2036"
       id="path9"
       sodipodi:nodetypes="cc" /><path
       style="fill:none;stroke:#404040;stroke-width:10;stroke-linecap:round;stroke-linejoin:round;stroke-dasharray:10, 40;stroke-dashoffset:0;stroke-opacity:1"
       d="m 2704.4415,3042.9061 c 28.6152,-106.7933 208.3942,-22.8422 371.216,-22.8422 156.4174,0 370.4941,-52.504 394.3314,36.4582"
       id="path6"
       sodipodi:nodetypes="csc" /><text
       xml:space="preserve"
       style="font-size:90.3111px;display:inline;fill:#3a3a3a;fill-opacity:1;stroke-width:9.77086;stroke-linecap:round;stroke-linejoin:round;stroke-dasharray:none"
       x="2401.6367"
       y="3507.9258"
       id="text1-9"><tspan
         sodipodi:role="line"
         style="font-size:90.3111px;fill:#3a3a3a;fill-opacity:1;stroke-width:9.77086;stroke-dasharray:none"
         x="2401.6367"
         y="3507.9258"
         id="tspan2">Back</tspan></text><path
       style="opacity:1;fill:none;stroke:#404040;stroke-width:10;stroke-linecap:round;stroke-linejoin:round;stroke-dasharray:none;stroke-opacity:1"
       d="m 887.79795,3249.9143 c -250.111,0 -472.21186,235.1051 -437.6772,363.9902"
       id="path21"
       sodipodi:nodetypes="cc" /><path
       style="opacity:1;fill:none;stroke:#404040;stroke-width:10;stroke-linecap:round;stroke-linejoin:round;stroke-dasharray:none;stroke-opacity:1"
       d="m 1328.2933,3645.3231 c 38.7379,39.6269 60.6731,123.8318 28.7467,192.7507"
       id="right__sole1_profile"
       sodipodi:nodetypes="cc" /><path
       style="opacity:1;fill:none;stroke:#404040;stroke-width:10;stroke-linecap:round;stroke-linejoin:round;stroke-dasharray:none;stroke-opacity:1"
       d="m 446.38558,3639.1196 c -31.51618,31.6057 -46.57995,142.4442 -27.5175,191.9605"
       id="left__sole1_profile"
       sodipodi:nodetypes="cc" /><path
       style="opacity:1;fill:none;stroke:#404040;stroke-width:10;stroke-linecap:round;stroke-linejoin:round;stroke-dasharray:10, 40;stroke-dashoffset:0;stroke-opacity:1"
       d="m 418.86807,3831.0801 c 62.21015,35.8157 870.62883,45.8795 938.17193,6.9936"
       id="bottom"
       sodipodi:nodetypes="cc" /><path
       style="opacity:1;fill:none;stroke:#404040;stroke-width:10;stroke-linecap:round;stroke-linejoin:round;stroke-dasharray:10, 40;stroke-dashoffset:0;stroke-opacity:1"
       d="m 446.38558,3639.1196 c 331.58083,88.5959 276.67519,-36.2685 457.10145,-36.2685 165.00047,0 101.43047,128.8755 424.80627,42.472"
       id="path3"
       sodipodi:nodetypes="csc" /><path
       style="display:inline;fill:none;stroke:#404040;stroke-width:10.0001;stroke-linecap:round;stroke-linejoin:round;stroke-dasharray:none;stroke-opacity:1"
       d="m 910.36558,3452.4035 c 183.40862,0 299.91822,128.1516 275.07282,220.8758"
       id="path24"
       sodipodi:nodetypes="cc" /><path
       style="display:inline;fill:none;stroke:#404040;stroke-width:10.0001;stroke-linecap:round;stroke-linejoin:round;stroke-dasharray:none;stroke-opacity:1"
       d="m 888.60189,3453.1908 c -192.64644,0 -284.69512,116.8402 -257.69348,217.6116"
       id="path"
       sodipodi:nodetypes="cc" /><text
       xml:space="preserve"
       style="font-size:90.3111px;display:inline;fill:#3a3a3a;fill-opacity:1;stroke-width:16.4561;stroke-linecap:round;stroke-linejoin:round;stroke-dasharray:none"
       x="175.49399"
       y="3631.8689"
       id="text1-9-9"><tspan
         sodipodi:role="line"
         style="font-size:90.3111px;fill:#3a3a3a;fill-opacity:1;stroke-width:16.4561;stroke-dasharray:none"
         x="175.49399"
         y="3631.8689"
         id="tspan3">Front</tspan></text><path
       style="display:inline;opacity:1;fill:none;stroke:#404040;stroke-width:10.0001;stroke-linecap:round;stroke-linejoin:round;stroke-dasharray:none;stroke-opacity:1"
       d="m 906.52613,3250.8817 c 265.37777,0 456.62647,226.9165 421.55247,364.4364"
       id="path20"
       sodipodi:nodetypes="cc" /><text
       xml:space="preserve"
       style="font-size:70.5556px;fill:#323232;fill-opacity:1;stroke-width:10;stroke-linecap:round;stroke-linejoin:round"
       x="2911.3274"
       y="1724.8584"
       id="text15"><tspan
         sodipodi:role="line"
         id="tspan15"
         style="font-size:70.5556px;fill:#323232;fill-opacity:1;stroke-width:10"
         x="2911.3274"
         y="1724.8584">rim</tspan></text><text
       xml:space="preserve"
       style="font-size:70.5556px;display:inline;fill:#323232;fill-opacity:1;stroke-width:10;stroke-linecap:round;stroke-linejoin:round"
       x="3002.9915"
       y="2240.7012"
       id="text15-6"><tspan
         sodipodi:role="line"
         id="tspan15-1"
         style="font-size:70.5556px;fill:#323232;fill-opacity:1;stroke-width:10"
         x="3002.9915"
         y="2240.7012">B</tspan></text><text
       xml:space="preserve"
       style="font-size:70.5556px;display:inline;fill:#323232;fill-opacity:1;stroke-width:10;stroke-linecap:round;stroke-linejoin:round"
       x="1600.6913"
       y="2286.0032"
       id="text15-6-29"><tspan
         sodipodi:role="line"
         id="tspan15-1-3"
         style="font-size:70.5556px;fill:#323232;fill-opacity:1;stroke-width:10"
         x="1600.6913"
         y="2286.0032">D</tspan></text><text
       xml:space="preserve"
       style="font-size:70.5556px;display:inline;fill:#323232;fill-opacity:1;stroke-width:10;stroke-linecap:round;stroke-linejoin:round"
       x="676.62"
       y="3275.6997"
       id="text15-6-29-7"><tspan
         sodipodi:role="line"
         id="tspan15-1-3-8"
         style="font-size:70.5556px;fill:#323232;fill-opacity:1;stroke-width:10"
         x="676.62"
         y="3275.6997">D</tspan></text><text
       xml:space="preserve"
       style="font-size:70.5556px;display:inline;fill:#323232;fill-opacity:1;stroke-width:10;stroke-linecap:round;stroke-linejoin:round"
       x="1038.2363"
       y="3259.6333"
       id="text15-6-29-7-5"><tspan
         sodipodi:role="line"
         id="tspan15-1-3-8-3"
         style="font-size:70.5556px;fill:#323232;fill-opacity:1;stroke-width:10"
         x="1038.2363"
         y="3259.6333">D</tspan></text><text
       xml:space="preserve"
       style="font-size:70.5556px;display:inline;fill:#323232;fill-opacity:1;stroke-width:10;stroke-linecap:round;stroke-linejoin:round"
       x="749.2204"
       y="3532.3596"
       id="text15-6-29-7-3"><tspan
         sodipodi:role="line"
         id="tspan15-1-3-8-6"
         style="font-size:70.5556px;fill:#323232;fill-opacity:1;stroke-width:10"
         x="749.2204"
         y="3532.3596">E</tspan></text><text
       xml:space="preserve"
       style="font-size:70.5556px;display:inline;fill:#323232;fill-opacity:1;stroke-width:10;stroke-linecap:round;stroke-linejoin:round"
       x="995.966"
       y="3533.0774"
       id="text15-6-29-7-3-9"><tspan
         sodipodi:role="line"
         id="tspan15-1-3-8-6-1"
         style="font-size:70.5556px;fill:#323232;fill-opacity:1;stroke-width:10"
         x="995.966"
         y="3533.0774">E</tspan></text><text
       xml:space="preserve"
       style="font-size:70.5556px;display:inline;fill:#323232;fill-opacity:1;stroke-width:10;stroke-linecap:round;stroke-linejoin:round"
       x="948.11548"
       y="2280.9753"
       id="text15-6-29-7-3-3"><tspan
         sodipodi:role="line"
         id="tspan15-1-3-8-6-2"
         style="font-size:70.5556px;fill:#323232;fill-opacity:1;stroke-width:10"
         x="948.11548"
         y="2280.9753">E</tspan></text><text
       xml:space="preserve"
       style="font-size:70.5556px;display:inline;fill:#323232;fill-opacity:1;stroke-width:10;stroke-linecap:round;stroke-linejoin:round"
       x="1450.2999"
       y="2546.2236"
       id="text15-6-29-7-3-3-5"><tspan
         sodipodi:role="line"
         id="tspan15-1-3-8-6-2-5"
         style="font-size:70.5556px;fill:#323232;fill-opacity:1;stroke-width:10"
         x="1450.2999"
         y="2546.2236">F</tspan></text><text
       xml:space="preserve"
       style="font-size:70.5556px;display:inline;fill:#323232;fill-opacity:1;stroke-width:10;stroke-linecap:round;stroke-linejoin:round"
       x="1322.3115"
       y="3779.0955"
       id="text15-6-29-7-3-3-5-5"><tspan
         sodipodi:role="line"
         id="tspan15-1-3-8-6-2-5-6"
         style="font-size:70.5556px;fill:#323232;fill-opacity:1;stroke-width:10"
         x="1322.3115"
         y="3779.0955">F</tspan></text><text
       xml:space="preserve"
       style="font-size:70.5556px;display:inline;fill:#323232;fill-opacity:1;stroke-width:10;stroke-linecap:round;stroke-linejoin:round"
       x="422.94141"
       y="3780.5247"
       id="text15-6-29-7-3-3-5-5-4"><tspan
         sodipodi:role="line"
         id="tspan15-1-3-8-6-2-5-6-5"
         style="font-size:70.5556px;fill:#323232;fill-opacity:1;stroke-width:10"
         x="422.94141"
         y="3780.5247">F</tspan></text><text
       xml:space="preserve"
       style="font-size:70.5556px;display:inline;fill:#323232;fill-opacity:1;stroke-width:10;stroke-linecap:round;stroke-linejoin:round"
       x="2175.0383"
       y="2596.3352"
       id="text15-6-5"><tspan
         sodipodi:role="line"
         id="tspan15-1-9"
         style="font-size:70.5556px;fill:#323232;fill-opacity:1;stroke-width:10"
         x="2175.0383"
         y="2596.3352">C</tspan></text><text
       xml:space="preserve"
       style="font-size:70.5556px;display:inline;fill:#323232;fill-opacity:1;stroke-width:10;stroke-linecap:round;stroke-linejoin:round"
       x="2432.6802"
       y="2022.6643"
       id="text15-6-5-7"><tspan
         sodipodi:role="line"
         id="tspan15-1-9-4"
         style="font-size:70.5556px;fill:#323232;fill-opacity:1;stroke-width:10"
         x="2432.6802"
         y="2022.6643">G</tspan></text><text
       xml:space="preserve"
       style="font-size:70.5556px;display:inline;fill:#323232;fill-opacity:1;stroke-width:10;stroke-linecap:round;stroke-linejoin:round"
       x="3420.8689"
       y="3348.8047"
       id="text15-6-5-7-2"><tspan
         sodipodi:role="line"
         id="tspan15-1-9-4-6"
         style="font-size:70.5556px;fill:#323232;fill-opacity:1;stroke-width:10"
         x="3420.8689"
         y="3348.8047">G</tspan></text><text
       xml:space="preserve"
       style="font-size:70.5556px;display:inline;fill:#323232;fill-opacity:1;stroke-width:10;stroke-linecap:round;stroke-linejoin:round"
       x="2684.5525"
       y="3364.1152"
       id="text15-6-5-7-5"><tspan
         sodipodi:role="line"
         id="tspan15-1-9-4-0"
         style="font-size:70.5556px;fill:#323232;fill-opacity:1;stroke-width:10"
         x="2684.5525"
         y="3364.1152">G</tspan></text><text
       xml:space="preserve"
       style="font-size:70.5556px;display:inline;fill:#323232;fill-opacity:1;stroke-width:10;stroke-linecap:round;stroke-linejoin:round"
       x="2766.9895"
       y="2414.719"
       id="text15-6-5-7-7"><tspan
         sodipodi:role="line"
         id="tspan15-1-9-4-8"
         style="font-size:70.5556px;fill:#323232;fill-opacity:1;stroke-width:10"
         x="2766.9895"
         y="2414.719">H</tspan></text><text
       xml:space="preserve"
       style="font-size:70.5556px;display:inline;fill:#323232;fill-opacity:1;stroke-width:10;stroke-linecap:round;stroke-linejoin:round"
       x="3471.4412"
       y="3847.9607"
       id="text15-6-5-7-7-4"><tspan
         sodipodi:role="line"
         id="tspan15-1-9-4-8-3"
         style="font-size:70.5556px;fill:#323232;fill-opacity:1;stroke-width:10"
         x="3471.4412"
         y="3847.9607">H</tspan></text><text
       xml:space="preserve"
       style="font-size:70.5556px;display:inline;fill:#323232;fill-opacity:1;stroke-width:10;stroke-linecap:round;stroke-linejoin:round"
       x="2632.8394"
       y="3848.9436"
       id="text15-6-5-7-7-4-2"><tspan
         sodipodi:role="line"
         id="tspan15-1-9-4-8-3-0"
         style="font-size:70.5556px;fill:#323232;fill-opacity:1;stroke-width:10"
         x="2632.8394"
         y="3848.9436">H</tspan></text><text
       xml:space="preserve"
       style="font-size:70.5556px;display:inline;fill:#323232;fill-opacity:1;stroke-width:10;stroke-linecap:round;stroke-linejoin:round"
       x="1390.5844"
       y="1169.2234"
       id="text15-6-5-9"><tspan
         sodipodi:role="line"
         id="tspan15-1-9-7"
         style="font-size:70.5556px;fill:#323232;fill-opacity:1;stroke-width:10"
         x="1390.5844"
         y="1169.2234">C</tspan></text><text
       xml:space="preserve"
       style="font-size:70.5556px;display:inline;fill:#323232;fill-opacity:1;stroke-width:10;stroke-linecap:round;stroke-linejoin:round"
       x="1398.9889"
       y="1029.3658"
       id="text15-6-2"><tspan
         sodipodi:role="line"
         id="tspan15-1-0"
         style="font-size:70.5556px;fill:#323232;fill-opacity:1;stroke-width:10"
         x="1398.9889"
         y="1029.3658">B</tspan></text><text
       xml:space="preserve"
       style="font-size:70.5556px;display:inline;fill:#323232;fill-opacity:1;stroke-width:10;stroke-linecap:round;stroke-linejoin:round"
       x="2852.3518"
       y="776.5993"
       id="text15-3"><tspan
         sodipodi:role="line"
         id="tspan15-6"
         style="font-size:70.5556px;fill:#323232;fill-opacity:1;stroke-width:10"
         x="2852.3518"
         y="776.5993">rim</tspan></text><text
       xml:space="preserve"
       style="font-size:45.1556px;display:inline;fill:#323232;fill-opacity:1;stroke-width:10;stroke-linecap:round;stroke-linejoin:round"
       x="2037.049"
       y="1547.8582"
       id="text15-3-5"><tspan
         sodipodi:role="line"
         id="tspan15-6-3"
         style="font-size:45.1556px;fill:#323232;fill-opacity:1;stroke-width:10"
         x="2037.049"
         y="1547.8582">tf</tspan></text><text
       xml:space="preserve"
       style="font-size:45.1556px;display:inline;fill:#323232;fill-opacity:1;stroke-width:10;stroke-linecap:round;stroke-linejoin:round"
       x="1997.934"
       y="1937.3391"
       id="text15-3-5-9"><tspan
         sodipodi:role="line"
         style="font-size:45.1556px;fill:#323232;fill-opacity:1;stroke-width:10"
         x="1997.934"
         y="1937.3391"
         id="tspan5">tb</tspan></text><text
       xml:space="preserve"
       style="font-size:45.1556px;display:inline;fill:#323232;fill-opacity:1;stroke-width:10;stroke-linecap:round;stroke-linejoin:round"
       x="2465.1204"
       y="1405.5707"
       id="text15-3-5-9-9"><tspan
         sodipodi:role="line"
         style="font-size:45.1556px;fill:#323232;fill-opacity:1;stroke-width:10"
         x="2465.1204"
         y="1405.5707"
         id="tspan4-3">tt</tspan></text><text
       xml:space="preserve"
       style="font-size:45.1556px;display:inline;fill:#323232;fill-opacity:1;stroke-width:10;stroke-linecap:round;stroke-linejoin:round"
       x="2440.7974"
       y="563.52698"
       id="text15-3-5-9-9-2"><tspan
         sodipodi:role="line"
         style="font-size:45.1556px;fill:#323232;fill-opacity:1;stroke-width:10"
         x="2440.7974"
         y="563.52698"
         id="tspan4-3-6">tt</tspan></text><path
       style="display:inline;fill:none;stroke:#404040;stroke-width:10;stroke-linecap:round;stroke-linejoin:round"
       d="m 1692.4017,2050.7861 c 221.1814,-95.4594 821.0812,-453.1545 846.8626,-503.6221"
       id="path27"
       sodipodi:nodetypes="cc" /><path
       style="display:inline;fill:none;stroke:#404040;stroke-width:10;stroke-linecap:round;stroke-linejoin:round;stroke-dasharray:10, 20;stroke-dashoffset:0"
       d="m 2539.2643,1547.164 c -13.8128,-71.3475 -143.5765,-223.5749 -184.8664,-223.5749"
       id="path28"
       sodipodi:nodetypes="cc" /><path
       style="display:inline;fill:none;stroke:#404040;stroke-width:10;stroke-linecap:round;stroke-linejoin:round"
       d="m 1664.1937,1931.3953 c 198.1378,-117.1689 479.5751,-483.6003 690.2042,-607.8062"
       id="path29"
       sodipodi:nodetypes="cc" /><path
       style="fill:none;stroke:#404040;stroke-width:10;stroke-linecap:round;stroke-linejoin:round;stroke-dasharray:10, 20"
       d="m 2454.3176,303.78471 c -33.3248,124.36981 -29.9577,384.15199 3.78,510.06281"
       id="path30"
       sodipodi:nodetypes="cc" /></g></svg>
