<?xml version="1.0" encoding="UTF-8" standalone="no"?>
<!-- Created with Inkscape (http://www.inkscape.org/) -->

<svg
   width="4096mm"
   height="4096mm"
   viewBox="0 0 4096 4096"
   version="1.1"
   id="svg1"
   inkscape:version="1.3-dev (411cb25, 2022-09-21)"
   sodipodi:docname="runner_1.svg"
   xml:space="preserve"
   xmlns:inkscape="http://www.inkscape.org/namespaces/inkscape"
   xmlns:sodipodi="http://sodipodi.sourceforge.net/DTD/sodipodi-0.dtd"
   xmlns="http://www.w3.org/2000/svg"
   xmlns:svg="http://www.w3.org/2000/svg"><sodipodi:namedview
     id="namedview1"
     pagecolor="#ffffff"
     bordercolor="#000000"
     borderopacity="0.25"
     inkscape:showpageshadow="2"
     inkscape:pageopacity="0.0"
     inkscape:pagecheckerboard="0"
     inkscape:deskcolor="#d1d1d1"
     inkscape:document-units="mm"
     showgrid="false"
     inkscape:zoom="0.034449198"
     inkscape:cx="6226.56"
     inkscape:cy="6734.5545"
     inkscape:window-width="1920"
     inkscape:window-height="1048"
     inkscape:window-x="0"
     inkscape:window-y="32"
     inkscape:window-maximized="1"
     inkscape:current-layer="back_view" /><defs
     id="defs1" /><g
     inkscape:groupmode="layer"
     id="front_view"
     transform="matrix(0.60853793,0,0,0.60681905,287.67124,-123.29617)"
     style="stroke-width:1.64561"><path
       style="display:inline;opacity:1;fill:none;stroke:#000000;stroke-width:16.4562;stroke-linecap:round;stroke-linejoin:round;stroke-dasharray:none;stroke-opacity:1"
       d="m 1456.6495,5578.8965 c 428.6261,0 865.2074,413.2863 709.2061,650.6132"
       id="front_view__right__upper1_profile"
       sodipodi:nodetypes="cc" /><path
       style="opacity:1;fill:none;stroke:#000000;stroke-width:16.4561;stroke-linecap:round;stroke-linejoin:round;stroke-dasharray:none;stroke-opacity:1"
       d="m 1456.6495,5578.8965 c -468.13167,0 -859.74287,432.4329 -740.01777,640.3903"
       id="front_view__left__upper1_profile"
       sodipodi:nodetypes="cc" /><path
       style="opacity:1;fill:none;stroke:#000000;stroke-width:16.4561;stroke-linecap:round;stroke-linejoin:round;stroke-dasharray:none;stroke-opacity:1"
       d="m 2165.8556,6229.5097 c 63.6574,65.3026 99.7031,204.0671 47.239,317.6412"
       id="front_view__right__sole1_profile"
       sodipodi:nodetypes="cc" /><path
       style="opacity:1;fill:none;stroke:#000000;stroke-width:16.4561;stroke-linecap:round;stroke-linejoin:round;stroke-dasharray:none;stroke-opacity:1"
       d="m 716.6317,6219.2867 c -51.79,52.0842 -76.54404,234.7392 -45.21904,316.339"
       id="front_view__left__sole1_profile"
       sodipodi:nodetypes="cc" /><path
       style="opacity:1;fill:none;stroke:#000000;stroke-width:16.4561;stroke-linecap:round;stroke-linejoin:round;stroke-dasharray:none;stroke-opacity:1"
       d="m 671.41264,6535.6257 c 102.22887,59.0219 1430.68956,75.6065 1541.68196,11.525"
       id="front_view__bottom"
       sodipodi:nodetypes="cc" /><path
       style="opacity:1;fill:none;stroke:#000000;stroke-width:16.4561;stroke-linecap:round;stroke-linejoin:round;stroke-dasharray:none;stroke-opacity:1"
       d="m 716.6317,6219.2867 c 544.8811,146.0005 454.6556,-59.7683 751.147,-59.7683 271.1425,0 166.6791,212.3789 698.0769,69.9913"
       id="path3"
       sodipodi:nodetypes="csc" /><path
       style="fill:#cc3333;fill-opacity:1;stroke-width:37.7953;stroke-linecap:round;stroke-linejoin:round"
       d="m 3187.7799,10694.828 c -58.6602,-16.568 -187.9745,-74.316 -287.365,-128.328 l -180.7101,-98.202 h -266.839 c -265.7542,0 -267.5482,0.321 -441.3106,79.098 -323.2638,146.554 -319.3914,145.608 -584.9931,142.951 -326.3809,-3.265 -641.85422,-72.651 -682.94321,-150.208 -81.44944,-153.739 51.50395,-483.597 299.57811,-743.253 499.2979,-522.6091 1239.9763,-739.7844 1874.7901,-549.7096 632.0565,189.2492 1194.0696,718.5457 1194.0696,1124.5586 0,64.763 -13.1878,145.311 -29.3063,178.998 -26.8473,56.108 -46.5115,65.117 -234.3394,107.359 -274.3669,61.706 -523.2343,75.545 -660.6311,36.736 z"
       id="path1"
       transform="matrix(0.43478528,0,0,0.43601685,394.85166,1591.3777)" /><path
       style="fill:#ecc5c5;fill-opacity:1;stroke-width:37.7953;stroke-linecap:round;stroke-linejoin:round"
       d="m 1385.51,11400.57 c -343.0123,-19.225 -669.99836,-56.836 -710.03,-81.67 -50.50903,-31.333 -36.45035,-412.906 20.59302,-558.924 35.87276,-91.826 54.27039,-116.353 80.92751,-107.893 111.99157,35.545 428.16827,92.86 578.11577,104.798 224.6929,17.888 365.589,-10.741 618.7124,-125.722 319.0498,-144.927 602.7246,-163.728 816.0991,-54.087 40.4027,20.76 129.6743,66.95 198.3814,102.644 220.3689,114.482 520.4367,123.378 918.5393,27.23 l 160.8399,-38.845 39.6149,64.307 c 92.7616,150.58 125.7618,394.933 73.7257,545.909 -29.6285,85.964 -53.0067,92.411 -445.2836,122.806 -313.5183,24.292 -1913.6611,23.915 -2350.2354,-0.553 z"
       id="path2"
       transform="matrix(0.43478528,0,0,0.43601685,394.85166,1591.3777)" /></g><g
     inkscape:groupmode="layer"
     id="back_view"
     transform="matrix(0.60853793,0,0,0.60681905,1794.2066,-194.99652)"
     style="stroke-width:1.64561"><path
       style="display:inline;opacity:1;fill:none;stroke:#000000;stroke-width:16.4562;stroke-linecap:round;stroke-linejoin:round;stroke-dasharray:none;stroke-opacity:1"
       d="m 2074.3455,5190.9665 c 0,302.1786 91.5101,737.1436 91.5101,1038.5432"
       id="back_view__right__upper2_profile"
       sodipodi:nodetypes="cc" /><path
       style="opacity:1;fill:none;stroke:#000000;stroke-width:16.4561;stroke-linecap:round;stroke-linejoin:round;stroke-dasharray:none;stroke-opacity:1"
       d="m 816.33465,5168.5283 c 0,273.6993 -99.70292,698.2983 -99.70292,1050.7585"
       id="back_view__left__upper2_profile"
       sodipodi:nodetypes="cc" /><path
       style="opacity:1;fill:none;stroke:#000000;stroke-width:16.4561;stroke-linecap:round;stroke-linejoin:round;stroke-dasharray:none;stroke-opacity:1"
       d="m 2165.8556,6229.5097 c 108.2783,64.635 12.5027,168.1218 12.5027,228.2579 0,62.0619 105.4452,157.09 34.7363,227.9992"
       id="back_view__right__sole2_profile"
       sodipodi:nodetypes="csc" /><path
       style="opacity:1;fill:none;stroke:#000000;stroke-width:16.4561;stroke-linecap:round;stroke-linejoin:round;stroke-dasharray:none;stroke-opacity:1"
       d="m 716.6317,6219.2867 c -124.29091,71.9627 -23.15896,168.8088 -23.65559,231.1796 -0.47579,59.7529 -116.5574,168.7752 -21.56345,223.7753"
       id="back_view__left__sole2_profile"
       sodipodi:nodetypes="csc" /><path
       style="opacity:1;fill:none;stroke:#000000;stroke-width:16.4561;stroke-linecap:round;stroke-linejoin:round;stroke-dasharray:none;stroke-opacity:1"
       d="m 671.41264,6674.2416 c 102.22887,59.0219 1430.68956,75.6065 1541.68196,11.525"
       id="path8"
       sodipodi:nodetypes="cc" /><path
       style="opacity:1;fill:none;stroke:#000000;stroke-width:16.4561;stroke-linecap:round;stroke-linejoin:round;stroke-dasharray:none;stroke-opacity:1"
       d="m 716.6317,6219.2867 c 489.521,0 1045.3838,10.223 1449.2239,10.223"
       id="path9"
       sodipodi:nodetypes="cc" /><path
       style="fill:none;stroke:#000000;stroke-width:16.4561;stroke-linecap:round;stroke-linejoin:round"
       d="m 816.33468,5168.5284 c 0,-155.4485 304.90232,-338.7418 641.43062,-349.1564 307.8135,-9.5259 616.5804,247.4641 616.5804,371.5947"
       id="path6"
       sodipodi:nodetypes="csc" /><path
       style="fill:#cc3333;stroke:none;stroke-width:37.7953;stroke-linecap:round;stroke-linejoin:round;fill-opacity:1"
       d="m 9105.6637,13501.032 -654.4845,-5.723 14.0961,-220.363 c 18.6799,-292.021 39.5839,-483.324 125.0104,-1144.036 39.4106,-304.813 79.1278,-675.054 88.2604,-822.759 14.8096,-239.52 22.718,-278.986 73.1487,-365.04 202.5124,-345.561 1031.4144,-654.763 1571.8542,-586.342 373.365,47.269 764.01,244.811 1019.673,515.629 156.374,165.644 164.533,189.949 191.644,570.888 13.257,186.274 46.907,528.033 74.778,759.465 54.992,456.635 101.126,903.249 119.266,1154.592 l 11.481,159.077 -990.122,-4.833 c -544.566,-2.658 -1284.6389,-7.408 -1644.6053,-10.555 z"
       id="path7"
       transform="matrix(0.43478528,0,0,0.43601685,-2948.3891,321.34212)" /><path
       style="fill:#ecc5c5;fill-opacity:1;stroke:none;stroke-width:37.7953;stroke-linecap:round;stroke-linejoin:round"
       d="m 9370.1527,14643.648 c -225.7868,-8.733 -516.7439,-26.113 -646.5713,-38.623 -469.6271,-45.253 -515.8076,-87.045 -390.0116,-352.955 72.4308,-153.106 75.8465,-215.7 20.5422,-376.444 -53.297,-154.911 -51.9447,-178.903 14.537,-257.912 l 55.5892,-66.064 1663.4698,14.902 c 1648.718,14.77 1663.879,15.283 1709.653,57.804 57.965,53.846 59.383,134.637 5.131,292.322 -53.569,155.701 -52.129,181.778 18.253,330.551 121.081,255.939 100.271,323.202 -110.62,357.539 -333.956,54.374 -1456.915,73.033 -2339.9723,38.88 z"
       id="path10"
       transform="matrix(0.43478528,0,0,0.43601685,-2948.3891,321.34212)" /></g><g
     inkscape:groupmode="layer"
     id="top_view"
     transform="matrix(0.73567608,0,0,0.73557071,166.88105,-263.70654)"
     style="stroke-width:1.35939"><path
       style="opacity:1;fill:#ecc5c5;fill-opacity:1;stroke:#404040;stroke-width:13.5939;stroke-linecap:round;stroke-linejoin:round;stroke-dasharray:none;stroke-opacity:1"
       d="m 4463.264,1283.948 c 0,383.7196 -347.6401,529.2182 -653.7475,529.2182 -305.3002,0 -714.7419,-180.2216 -980.6156,-180.2216 -288.8533,0 -592.2769,329.2734 -951.527,338.2701 -412.036,10.3186 -1146.43783,-108.8918 -1146.43783,-531.9349 0,-511.37944 821.74933,-902.4126 1223.26083,-905.26379 585.5376,-4.15796 745.6691,233.31774 1097.5063,233.31774 310.3387,0 582.773,-95.23049 870.0244,-49.21738 246.504,39.486 541.5364,136.85741 541.5364,565.83163 z"
       id="top_view__bottom_profile"
       sodipodi:nodetypes="sssssssss" /><path
       style="fill:#cc3333;fill-opacity:1;stroke:#404040;stroke-width:13.5939;stroke-linecap:round;stroke-linejoin:round;stroke-opacity:1"
       d="m 4361.5537,1280.2839 c 0.975,243.0794 -174.2431,454.4797 -516.9649,463.1784 -342.7222,8.6987 -817.3309,-61.0164 -1025.5424,-61.0164 -294.6211,0 -653.9778,210.9196 -1089.702,205.2399 -373.4614,-4.8681 -954.66166,-7.8729 -954.66166,-470.3798 0,-513.39099 736.72296,-755.93055 1225.63156,-755.93055 466.854,0 831.6361,93.05125 1064.0867,103.14661 232.4507,10.09546 507.4187,-19.67275 759.6267,29.53772 255.0022,49.75552 536.0932,129.04088 537.526,486.22412 z"
       id="top_view__mid_profile"
       sodipodi:nodetypes="sssssssss" /><path
       style="fill:#602020;fill-opacity:1;stroke:#404040;stroke-width:13.5939;stroke-linecap:round;stroke-linejoin:round;stroke-opacity:1"
       d="m 4212.7243,1239.6654 c 0,187.3198 -308.073,297.8348 -499.5956,352.6173 -285.6171,81.6967 -550.9805,65.9191 -552.2297,-0.166 -1.4706,-77.79 188.0872,-176.4253 188.0872,-354.8439 0,-172.1432 -219.199,-309.8017 -219.199,-380.82973 0,-52.58058 330.002,-57.99429 564.8902,-7.07551 202.6778,43.9365 518.0469,251.02194 518.0469,390.29784 z"
       id="top_view__top_profile"
       sodipodi:nodetypes="sssssss" /></g><g
     inkscape:groupmode="layer"
     id="side_view"
     style="display:inline;stroke-width:0.977091"
     transform="matrix(1.0226653,0,0,1.0242384,-324.07446,-461.48837)"><path
       style="fill:#cc3333;fill-opacity:1;stroke-width:9.77086;stroke-linecap:round;stroke-linejoin:round"
       d="m 1608.9597,2650.4658 c -153.1764,-3.934 -237.5935,-13.473 -302.8865,-34.2254 -13.3715,-4.2498 -27.047,-8.3475 -30.3899,-9.1055 -3.3428,-0.7582 -16.5625,-6.4288 -29.3769,-12.6019 -12.8144,-6.1727 -27.3368,-13.1401 -32.272,-15.483 -4.9352,-2.3427 -10.4054,-5.7176 -12.156,-7.4994 -1.7506,-1.7818 -12.0398,-9.3522 -22.8648,-16.8227 -23.5773,-16.2715 -43.3769,-37.2708 -60.8369,-64.5234 -35.2911,-55.0843 -36.4709,-56.64 -47.1716,-62.2025 -9.5913,-4.9859 -10.1082,-5.6571 -8.9004,-11.5538 3.5601,-17.3806 19.9026,-34.566 42.5688,-44.7644 20.2563,-9.1141 39.6702,-12.5317 82.879,-14.5899 195.6891,-9.3212 413.1178,-52.9875 590.5778,-118.6058 192.6969,-71.2525 312.0083,-149.4117 632.1109,-414.0875 173.5237,-143.4775 225.8318,-181.1148 263.3706,-189.5028 17.8269,-3.9835 18.1321,-2.7515 6.8079,27.4844 -35.0047,93.4626 -46.1081,142.8435 -37.2978,165.8773 15.5771,40.7266 73.9025,77.9038 161.6877,103.0611 91.167,26.1265 227.8055,41.6143 287.1791,32.5513 48.5211,-7.4063 81.1933,-24.8165 116.4948,-62.0775 18.9937,-20.0479 31.9371,-38.9482 57.9744,-84.6578 33.3679,-58.578 54.8421,-73.9982 118.2496,-84.9141 15.15,-2.6081 22.6675,-3.153 23.5619,-1.708 0.7226,1.1671 1.8987,6.3419 2.6143,11.4995 0.7152,5.1575 8.124,59.9 16.4641,121.6501 27.4507,203.2511 28.133,206.0141 77.9157,315.5776 24.2716,53.4181 34.9224,79.9003 39.2091,97.4892 5.4171,22.2255 13.4613,115.1253 13.4859,155.7397 v 15.5342 l -11.5434,3.3508 c -6.349,1.8429 -17.0038,6.1028 -23.6769,9.4662 -6.6731,3.3635 -14.0144,6.3353 -16.314,6.6038 -6.3881,0.7458 -35.5834,13.3718 -35.5834,15.3885 0,5.2475 -50.3585,12.767 -72.936,10.8903 -6.1285,-0.5092 -22.9949,-1.8626 -37.4808,-3.0074 -38.0184,-3.0044 -126.59,-12.4369 -246.1585,-26.2145 -282.1473,-32.5122 -307.2092,-34.0314 -366.1387,-22.1947 -46.0724,9.2541 -88.4817,23.2074 -233.5469,76.8393 -187.3061,69.2488 -344.6998,109.2458 -452.9954,115.1153 -15.7022,0.851 -29.8335,2.373 -31.403,3.3821 -1.5695,1.0091 -15.7201,1.847 -31.4459,1.8621 -17.9729,0.019 -29.6362,0.8661 -31.4029,2.2852 -1.7979,1.4443 -13.1363,2.1913 -31.4639,2.0734 -19.9644,-0.1282 -29.5653,0.5717 -31.6611,2.3084 -2.0518,1.7003 -10.0096,2.3604 -25.0356,2.0767 -12.1154,-0.2287 -46.1879,0.6182 -75.7168,1.8821 -58.911,2.5216 -106.6912,2.6085 -194.4956,0.3534 z"
       id="side_view__polyester_material" /><path
       style="fill:#ecc5c5;fill-opacity:1;stroke:none;stroke-width:0;stroke-linecap:round;stroke-linejoin:round;stroke-dasharray:none;stroke-opacity:1"
       d="m 2361.5111,2839.1375 c -333.6805,-7.5551 -599.9046,-18.7519 -726.0161,-30.5343 -206.7253,-19.3145 -427.4709,-78.0212 -560.3694,-149.0287 -22.322,-11.9268 -29.7792,-17.7671 -37.8616,-29.6516 -35.8522,-52.7183 -29.0165,-170.5495 11.0803,-190.9987 5.3587,-2.7329 10.6659,-3.2991 15.1431,-1.6154 7.2823,2.7385 10.3071,6.7649 43.9633,58.5198 40.0039,61.5162 90.9348,98.1142 175.7783,126.3113 91.6028,30.4434 195.6437,40.0235 434.3173,39.9917 238.0626,-0.031 370.2281,-10.8909 509.1266,-41.8314 93.0638,-20.7304 169.9583,-44.8988 332.2318,-104.423 178.3581,-65.424 214.8122,-73.522 300.0388,-66.6523 42.2123,3.4026 82.6077,7.7708 341.1119,36.8867 233.9335,26.3484 250.284,25.7255 326.5464,-12.4411 13.1275,-6.5695 26.3312,-11.7724 29.3416,-11.5617 7.5904,0.5311 87.3611,84.2316 97.2184,102.0078 22.9357,41.3614 23.846,75.7495 3.1083,117.4036 -17.59,35.3314 -37.9402,57.1296 -66.1022,70.8056 -86.8457,42.174 -277.05,68.039 -607.8562,82.6594 -69.0282,3.0509 -532.5268,6.151 -620.8006,4.1523 z"
       id="side_view__urethane_material" /><path
       style="display:inline;fill:none;stroke:#404040;stroke-width:9.77085;stroke-linecap:round;stroke-linejoin:round;stroke-dasharray:none;stroke-opacity:1"
       d="m 3631.054,2731.2485 c -131.7062,154.2327 -1440.9036,119.9834 -1937.5733,87.9748 -276.5006,-17.8195 -516.3459,-93.4685 -640.426,-164.8586"
       id="side_view__bottom_baseline"
       sodipodi:nodetypes="csc" /><path
       style="display:inline;opacity:1;fill:none;fill-opacity:1;stroke:#404040;stroke-width:9.77085;stroke-linecap:round;stroke-linejoin:round;stroke-dasharray:none;stroke-opacity:1"
       d="m 1053.934,2429.4184 c 59.4243,0 28.3647,152.3398 307.0945,207.692 125.868,24.9959 477.4303,28.2929 688.2288,6.7758 364.8319,-37.2401 603.8279,-202.6753 763.2832,-202.6753 88.9323,0 438.1659,49.8973 582.9001,58.5548 97.8064,5.8504 127.9045,-45.4327 169.9179,-45.4327"
       id="side_view__mid_baseline"
       sodipodi:nodetypes="cssssc" /><path
       d="m 3413.557,1721.4571 c -31.3865,4.8793 -84.858,7.4835 -121.9729,45.237 -40.5448,41.2421 -71.886,193.7299 -234.3869,193.7299 -132.2284,0 -376.0726,-40.6132 -409.6971,-138.4756 -11.642,-33.8832 40.09,-158.8469 50.9232,-189.2842"
       style="display:inline;fill:none;stroke:#404040;stroke-width:9.77085;stroke-linecap:round;stroke-linejoin:round;stroke-dasharray:none;stroke-opacity:1"
       id="side_view__top_baseline"
       sodipodi:nodetypes="csssc" /><path
       style="display:inline;opacity:1;fill:none;fill-opacity:1;stroke:#404040;stroke-width:9.77089;stroke-linecap:round;stroke-linejoin:round;stroke-dasharray:none;stroke-opacity:1"
       d="m 3631.054,2731.2485 c 133.7689,-156.6483 -64.6854,-243.6911 -65.6955,-276.9155 -0.3829,-12.5928 -2.9205,-103.2557 -12.109,-167.4108 -8.5625,-59.7838 -80.0958,-166.1777 -95.6956,-257.5652 -16.4187,-96.185 -37.9638,-284.9762 -43.9969,-307.8999"
       id="side_view__back_baseline"
       sodipodi:nodetypes="csssc" /><path
       style="display:inline;opacity:1;fill:none;fill-opacity:1;stroke:#3a3a3a;stroke-width:9.77089;stroke-linecap:round;stroke-linejoin:round;stroke-dasharray:none;stroke-opacity:1"
       d="m 2698.4233,1632.6642 c -55.9178,-51.4039 -348.6488,265.0131 -666.5066,473.2903 -340.8401,223.3367 -815.9137,244.8104 -845.6506,244.8104 -97.7635,0 -132.3321,40.0199 -132.3321,78.6535 -61.65004,16.4891 -61.64714,189.9832 -0.8793,224.9463"
       id="side_view__front_baseline"
       sodipodi:nodetypes="csscc" /><path
       style="opacity:0.324696;fill:none;fill-opacity:1;stroke:#000000;stroke-width:9.77085;stroke-linecap:round;stroke-linejoin:round;stroke-dasharray:29.3125, 29.3125;stroke-dashoffset:0;stroke-opacity:1"
       d="m 3565.3586,2454.333 c -53.9777,0 -176.2399,112.6894 -559.0673,112.6894 -223.6778,0 -1005.2864,94.5668 -1378.4982,94.5668 -552.4671,0 -511.9582,-232.1708 -573.8591,-232.1708"
       id="side_view__insole_baseline"
       sodipodi:nodetypes="cssc" /><path
       style="display:inline;opacity:0.391;fill:none;stroke:#000000;stroke-width:9.77087;stroke-linecap:round;stroke-linejoin:round;stroke-dasharray:29.3126, 29.3126;stroke-opacity:1"
       d="m 1953.1766,2152.8914 c 0,215.0785 70.7604,367.3346 71.4809,493.3386"
       id="side_view__upper1_baseline"
       sodipodi:nodetypes="cc" /><path
       style="display:inline;opacity:0.391;fill:none;stroke:#000000;stroke-width:9.77087;stroke-linecap:round;stroke-linejoin:round;stroke-dasharray:29.3126, 29.3126;stroke-opacity:1"
       d="m 2940.271,1952.3116 c 0,129.9047 9.2603,373.9006 9.9808,499.9046"
       id="side_view__upper2_baseline"
       sodipodi:nodetypes="cc" /><path
       style="opacity:0.391;fill:none;stroke:#000000;stroke-width:9.77087;stroke-linecap:round;stroke-linejoin:round;stroke-dasharray:29.3126, 29.3126;stroke-opacity:1"
       d="m 1870.7655,2655.4102 c 0,68.0578 7.4787,94.4877 7.4787,173.9248"
       id="side_view__sole1_baseline"
       sodipodi:nodetypes="cc" /><path
       style="display:inline;opacity:0.391;fill:none;stroke:#000000;stroke-width:9.77087;stroke-linecap:round;stroke-linejoin:round;stroke-dasharray:29.3126, 29.3126;stroke-opacity:1"
       d="m 2812.5405,2441.2109 c 0,68.0578 78.9796,322.4636 78.9796,401.9006"
       id="side_view__sole2_baseline"
       sodipodi:nodetypes="cc" /></g></svg>
