<?xml version="1.0" encoding="UTF-8" standalone="no"?>
<!-- Created with Inkscape (http://www.inkscape.org/) -->

<svg
   width="4096mm"
   height="4096mm"
   viewBox="0 0 4096 4096"
   version="1.1"
   id="svg1"
   inkscape:version="1.3-dev (411cb25, 2022-09-21)"
   sodipodi:docname="runner_1.svg"
   xml:space="preserve"
   xmlns:inkscape="http://www.inkscape.org/namespaces/inkscape"
   xmlns:sodipodi="http://sodipodi.sourceforge.net/DTD/sodipodi-0.dtd"
   xmlns="http://www.w3.org/2000/svg"
   xmlns:svg="http://www.w3.org/2000/svg"><sodipodi:namedview
     id="namedview1"
     pagecolor="#ffffff"
     bordercolor="#000000"
     borderopacity="0.25"
     inkscape:showpageshadow="2"
     inkscape:pageopacity="0.0"
     inkscape:pagecheckerboard="0"
     inkscape:deskcolor="#d1d1d1"
     inkscape:document-units="mm"
     showgrid="false"
     inkscape:zoom="0.38974818"
     inkscape:cx="1307.2543"
     inkscape:cy="13539.512"
     inkscape:window-width="1920"
     inkscape:window-height="1048"
     inkscape:window-x="0"
     inkscape:window-y="32"
     inkscape:window-maximized="1"
     inkscape:current-layer="side_view" /><defs
     id="defs1" /><g
     inkscape:groupmode="layer"
     id="front_view"
     transform="matrix(0.60853793,0,0,0.60681905,-240.28221,-965.67831)"
     style="stroke-width:1.64561"><path
       style="opacity:1;fill:#cc3333;fill-opacity:1;stroke:none;stroke-width:16.4561;stroke-linecap:round;stroke-linejoin:round;stroke-dasharray:none;stroke-opacity:1"
       d="m 1822.257,6265.772 c -53.2177,-6.1076 -88.1859,-19.8894 -166.1481,-65.4831 -63.6166,-37.2042 -98.1504,-46.8526 -175.468,-49.0244 -95.6896,-2.6878 -138.755,7.2501 -239.2963,55.2207 -95.3737,45.5051 -130.6011,54.26 -216.1918,53.7289 -69.6533,-0.4322 -143.4548,-11.4958 -257.4498,-38.5943 -19.96886,-4.747 -38.48998,-9.9937 -41.15803,-11.6594 -7.84297,-4.8965 -8.98291,-83.7018 -1.72703,-119.3911 14.8147,-72.8687 52.91107,-150.2158 112.96787,-229.359 32.44859,-42.761 110.96042,-122.3132 156.01095,-158.0783 83.82814,-66.5504 182.94314,-121.7929 272.30264,-151.7702 80.3419,-26.9522 107.0763,-31.4773 186.4861,-31.5648 76.881,-0.085 105.2395,4.4306 175.7943,27.9912 192.4723,64.273 385.6678,233.1806 480.8489,420.3984 37.1596,73.0917 53.2732,133.2936 52.6036,196.5324 -0.6382,60.2725 4.0215,54.5023 -55.7399,69.0246 -61.8079,15.0197 -136.7372,27.9156 -188.1168,32.3764 -43.1461,3.746 -60.5996,3.6825 -95.7186,-0.348 z"
       id="path6" /><path
       style="opacity:1;fill:#ecc5c5;fill-opacity:1;stroke:none;stroke-width:16.4561;stroke-linecap:round;stroke-linejoin:round;stroke-dasharray:none;stroke-opacity:1"
       d="m 1269.0995,6577.622 c -377.06945,-11.861 -547.49625,-27.3905 -601.78111,-54.8346 -29.97049,-15.1519 -66.21422,-50.1283 -66.21422,-63.8988 0,-26.2916 27.63805,-82.2071 90.25141,-182.5905 l 29.09456,-46.6453 66.59443,15.334 c 98.51681,22.6845 168.50815,31.7942 244.28323,31.7942 84.7445,0 127.6836,-10.3087 214.1651,-51.4165 90.6187,-43.0742 123.57,-52.3526 197.992,-55.7504 83.1568,-3.7965 126.4952,5.7267 192.1974,42.2339 114.9267,63.8582 144.9794,72.9832 238.9578,72.5548 78.6424,-0.3585 172.2168,-14.9 276.9738,-43.0416 9.0135,-2.4215 18.6346,8.7797 56.5475,65.8341 52.6407,79.2181 81.8986,134.5248 81.9224,154.8601 0.021,20.6452 -17.5831,39.8868 -59.0341,64.5123 -42.8042,25.4294 -86.701,33.5844 -234.2155,43.5115 -86.2351,5.8032 -610.3414,11.2356 -727.7347,7.5428 z"
       id="path5" /><path
       style="display:inline;opacity:1;fill:none;stroke:#000000;stroke-width:16.4562;stroke-linecap:round;stroke-linejoin:round;stroke-dasharray:none;stroke-opacity:1"
       d="m 1454.7235,5506.6563 c 381.7851,0 782.2697,457.3642 711.1321,722.8534"
       id="front_view__right__upper1_profile"
       sodipodi:nodetypes="cc" /><path
       style="opacity:1;fill:none;stroke:#000000;stroke-width:16.4561;stroke-linecap:round;stroke-linejoin:round;stroke-dasharray:none;stroke-opacity:1"
       d="m 1454.7236,5506.6563 c -374.5341,0 -814.02526,429.2432 -738.09187,712.6305"
       id="front_view__left__upper1_profile"
       sodipodi:nodetypes="cc" /><path
       style="opacity:1;fill:none;stroke:#000000;stroke-width:16.4561;stroke-linecap:round;stroke-linejoin:round;stroke-dasharray:none;stroke-opacity:1"
       d="m 2165.8556,6229.5097 c 168.1765,247.1092 167.043,248.4723 47.239,317.6412"
       id="front_view__right__sole1_profile"
       sodipodi:nodetypes="cc" /><path
       style="opacity:1;fill:none;stroke:#000000;stroke-width:16.4561;stroke-linecap:round;stroke-linejoin:round;stroke-dasharray:none;stroke-opacity:1"
       d="m 716.6317,6219.2867 c -150.26031,240.1024 -157.54071,251.4901 -45.21904,316.339"
       id="front_view__left__sole1_profile"
       sodipodi:nodetypes="cc" /><path
       style="opacity:1;fill:none;stroke:#000000;stroke-width:16.4561;stroke-linecap:round;stroke-linejoin:round;stroke-dasharray:none;stroke-opacity:1"
       d="m 671.41264,6535.6257 c 102.22887,59.0219 1430.68956,75.6065 1541.68196,11.525"
       id="front_view__bottom"
       sodipodi:nodetypes="cc" /><path
       style="opacity:1;fill:none;stroke:#000000;stroke-width:16.4561;stroke-linecap:round;stroke-linejoin:round;stroke-dasharray:none;stroke-opacity:1"
       d="m 716.6317,6219.2867 c 544.8811,146.0005 454.6556,-59.7683 751.147,-59.7683 271.1425,0 166.6791,212.3789 698.0769,69.9913"
       id="path3"
       sodipodi:nodetypes="csc" /></g><g
     inkscape:groupmode="layer"
     id="top_view"
     transform="matrix(0.73567608,0,0,0.73557071,166.88105,-263.70654)"
     style="stroke-width:1.35939"><path
       style="opacity:1;fill:#ecc5c5;fill-opacity:1;stroke:#404040;stroke-width:13.5939;stroke-linecap:round;stroke-linejoin:round;stroke-dasharray:none;stroke-opacity:1"
       d="m 5062.6422,2028.8123 c 0,355.5942 -322.167,490.4282 -605.8447,490.4282 -282.9295,0 -662.3697,-167.0119 -908.7618,-167.0119 -267.6878,0 -548.8783,305.1387 -881.8046,313.476 -381.8444,9.5623 -1062.4336,-100.9104 -1062.4336,-492.9458 0,-473.897 761.5364,-836.2687 1133.6274,-838.9109 542.6329,-3.8532 691.0309,216.2163 1017.0875,216.2163 287.5989,0 540.0708,-88.2504 806.2741,-45.6099 228.4416,36.5918 501.8557,126.8262 501.8557,524.358 z"
       id="top_view__bottom_profile"
       sodipodi:nodetypes="sssssssss" /><path
       style="fill:#cc3333;fill-opacity:1;stroke:#404040;stroke-width:13.5939;stroke-linecap:round;stroke-linejoin:round;stroke-opacity:1"
       d="m 4968.3847,2025.4168 c 0.9035,225.2625 -161.4756,421.1678 -479.0848,429.2289 -317.6095,8.0611 -757.4416,-56.5441 -950.3966,-56.5441 -273.033,0 -606.0581,195.4599 -1009.855,190.1965 -346.0963,-4.5113 -884.7096,-7.2958 -884.7096,-435.9025 0,-475.7611 682.7402,-700.5233 1135.8244,-700.5233 432.6457,0 770.6987,86.2309 986.1167,95.5863 215.418,9.3555 470.238,-18.2308 703.9656,27.3727 236.3172,46.1086 496.8115,119.5826 498.1393,450.5855 z"
       id="top_view__mid_profile"
       sodipodi:nodetypes="sssssssss" /><path
       style="fill:#602020;fill-opacity:1;stroke:#404040;stroke-width:13.5939;stroke-linecap:round;stroke-linejoin:round;stroke-opacity:1"
       d="m 4830.4606,1997.7151 c 0,189.9478 -285.4992,302.0132 -462.9881,357.5643 -264.6888,82.8429 -511.7656,66.8538 -511.7656,-0.1682 0,-53.7131 84.997,-132.5381 84.997,-200.5797 0,-125.3858 -60.0641,-106.596 -60.0641,-198.4385 0,-91.8421 30.9689,-85.2836 30.9689,-170.8846 0,-103.7963 -84.7339,-106.9283 -84.7339,-183.7235 0,-33.856 305.8214,-51.1765 523.4984,0.4567 187.8267,44.5528 480.0874,254.5436 480.0874,395.7735 z"
       id="top_view__top_profile"
       sodipodi:nodetypes="sssssssss" /></g><g
     inkscape:groupmode="layer"
     id="side_view"
     style="display:inline;stroke-width:0.977091"
     transform="matrix(1.0226653,0,0,1.0242384,-351.14654,-234.34768)"><path
       style="fill:#ecc5c5;fill-opacity:1;stroke:none;stroke-width:0;stroke-linecap:round;stroke-linejoin:round;stroke-dasharray:none;stroke-opacity:1"
       d="m 2892.0301,3231.4571 c -309.2303,-7.0013 -555.9471,-17.3774 -672.8178,-28.2962 -191.5777,-17.8988 -396.1484,-72.3025 -519.3088,-138.1054 -20.6864,-11.0526 -27.5972,-16.4648 -35.0874,-27.4782 -33.2251,-48.8542 -26.8903,-158.0488 10.2684,-176.9991 4.9661,-2.5326 9.8844,-3.0573 14.0335,-1.497 6.7487,2.5378 9.5519,6.269 40.742,54.2305 37.0726,57.0072 84.2716,90.9227 162.8983,117.0531 84.8906,28.212 181.308,37.0899 402.493,37.0604 220.6188,-0.029 343.1,-10.0926 471.8208,-38.7653 86.2446,-19.2109 157.5047,-41.6079 307.8878,-96.7691 165.289,-60.6287 199.072,-68.1331 278.0537,-61.7669 39.1192,3.1532 76.5547,7.2012 316.1172,34.183 216.7922,24.4171 231.9446,23.8399 302.619,-11.5292 12.1656,-6.088 24.4018,-10.9095 27.1916,-10.7143 7.0342,0.4922 80.9598,78.0577 90.0948,94.531 21.2551,38.3297 22.0987,70.1973 2.8805,108.7983 -16.3011,32.7417 -35.1601,52.9422 -61.2586,65.6158 -80.4821,39.0827 -256.7494,63.0519 -563.316,76.6007 -63.9702,2.8273 -493.5064,5.7001 -575.312,3.8479 z"
       id="side_view__urethane_material" /><path
       style="fill:#cc3333;fill-opacity:1;stroke:none;stroke-width:0;stroke-linecap:round;stroke-linejoin:round;stroke-dasharray:none;stroke-opacity:1"
       d="m 2166.2455,3057.094 c -150.7421,-5.9152 -224.5309,-17.1274 -294.4797,-44.746 -40.1894,-15.8683 -70.1882,-34.6113 -97.5116,-60.9244 -19.2142,-18.5039 -30.3493,-33.1648 -50.1769,-66.0661 -13.3934,-22.2249 -23.4104,-33.3949 -32.6889,-36.452 l -6.5727,-2.1656 2.766,-9.1755 c 6.0193,-19.9673 22.5536,-34.9904 48.4544,-44.0259 17.5615,-6.1262 36.5487,-8.5743 86.9144,-11.206 169.9048,-8.8783 369.9327,-49.936 528.4832,-108.4767 63.4899,-23.4419 146.2315,-62.2578 197.3317,-92.5726 101.1841,-60.0264 262.0958,-180.137 437.1658,-326.3171 134.9294,-112.6634 159.684,-132.46 177.3008,-141.7902 8.0545,-4.2658 9.5026,-4.4179 20.3789,-2.1403 8.8031,1.8434 13.4768,4.2173 18.8356,9.5672 6.7492,6.7379 7.1262,7.8374 7.1052,20.7205 -0.019,11.8805 -1.5098,17.2666 -11.7584,42.4904 -21.8359,53.7426 -24.2973,74.7732 -11.7334,100.2516 33.2103,67.3475 170.3728,125.7446 320.5068,136.456 48.6896,3.4739 80.9776,-1.3212 113.8621,-16.9095 43.5451,-20.6418 69.7098,-49.4297 110.3289,-121.3887 30.3905,-53.8392 51.7002,-68.5208 113.8687,-78.4516 9.7669,-1.5602 18.1748,-2.1638 18.6837,-1.3415 0.5093,0.8224 7.3431,49.1175 15.187,107.3224 22.2744,165.2917 25.2233,182.8281 36.6541,217.9676 7.9428,24.4162 15.6003,42.9505 39.3543,95.2539 22.6354,49.8394 29.9324,67.8025 34.0508,83.8208 5.5077,21.4201 13.3804,108.7727 13.3804,148.4608 v 15.4293 l -7.1336,1.1558 c -3.9236,0.6356 -21.4865,7.9989 -39.0288,16.3629 -40.1786,19.1566 -57.6052,23.6094 -92.2261,23.5656 -35.7472,-0.046 -95.3606,-5.7612 -266.3945,-25.5427 -288.756,-33.3971 -301.849,-33.8843 -377.4603,-14.0449 -33.0291,8.6664 -70.714,21.4933 -167.9849,57.1776 -119.8305,43.9604 -177.1718,62.5226 -247.9794,80.2747 -105.2513,26.3874 -192.5232,38.3523 -331.8724,45.4997 -55.3995,2.8415 -251.1573,4.0972 -305.6112,1.9605 z"
       id="side_view__polyester_material" /><path
       style="display:inline;fill:none;stroke:#404040;stroke-width:9.77085;stroke-linecap:round;stroke-linejoin:round;stroke-dasharray:none;stroke-opacity:1"
       d="m 4068.5483,3131.4761 c -122.0555,142.9279 -1335.3226,111.189 -1795.5992,81.5265 -256.2402,-16.5134 -478.5111,-86.6176 -593.4993,-152.775"
       id="side_view__bottom_baseline"
       sodipodi:nodetypes="csc" /><path
       style="display:inline;opacity:1;fill:none;fill-opacity:1;stroke:#404040;stroke-width:9.77085;stroke-linecap:round;stroke-linejoin:round;stroke-dasharray:none;stroke-opacity:1"
       d="m 1680.2647,2851.7691 c 55.07,0 26.2863,141.1738 284.5924,192.4689 116.6451,23.1638 442.447,26.2191 637.7994,6.2791 338.0991,-34.5105 559.5829,-187.8198 707.3542,-187.8198 82.4159,0 406.0597,46.24 540.1886,54.2629 90.6397,5.4216 118.5324,-42.1026 157.4673,-42.1026"
       id="side_view__mid_baseline"
       sodipodi:nodetypes="cssssc" /><path
       d="m 3866.9882,2195.6991 c -29.0866,4.5217 -78.6401,6.935 -113.0354,41.9213 -37.5739,38.2192 -66.6186,179.5301 -217.2124,179.5301 -122.5395,0 -320.1441,-55.1727 -351.3048,-145.8621 -10.7889,-31.3997 16.2399,-81.4292 26.2793,-109.6356 12.9001,-36.2442 -6.9227,-58.2882 -41.3021,-56.5043"
       style="display:inline;fill:none;stroke:#404040;stroke-width:9.77085;stroke-linecap:round;stroke-linejoin:round;stroke-dasharray:none;stroke-opacity:1"
       id="side_view__top_baseline"
       sodipodi:nodetypes="cssssc" /><path
       style="display:inline;opacity:1;fill:none;fill-opacity:1;stroke:#404040;stroke-width:9.77089;stroke-linecap:round;stroke-linejoin:round;stroke-dasharray:none;stroke-opacity:1"
       d="m 4068.5483,3131.4761 c 123.9671,-145.1665 -59.9456,-225.8294 -60.8817,-256.6185 -0.3548,-11.6698 -2.7065,-95.6874 -11.2217,-155.1402 -7.9351,-55.4018 -74.2269,-153.9974 -88.6836,-238.6865 -15.2156,-89.1349 -35.182,-264.0883 -40.7731,-285.3318"
       id="side_view__back_baseline"
       sodipodi:nodetypes="csssc" /><path
       style="display:inline;opacity:1;fill:none;fill-opacity:1;stroke:#3a3a3a;stroke-width:9.77089;stroke-linecap:round;stroke-linejoin:round;stroke-dasharray:none;stroke-opacity:1"
       d="m 3170.4128,2105.1485 c -34.3795,1.7839 -289.2593,253.8544 -583.8263,446.8656 -315.8653,206.9668 -756.1283,226.8666 -783.6863,226.8666 -90.5999,0 -122.6355,37.0865 -122.6355,72.8884 -57.1327,15.2805 -57.13,176.0581 -0.8149,208.4585"
       id="side_view__front_baseline" /><path
       style="opacity:0.324696;fill:none;fill-opacity:1;stroke:#000000;stroke-width:9.77085;stroke-linecap:round;stroke-linejoin:round;stroke-dasharray:29.3125, 29.3125;stroke-dashoffset:0;stroke-opacity:1"
       d="m 4007.6667,2874.8576 c -50.0225,0 -163.3261,104.4296 -518.1021,104.4296 -207.288,0 -931.6249,87.6354 -1277.4899,87.6354 -511.9855,0 -474.4449,-215.1535 -531.81,-215.1535"
       id="side_view__insole_baseline"
       sodipodi:nodetypes="cssc" /><path
       style="opacity:0.391;fill:none;stroke:#000000;stroke-width:9.77087;stroke-linecap:round;stroke-linejoin:round;stroke-dasharray:29.3126, 29.3126;stroke-opacity:1"
       d="m 2586.5865,2552.0141 c 0,133.2963 112.8298,344.332 112.8298,485.0715"
       id="side_view__upper1_baseline"
       sodipodi:nodetypes="cc" /><path
       style="opacity:0.391;fill:none;stroke:#000000;stroke-width:9.77087;stroke-linecap:round;stroke-linejoin:round;stroke-dasharray:29.3126, 29.3126;stroke-opacity:1"
       d="m 2437.2435,3061.1965 c 0,63.0693 6.9307,87.562 6.9307,161.1766"
       id="side_view__sole1_baseline"
       sodipodi:nodetypes="cc" /></g></svg>
