<?xml version="1.0" encoding="UTF-8" standalone="no"?>
<!-- Created with Inkscape (http://www.inkscape.org/) -->

<svg
   width="4096mm"
   height="4096mm"
   viewBox="0 0 4096 4096"
   version="1.1"
   id="svg1"
   inkscape:version="1.3-dev (411cb25, 2022-09-21)"
   sodipodi:docname="runner_1.svg"
   xml:space="preserve"
   xmlns:inkscape="http://www.inkscape.org/namespaces/inkscape"
   xmlns:sodipodi="http://sodipodi.sourceforge.net/DTD/sodipodi-0.dtd"
   xmlns="http://www.w3.org/2000/svg"
   xmlns:svg="http://www.w3.org/2000/svg"><sodipodi:namedview
     id="namedview1"
     pagecolor="#ffffff"
     bordercolor="#000000"
     borderopacity="0.25"
     inkscape:showpageshadow="2"
     inkscape:pageopacity="0.0"
     inkscape:pagecheckerboard="0"
     inkscape:deskcolor="#d1d1d1"
     inkscape:document-units="mm"
     showgrid="false"
     inkscape:zoom="0.068898395"
     inkscape:cx="6466.0432"
     inkscape:cy="7518.3174"
     inkscape:window-width="1920"
     inkscape:window-height="1048"
     inkscape:window-x="0"
     inkscape:window-y="32"
     inkscape:window-maximized="1"
     inkscape:current-layer="side_view" /><defs
     id="defs1" /><g
     inkscape:groupmode="layer"
     id="side_view"
     style="display:inline;stroke-width:0.718771"
     transform="matrix(1.3901027,0,0,1.3924404,-648.10698,-9.8624923)"><path
       style="fill:#ecc5c5;fill-opacity:1;stroke:none;stroke-width:0;stroke-linecap:round;stroke-linejoin:round;stroke-dasharray:none;stroke-opacity:1"
       d="m 7765.0575,7284.5987 c -1568.0709,-35.5622 -2819.1427,-88.2655 -3411.7797,-143.7264 -971.4685,-90.913 -2008.8226,-367.247 -2633.3538,-701.482 -104.8989,-56.1395 -139.9429,-83.6293 -177.9245,-139.5705 -168.4805,-248.1461 -136.3573,-802.7812 52.0701,-899.0365 25.1818,-12.8638 50.1222,-15.5287 71.1616,-7.6037 34.2222,12.8905 48.4368,31.8427 206.5985,275.455 187.9907,289.5574 427.3312,461.8255 826.0377,594.5503 430.4702,143.2986 919.3919,188.392 2040.9948,188.2419 1118.7323,-0.1497 1739.8193,-51.2636 2392.5476,-196.9008 437.3365,-97.5787 798.6881,-211.3407 1561.2631,-491.5221 838.1609,-307.9529 1009.4708,-346.0711 1409.9771,-313.7347 198.369,16.0162 388.2,36.5775 1602.993,173.6265 1099.328,124.0226 1176.164,121.0904 1534.546,-58.56 61.69,-30.9236 123.738,-55.4136 137.885,-54.422 35.67,2.5 410.538,396.481 456.86,480.1537 107.782,194.6893 112.06,356.5559 14.607,552.6222 -82.661,166.3061 -178.293,268.9108 -310.635,333.2844 -408.115,198.514 -1301.946,320.2613 -2856.509,389.08 -324.386,14.3601 -2502.5136,28.9526 -2917.3395,19.5447 z"
       id="side_view__urethane_material"
       transform="matrix(0.19033366,0,0,0.19001412,466.22957,7.0828829)" /><path
       style="fill:#cc3333;fill-opacity:1;stroke:none;stroke-width:0;stroke-linecap:round;stroke-linejoin:round;stroke-dasharray:none;stroke-opacity:1"
       d="m 4084.6888,6398.9512 c -764.3954,-30.0451 -1138.5695,-86.9951 -1493.2719,-227.279 -203.7958,-80.6007 -355.9157,-175.8022 -494.4696,-309.4551 -97.4337,-93.9871 -153.8973,-168.4547 -254.4409,-335.5716 -67.9168,-112.887 -118.7116,-169.6232 -165.7619,-185.1512 l -33.3297,-10.9998 14.0261,-46.6053 c 30.5231,-101.4204 114.3669,-177.7281 245.7067,-223.6218 89.0521,-31.1172 185.3341,-43.5519 440.7331,-56.9196 861.5668,-45.0952 1875.8846,-253.641 2679.8759,-550.9879 321.9493,-119.0692 741.5226,-316.228 1000.6462,-470.2066 513.0925,-304.8942 1329.0565,-914.9751 2216.816,-1657.4714 684.2108,-572.2541 809.7382,-672.8075 899.0715,-720.1987 40.8433,-21.6673 48.1863,-22.4398 103.339,-10.8714 44.6396,9.3633 68.3394,21.4212 95.5133,48.5951 34.224,34.224 36.1358,39.8086 36.0295,105.2462 -0.1027,60.3447 -7.6561,87.7026 -59.6253,215.8222 -110.7273,272.9763 -123.2089,379.7978 -59.499,509.2109 168.4054,342.0801 863.9402,638.6976 1625.2522,693.1047 246.899,17.6447 410.628,-6.711 577.381,-85.8889 220.812,-104.8466 353.491,-251.0697 559.465,-616.5731 154.107,-273.4669 262.166,-348.0395 577.415,-398.4812 49.527,-7.9247 92.162,-10.9909 94.743,-6.8137 2.582,4.1771 37.236,249.4834 77.011,545.1251 112.951,839.5707 127.905,928.6437 185.869,1107.1288 40.277,124.0178 79.107,218.1599 199.561,483.8256 114.781,253.1509 151.784,344.3907 172.668,425.753 27.928,108.8002 67.85,552.4922 67.85,754.0812 v 78.3709 l -36.174,5.8701 c -19.896,3.2287 -108.955,40.6293 -197.91,83.1128 -203.741,97.3027 -292.109,119.9201 -467.668,119.6971 -181.27,-0.2298 -483.562,-29.263 -1350.855,-129.7397 -1464.2476,-169.6345 -1530.6401,-172.109 -1914.0565,-71.3385 -167.4871,44.0195 -358.5829,109.1717 -851.832,290.4239 -607.6464,223.2892 -898.4168,317.5728 -1257.4742,407.7413 -533.7171,134.0299 -976.2625,194.8039 -1682.886,231.1075 -280.9247,14.433 -1273.5893,20.8115 -1549.7185,9.9581 z"
       id="side_view__polyester_material"
       transform="matrix(0.19033366,0,0,0.19001412,466.22957,7.0828829)" /><path
       style="display:inline;stroke-width:7.18767197;fill:none;stroke:#404040;stroke-linecap:round;stroke-linejoin:round;stroke-dasharray:none;stroke-opacity:1"
       d="m 3079.7092,1294.7635 c -117.803,137.9459 -1288.7994,107.3133 -1733.0398,78.6847 -247.3127,-15.9378 -461.83958,-83.5984 -572.82151,-147.4498"
       id="side_view__bottom_edge"
       sodipodi:nodetypes="csc"
       transform="translate(-1.4986901e-6)" /><path
       style="display:inline;stroke-width:7.18767197;opacity:1;fill:none;fill-opacity:1;stroke:#404040;stroke-linecap:round;stroke-linejoin:round;stroke-dasharray:none;stroke-opacity:1"
       d="m 3020.9486,1047.0897 c -37.5784,0 -64.4993,45.8677 -151.981,40.6351 -129.4558,-7.7433 -441.8237,-52.3716 -521.3682,-52.3716 -142.6229,0 -356.3901,147.9656 -682.7097,181.2732 -188.5463,19.245 -502.9971,16.2962 -615.5782,-6.0602 C 800.00482,1161.059 827.78566,1024.806 774.63435,1024.806"
       id="side_view__mid_edge"
       sodipodi:nodetypes="cssssc"
       transform="translate(-1.4986901e-6)" /><path
       d="m 2885.1715,391.60411 c -28.0732,4.36406 -75.9002,6.69328 -109.0972,40.46005 -36.2647,36.88705 -64.2976,173.27239 -209.6446,173.27239 -118.2702,0 -308.9901,-53.24961 -339.0652,-140.77797 -10.413,-30.30516 15.6741,-78.59082 25.3637,-105.81411 12.4507,-34.9808 -6.6814,-56.25644 -39.8631,-54.53469"
       style="display:inline;fill:none;stroke:#404040;stroke-width:7.18767197;stroke-linecap:round;stroke-linejoin:round;stroke-dasharray:none;stroke-opacity:1"
       id="side_view__top_edge"
       sodipodi:nodetypes="cssssc" /><path
       style="display:inline;stroke-width:7.1877;opacity:1;fill:none;fill-opacity:1;stroke:#404040;stroke-linecap:round;stroke-linejoin:round;stroke-dasharray:none;stroke-opacity:1"
       d="m 3079.7092,1294.7635 c 119.648,-140.1066 -57.857,-217.9579 -58.7606,-247.6738 -0.3424,-11.263 -2.6121,-92.35208 -10.8307,-149.73259 -7.6587,-53.47073 -71.6407,-148.62967 -85.5938,-230.36686 -14.6855,-86.02794 -33.9563,-254.88312 -39.3526,-275.38614"
       id="side_view__back_edge"
       sodipodi:nodetypes="csssc"
       transform="translate(-1.4986901e-6)" /><path
       style="display:inline;stroke-width:7.1877;opacity:1;fill:none;fill-opacity:1;stroke:#3a3a3a;stroke-linecap:round;stroke-linejoin:round;stroke-dasharray:none;stroke-opacity:1"
       d="m 2212.8651,304.20978 c -33.1817,1.72175 -279.1814,245.00594 -563.4855,431.2895 -304.8605,199.75267 -729.7845,218.95891 -756.38241,218.95891 -87.44342,0 -118.36284,35.79383 -118.36284,70.34781 -55.14216,14.7478 -55.13958,169.9213 -0.78646,201.1924"
       id="side_view__front_edge"
       transform="translate(-1.4986901e-6)" /><path
       style="fill:none;fill-opacity:1;stroke:#4091c0;stroke-width:7.18767;stroke-linecap:round;stroke-linejoin:round;stroke-dasharray:21.563, 21.563;stroke-dashoffset:0;stroke-opacity:1"
       d="m 3020.9487,1047.0897 c -48.2796,0 -157.6357,100.7896 -500.0512,100.7896 -200.066,0 -895.022,85.0658 -1228.837,85.0658 -494.14774,0 -462.0597,-208.1391 -517.42615,-208.1391"
       id="side_view__insole_edge"
       sodipodi:nodetypes="cssc" /></g><g
     inkscape:groupmode="layer"
     id="top_view"
     transform="translate(63.233156,39.430728)"><g
       inkscape:groupmode="layer"
       id="bottom"><path
         style="opacity:1;fill:#ecc5c5;fill-opacity:1;stroke:#404040;stroke-width:10;stroke-linecap:round;stroke-linejoin:round;stroke-dasharray:none;stroke-opacity:1"
         d="m 3684.1837,2864.381 c 0,343.1995 -310.9425,473.3338 -584.7368,473.3338 -273.0721,0 -639.2924,-161.1906 -877.1001,-161.1906 -258.3615,0 -529.7552,294.5028 -851.0822,302.5495 -368.5408,9.229 -1025.41803,-97.3931 -1025.41803,-475.7635 0,-457.3788 735.00423,-807.1196 1094.13143,-809.6697 523.7273,-3.7189 666.9551,208.6798 981.6517,208.6798 277.5788,0 521.2546,-85.1743 778.1832,-44.0201 220.4826,35.3164 484.3708,122.4055 484.3708,506.0808 z"
         id="top_view__bottom_profile"
         sodipodi:nodetypes="sssssssss" /></g><g
       inkscape:groupmode="layer"
       id="mid"><path
         style="fill:#cc3333;fill-opacity:1;stroke:#404040;stroke-width:10;stroke-linecap:round;stroke-linejoin:round;stroke-opacity:1"
         d="m 3593.2102,2861.1039 c 0.8721,217.4107 -155.8497,406.4875 -462.3933,414.2676 -306.5438,7.7801 -731.052,-54.5732 -917.2844,-54.5732 -263.5203,0 -584.9428,188.6469 -974.6712,183.567 -334.03822,-4.354 -853.88603,-7.0415 -853.88603,-420.7086 0,-459.1779 658.95333,-676.1057 1096.25183,-676.1057 417.5722,0 743.8473,83.2252 951.76,92.2546 207.9128,9.0293 453.8547,-17.5954 679.4392,26.4185 228.0838,44.5015 479.5024,115.4144 480.7839,434.8798 z"
         id="top_view__mid_profile"
         sodipodi:nodetypes="sssssssss" /></g><g
       id="top"
       inkscape:groupmode="layer"><path
         style="fill:#602020;fill-opacity:1;stroke:#404040;stroke-width:9.99998;stroke-linecap:round;stroke-linejoin:round;stroke-opacity:1"
         d="m 3460.0914,2834.3678 c 0,183.3269 -275.5522,291.4862 -446.8573,345.1009 -255.467,79.9553 -493.9355,64.5236 -493.9355,-0.1623 0,-51.8408 82.0356,-127.9183 82.0356,-193.5883 0,-121.0153 -57.9714,-102.8804 -57.9714,-191.5216 0,-88.6409 29.8899,-82.311 29.8899,-164.9282 0,-100.1784 -81.7818,-103.2013 -81.7818,-177.3196 0,-32.6759 295.1666,-49.3927 505.2596,0.4408 181.2828,42.9998 463.3609,245.6711 463.3609,381.9783 z"
         id="top_view__top_profile"
         sodipodi:nodetypes="sssssssss" /></g></g></svg>
