<?xml version="1.0" encoding="UTF-8" standalone="no"?>
<!-- Created with Inkscape (http://www.inkscape.org/) -->

<svg
   width="4096mm"
   height="4096mm"
   viewBox="0 0 4096 4096"
   version="1.1"
   id="svg1"
   inkscape:version="1.3-dev (411cb25, 2022-09-21)"
   sodipodi:docname="runner_1.svg"
   xml:space="preserve"
   xmlns:inkscape="http://www.inkscape.org/namespaces/inkscape"
   xmlns:sodipodi="http://sodipodi.sourceforge.net/DTD/sodipodi-0.dtd"
   xmlns="http://www.w3.org/2000/svg"
   xmlns:svg="http://www.w3.org/2000/svg"><sodipodi:namedview
     id="namedview1"
     pagecolor="#ffffff"
     bordercolor="#000000"
     borderopacity="0.25"
     inkscape:showpageshadow="2"
     inkscape:pageopacity="0.0"
     inkscape:pagecheckerboard="0"
     inkscape:deskcolor="#d1d1d1"
     inkscape:document-units="mm"
     showgrid="false"
     inkscape:zoom="0.097437044"
     inkscape:cx="4510.6048"
     inkscape:cy="6537.5546"
     inkscape:window-width="1920"
     inkscape:window-height="1048"
     inkscape:window-x="0"
     inkscape:window-y="32"
     inkscape:window-maximized="1"
     inkscape:current-layer="side_view" /><defs
     id="defs1" /><g
     inkscape:groupmode="layer"
     id="side_view"
     style="display:inline;stroke-width:0.718771"
     transform="matrix(1.3901027,0,0,1.3924404,-648.10698,-9.8624923)"><path
       style="display:inline;opacity:1;fill:#cc3333;fill-opacity:1;stroke:#3a3a3a;stroke-width:7.1877;stroke-linecap:round;stroke-linejoin:round;stroke-dasharray:none;stroke-opacity:1"
       d="m 2212.8651,304.20978 c -33.1817,1.72175 -279.1814,245.00594 -563.4855,431.2895 -304.8605,199.75267 -729.7845,218.95891 -756.38241,218.95891 -87.44342,0 -118.36284,35.79383 -118.36284,70.34781 -55.14216,14.7478 -55.13958,169.9213 -0.78646,201.1924 110.98189,63.8514 326.42781,130.7882 573.74041,146.726 444.2405,28.6286 1614.318,59.985 1732.1209,-77.9609 119.648,-140.1066 -57.857,-217.9579 -58.7606,-247.6738 -0.3424,-11.263 -2.6121,-92.35208 -10.8307,-149.73259 -7.6587,-53.47073 -71.6407,-148.62967 -85.5938,-230.36686 -14.6855,-86.02794 -33.9563,-254.88312 -39.3526,-275.38614 -28.0733,4.36406 -75.8524,7.27796 -109.0494,41.04472 -36.2647,36.88706 -64.2975,173.2724 -209.6446,173.2724 -118.2702,0 -308.9901,-53.24961 -339.0651,-140.77797 -10.413,-30.30516 15.6741,-78.59082 25.3636,-105.81411 12.4507,-34.9808 -6.7292,-56.84112 -39.9109,-55.11937 z"
       id="side_view__profile"
       sodipodi:nodetypes="zsscsssssscssssz" /><path
       d="m 2212.8651,304.20978 c 33.1817,-1.72175 52.3138,19.55389 39.8631,54.53469 -9.6896,27.22329 -35.7767,75.50895 -25.3637,105.81411 30.0751,87.52836 220.795,140.77797 339.0652,140.77797 145.347,0 173.3799,-136.38534 209.6446,-173.27239 33.197,-33.76677 81.024,-36.09599 109.0972,-40.46005"
       style="display:inline;fill:none;stroke:#00d4ff;stroke-width:10.7815;stroke-linecap:round;stroke-linejoin:round;stroke-dasharray:none;stroke-opacity:1"
       id="side_view__top_baseline"
       sodipodi:nodetypes="cssssc" /><path
       style="opacity:1;fill:#ecc5c5;fill-opacity:1;stroke:none;stroke-width:10.7815;stroke-linecap:round;stroke-linejoin:round;stroke-dasharray:none;stroke-opacity:1"
       d="m 2005.5196,1390.9521 c -286.5186,-5.0849 -580.6301,-16.6442 -703.2069,-27.6378 -188.5455,-16.9099 -376.15181,-65.6444 -505.42143,-131.2932 -21.86456,-11.1038 -30.4735,-17.044 -36.26361,-25.0222 -29.18306,-40.211 -29.61306,-133.1355 -0.76677,-165.692 l 8.53571,-9.6335 0.13026,13.2184 c 0.22774,23.111 5.2876,47.0807 13.50371,63.9703 18.48553,38.0001 61.42267,60.5698 162.33421,85.3303 135.81602,33.325 211.23642,40.5631 422.83902,40.5795 267.5921,0.021 397.732,-15.6904 575.3573,-69.4595 48.2902,-14.618 83.2421,-26.759 192.7406,-66.9514 103.0114,-37.8112 142.2658,-49.3379 186.6174,-54.7989 31.2302,-3.8453 66.6088,-1.1882 246.4308,18.5084 186.7068,20.4507 225.9714,23.8015 300.6177,25.6543 85.8741,2.1314 125.438,-3.0511 147.3609,-19.3029 l 8.3085,-6.1593 34.3361,35.0903 c 28.5434,29.1703 36.0784,38.6079 44.6636,55.9414 9.0403,18.2521 10.4451,23.6132 11.2699,43.0095 0.7657,18.0024 -0.175,25.2191 -5.0158,38.477 -12.9621,35.5011 -35.995,62.0084 -67.5821,77.7768 -78.7415,39.3077 -266.5638,63.7744 -573.2817,74.6786 -75.6875,2.6906 -382.6233,5.1514 -463.5074,3.7159 z"
       id="side_view__urethane_material" /><path
       style="display:inline;fill:none;stroke:#00d4ff;stroke-width:10.7815;stroke-linecap:round;stroke-linejoin:round;stroke-dasharray:none;stroke-opacity:1"
       d="m 3079.7092,1294.7635 c -117.803,137.9459 -1288.7994,107.3133 -1733.0398,78.6847 -247.3127,-15.9378 -461.83958,-83.5984 -572.82151,-147.4498"
       id="side_view__bottom_baseline"
       sodipodi:nodetypes="csc" /><path
       style="display:inline;opacity:1;fill:none;fill-opacity:1;stroke:#00d4ff;stroke-width:10.7815;stroke-linecap:round;stroke-linejoin:round;stroke-dasharray:none;stroke-opacity:1"
       d="m 3020.9486,1047.0897 c 0,86.3604 -530.7263,-11.7365 -673.3492,-11.7365 -142.6229,0 -356.3901,147.9656 -682.7097,181.2732 -188.5463,19.245 -502.9971,16.2962 -615.5782,-6.0602 C 800.00482,1161.059 774.63435,1136.21 774.63435,1024.806"
       id="side_view__mid_baseline"
       sodipodi:nodetypes="czssc" /></g><g
     inkscape:groupmode="layer"
     id="top_view"
     transform="translate(63.233156,39.430728)"><g
       inkscape:groupmode="layer"
       id="bottom"><path
         style="opacity:1;fill:#ecc5c5;fill-opacity:1;stroke:#2f2f2f;stroke-width:10;stroke-linecap:round;stroke-linejoin:round;stroke-dasharray:none;stroke-opacity:1"
         d="m 3684.1837,2864.381 c 0,343.1995 -310.9425,473.3338 -584.7368,473.3338 -273.0721,0 -639.2924,-161.1906 -877.1001,-161.1906 -258.3615,0 -529.7552,294.5028 -851.0822,302.5495 -368.5408,9.229 -1025.41803,-97.3931 -1025.41803,-475.7635 0,-457.3788 735.00423,-807.1196 1094.13143,-809.6697 523.7273,-3.7189 666.9551,208.6798 981.6517,208.6798 277.5788,0 521.2546,-85.1743 778.1832,-44.0201 220.4826,35.3164 484.3708,122.4055 484.3708,506.0808 z"
         id="top_view__bottom_profile"
         sodipodi:nodetypes="sssssssss" /></g><g
       inkscape:groupmode="layer"
       id="mid"><path
         style="fill:#cc3333;fill-opacity:1;stroke:#2f2f2f;stroke-width:10;stroke-linecap:round;stroke-linejoin:round;stroke-opacity:1"
         d="m 3593.2102,2861.1039 c 0.8721,217.4107 -155.8497,406.4875 -462.3933,414.2676 -306.5438,7.7801 -731.052,-54.5732 -917.2844,-54.5732 -263.5203,0 -584.9428,188.6469 -974.6712,183.567 -334.03822,-4.354 -853.88603,-7.0415 -853.88603,-420.7086 0,-459.1779 658.95333,-676.1057 1096.25183,-676.1057 417.5722,0 743.8473,83.2252 951.76,92.2546 207.9128,9.0293 453.8547,-17.5954 679.4392,26.4185 228.0838,44.5015 479.5024,115.4144 480.7839,434.8798 z"
         id="top_view__mid_profile"
         sodipodi:nodetypes="sssssssss" /></g><g
       id="top"
       inkscape:groupmode="layer"><path
         style="fill:#602020;fill-opacity:1;stroke:#2f2f2f;stroke-width:9.99998;stroke-linecap:round;stroke-linejoin:round;stroke-opacity:1"
         d="m 3460.0914,2834.3678 c 0,183.3269 -275.5522,291.4862 -446.8573,345.1009 -255.467,79.9553 -493.9355,64.5236 -493.9355,-0.1623 0,-51.8408 82.0356,-127.9183 82.0356,-193.5883 0,-121.0153 -57.9714,-102.8804 -57.9714,-191.5216 0,-88.6409 29.8899,-82.311 29.8899,-164.9282 0,-100.1784 -81.7818,-103.2013 -81.7818,-177.3196 0,-32.6759 295.1666,-49.3927 505.2596,0.4408 181.2828,42.9998 463.3609,245.6711 463.3609,381.9783 z"
         id="top_view__top_profile"
         sodipodi:nodetypes="sssssssss" /></g></g></svg>
